G04 #@! TF.GenerationSoftware,KiCad,Pcbnew,5.0.1*
G04 #@! TF.CreationDate,2019-02-11T13:29:20+08:00*
G04 #@! TF.ProjectId,lab,6C61622E6B696361645F706362000000,rev?*
G04 #@! TF.SameCoordinates,Original*
G04 #@! TF.FileFunction,Soldermask,Top*
G04 #@! TF.FilePolarity,Negative*
%FSLAX46Y46*%
G04 Gerber Fmt 4.6, Leading zero omitted, Abs format (unit mm)*
G04 Created by KiCad (PCBNEW 5.0.1) date Mon 11 Feb 2019 01:29:20 PM +08*
%MOMM*%
%LPD*%
G01*
G04 APERTURE LIST*
%ADD10C,0.100000*%
G04 APERTURE END LIST*
D10*
G36*
X49377742Y-46056418D02*
X49443927Y-46062937D01*
X49527208Y-46088200D01*
X49613767Y-46114457D01*
X49752387Y-46188552D01*
X49770291Y-46198122D01*
X49806029Y-46227452D01*
X49907486Y-46310714D01*
X49990748Y-46412171D01*
X50020078Y-46447909D01*
X50020079Y-46447911D01*
X50103743Y-46604433D01*
X50103743Y-46604434D01*
X50155263Y-46774273D01*
X50172659Y-46950900D01*
X50155263Y-47127527D01*
X50147175Y-47154188D01*
X50103743Y-47297367D01*
X50093725Y-47316109D01*
X50020078Y-47453891D01*
X49990748Y-47489629D01*
X49907486Y-47591086D01*
X49806029Y-47674348D01*
X49770291Y-47703678D01*
X49770289Y-47703679D01*
X49613767Y-47787343D01*
X49557153Y-47804516D01*
X49443927Y-47838863D01*
X49377742Y-47845382D01*
X49311560Y-47851900D01*
X49223040Y-47851900D01*
X49156858Y-47845382D01*
X49090673Y-47838863D01*
X48977447Y-47804516D01*
X48920833Y-47787343D01*
X48764311Y-47703679D01*
X48764309Y-47703678D01*
X48728571Y-47674348D01*
X48627114Y-47591086D01*
X48543852Y-47489629D01*
X48514522Y-47453891D01*
X48440875Y-47316109D01*
X48430857Y-47297367D01*
X48387425Y-47154188D01*
X48379337Y-47127527D01*
X48361941Y-46950900D01*
X48379337Y-46774273D01*
X48430857Y-46604434D01*
X48430857Y-46604433D01*
X48514521Y-46447911D01*
X48514522Y-46447909D01*
X48543852Y-46412171D01*
X48627114Y-46310714D01*
X48728571Y-46227452D01*
X48764309Y-46198122D01*
X48782213Y-46188552D01*
X48920833Y-46114457D01*
X49007392Y-46088200D01*
X49090673Y-46062937D01*
X49156858Y-46056418D01*
X49223040Y-46049900D01*
X49311560Y-46049900D01*
X49377742Y-46056418D01*
X49377742Y-46056418D01*
G37*
G36*
X55308790Y-46113217D02*
X55427261Y-46162289D01*
X55533892Y-46233538D01*
X55624562Y-46324208D01*
X55695811Y-46430839D01*
X55727415Y-46507139D01*
X55738966Y-46528750D01*
X55754511Y-46547692D01*
X55773453Y-46563237D01*
X55795064Y-46574789D01*
X55818513Y-46581902D01*
X55842899Y-46584304D01*
X55867286Y-46581902D01*
X55890735Y-46574789D01*
X55912346Y-46563238D01*
X55931288Y-46547693D01*
X55946833Y-46528751D01*
X55958385Y-46507140D01*
X55965498Y-46483691D01*
X55967900Y-46459304D01*
X55967900Y-46088200D01*
X57269900Y-46088200D01*
X57269900Y-47390200D01*
X55967900Y-47390200D01*
X55967900Y-47019096D01*
X55965498Y-46994710D01*
X55958385Y-46971261D01*
X55946834Y-46949650D01*
X55931288Y-46930708D01*
X55912346Y-46915162D01*
X55890735Y-46903611D01*
X55867286Y-46896498D01*
X55842900Y-46894096D01*
X55818514Y-46896498D01*
X55795065Y-46903611D01*
X55773454Y-46915162D01*
X55754512Y-46930708D01*
X55738966Y-46949650D01*
X55727415Y-46971261D01*
X55695811Y-47047561D01*
X55695809Y-47047564D01*
X55642381Y-47127525D01*
X55624562Y-47154192D01*
X55533892Y-47244862D01*
X55427261Y-47316111D01*
X55308790Y-47365183D01*
X55183019Y-47390200D01*
X55054781Y-47390200D01*
X54929010Y-47365183D01*
X54810539Y-47316111D01*
X54703908Y-47244862D01*
X54613238Y-47154192D01*
X54595420Y-47127525D01*
X54541991Y-47047564D01*
X54541989Y-47047561D01*
X54492917Y-46929090D01*
X54467900Y-46803319D01*
X54467900Y-46675081D01*
X54492917Y-46549310D01*
X54541989Y-46430839D01*
X54613238Y-46324208D01*
X54703908Y-46233538D01*
X54810539Y-46162289D01*
X54929010Y-46113217D01*
X55054781Y-46088200D01*
X55183019Y-46088200D01*
X55308790Y-46113217D01*
X55308790Y-46113217D01*
G37*
G36*
X53536877Y-45350465D02*
X53574564Y-45361898D01*
X53609303Y-45380466D01*
X53639748Y-45405452D01*
X53664734Y-45435897D01*
X53683302Y-45470636D01*
X53694735Y-45508323D01*
X53699200Y-45553661D01*
X53699200Y-46390339D01*
X53694735Y-46435677D01*
X53683302Y-46473364D01*
X53664734Y-46508103D01*
X53639748Y-46538548D01*
X53609303Y-46563534D01*
X53574564Y-46582102D01*
X53536877Y-46593535D01*
X53491539Y-46598000D01*
X52404861Y-46598000D01*
X52359523Y-46593535D01*
X52321836Y-46582102D01*
X52287097Y-46563534D01*
X52256652Y-46538548D01*
X52231666Y-46508103D01*
X52213098Y-46473364D01*
X52201665Y-46435677D01*
X52197200Y-46390339D01*
X52197200Y-45553661D01*
X52201665Y-45508323D01*
X52213098Y-45470636D01*
X52231666Y-45435897D01*
X52256652Y-45405452D01*
X52287097Y-45380466D01*
X52321836Y-45361898D01*
X52359523Y-45350465D01*
X52404861Y-45346000D01*
X53491539Y-45346000D01*
X53536877Y-45350465D01*
X53536877Y-45350465D01*
G37*
G36*
X61336877Y-44777465D02*
X61374564Y-44788898D01*
X61409303Y-44807466D01*
X61439748Y-44832452D01*
X61464734Y-44862897D01*
X61483302Y-44897636D01*
X61494735Y-44935323D01*
X61499200Y-44980661D01*
X61499200Y-45817339D01*
X61494735Y-45862677D01*
X61483302Y-45900364D01*
X61464734Y-45935103D01*
X61439748Y-45965548D01*
X61409303Y-45990534D01*
X61374564Y-46009102D01*
X61336877Y-46020535D01*
X61291539Y-46025000D01*
X60204861Y-46025000D01*
X60159523Y-46020535D01*
X60121836Y-46009102D01*
X60087097Y-45990534D01*
X60056652Y-45965548D01*
X60031666Y-45935103D01*
X60013098Y-45900364D01*
X60001665Y-45862677D01*
X59997200Y-45817339D01*
X59997200Y-44980661D01*
X60001665Y-44935323D01*
X60013098Y-44897636D01*
X60031666Y-44862897D01*
X60056652Y-44832452D01*
X60087097Y-44807466D01*
X60121836Y-44788898D01*
X60159523Y-44777465D01*
X60204861Y-44773000D01*
X61291539Y-44773000D01*
X61336877Y-44777465D01*
X61336877Y-44777465D01*
G37*
G36*
X25362177Y-44506665D02*
X25399864Y-44518098D01*
X25434603Y-44536666D01*
X25465048Y-44561652D01*
X25490034Y-44592097D01*
X25508602Y-44626836D01*
X25520035Y-44664523D01*
X25524500Y-44709861D01*
X25524500Y-45796539D01*
X25520035Y-45841877D01*
X25508602Y-45879564D01*
X25490034Y-45914303D01*
X25465048Y-45944748D01*
X25434603Y-45969734D01*
X25399864Y-45988302D01*
X25362177Y-45999735D01*
X25316839Y-46004200D01*
X24480161Y-46004200D01*
X24434823Y-45999735D01*
X24397136Y-45988302D01*
X24362397Y-45969734D01*
X24331952Y-45944748D01*
X24306966Y-45914303D01*
X24288398Y-45879564D01*
X24276965Y-45841877D01*
X24272500Y-45796539D01*
X24272500Y-44709861D01*
X24276965Y-44664523D01*
X24288398Y-44626836D01*
X24306966Y-44592097D01*
X24331952Y-44561652D01*
X24362397Y-44536666D01*
X24397136Y-44518098D01*
X24434823Y-44506665D01*
X24480161Y-44502200D01*
X25316839Y-44502200D01*
X25362177Y-44506665D01*
X25362177Y-44506665D01*
G37*
G36*
X27412177Y-44506665D02*
X27449864Y-44518098D01*
X27484603Y-44536666D01*
X27515048Y-44561652D01*
X27540034Y-44592097D01*
X27558602Y-44626836D01*
X27570035Y-44664523D01*
X27574500Y-44709861D01*
X27574500Y-45796539D01*
X27570035Y-45841877D01*
X27558602Y-45879564D01*
X27540034Y-45914303D01*
X27515048Y-45944748D01*
X27484603Y-45969734D01*
X27449864Y-45988302D01*
X27412177Y-45999735D01*
X27366839Y-46004200D01*
X26530161Y-46004200D01*
X26484823Y-45999735D01*
X26447136Y-45988302D01*
X26412397Y-45969734D01*
X26381952Y-45944748D01*
X26356966Y-45914303D01*
X26338398Y-45879564D01*
X26326965Y-45841877D01*
X26322500Y-45796539D01*
X26322500Y-44709861D01*
X26326965Y-44664523D01*
X26338398Y-44626836D01*
X26356966Y-44592097D01*
X26381952Y-44561652D01*
X26412397Y-44536666D01*
X26447136Y-44518098D01*
X26484823Y-44506665D01*
X26530161Y-44502200D01*
X27366839Y-44502200D01*
X27412177Y-44506665D01*
X27412177Y-44506665D01*
G37*
G36*
X63201177Y-44727065D02*
X63238864Y-44738498D01*
X63273603Y-44757066D01*
X63304048Y-44782052D01*
X63329034Y-44812497D01*
X63347602Y-44847236D01*
X63359035Y-44884923D01*
X63363500Y-44930261D01*
X63363500Y-45766939D01*
X63359035Y-45812277D01*
X63347602Y-45849964D01*
X63329034Y-45884703D01*
X63304048Y-45915148D01*
X63273603Y-45940134D01*
X63238864Y-45958702D01*
X63201177Y-45970135D01*
X63155839Y-45974600D01*
X62069161Y-45974600D01*
X62023823Y-45970135D01*
X61986136Y-45958702D01*
X61951397Y-45940134D01*
X61920952Y-45915148D01*
X61895966Y-45884703D01*
X61877398Y-45849964D01*
X61865965Y-45812277D01*
X61861500Y-45766939D01*
X61861500Y-44930261D01*
X61865965Y-44884923D01*
X61877398Y-44847236D01*
X61895966Y-44812497D01*
X61920952Y-44782052D01*
X61951397Y-44757066D01*
X61986136Y-44738498D01*
X62023823Y-44727065D01*
X62069161Y-44722600D01*
X63155839Y-44722600D01*
X63201177Y-44727065D01*
X63201177Y-44727065D01*
G37*
G36*
X50168300Y-45311900D02*
X48366300Y-45311900D01*
X48366300Y-43509900D01*
X50168300Y-43509900D01*
X50168300Y-45311900D01*
X50168300Y-45311900D01*
G37*
G36*
X34996821Y-42411313D02*
X34996824Y-42411314D01*
X34996825Y-42411314D01*
X35157239Y-42459975D01*
X35157241Y-42459976D01*
X35157244Y-42459977D01*
X35305078Y-42538995D01*
X35434659Y-42645341D01*
X35541005Y-42774922D01*
X35620023Y-42922756D01*
X35620024Y-42922759D01*
X35620025Y-42922761D01*
X35668686Y-43083175D01*
X35668686Y-43083178D01*
X35668687Y-43083180D01*
X35681000Y-43208197D01*
X35681000Y-44091804D01*
X35668687Y-44216821D01*
X35668686Y-44216824D01*
X35668686Y-44216825D01*
X35634681Y-44328925D01*
X35620023Y-44377244D01*
X35541005Y-44525078D01*
X35434659Y-44654659D01*
X35305078Y-44761005D01*
X35157243Y-44840023D01*
X35157240Y-44840024D01*
X35157238Y-44840025D01*
X34996824Y-44888686D01*
X34996823Y-44888686D01*
X34996820Y-44888687D01*
X34830000Y-44905117D01*
X34663179Y-44888687D01*
X34663176Y-44888686D01*
X34663175Y-44888686D01*
X34502761Y-44840025D01*
X34502759Y-44840024D01*
X34502756Y-44840023D01*
X34354922Y-44761005D01*
X34225341Y-44654659D01*
X34118995Y-44525078D01*
X34039977Y-44377243D01*
X34025320Y-44328925D01*
X33991314Y-44216824D01*
X33991314Y-44216823D01*
X33991313Y-44216820D01*
X33979000Y-44091803D01*
X33979000Y-43208197D01*
X33991314Y-43083179D01*
X34018010Y-42995173D01*
X34039976Y-42922761D01*
X34039977Y-42922759D01*
X34039978Y-42922756D01*
X34118996Y-42774922D01*
X34225342Y-42645341D01*
X34354923Y-42538995D01*
X34502757Y-42459977D01*
X34502760Y-42459976D01*
X34502762Y-42459975D01*
X34663176Y-42411314D01*
X34663177Y-42411314D01*
X34663180Y-42411313D01*
X34830000Y-42394883D01*
X34996821Y-42411313D01*
X34996821Y-42411313D01*
G37*
G36*
X32456821Y-42411313D02*
X32456824Y-42411314D01*
X32456825Y-42411314D01*
X32617239Y-42459975D01*
X32617241Y-42459976D01*
X32617244Y-42459977D01*
X32765078Y-42538995D01*
X32894659Y-42645341D01*
X33001005Y-42774922D01*
X33080023Y-42922756D01*
X33080024Y-42922759D01*
X33080025Y-42922761D01*
X33128686Y-43083175D01*
X33128686Y-43083178D01*
X33128687Y-43083180D01*
X33141000Y-43208197D01*
X33141000Y-44091804D01*
X33128687Y-44216821D01*
X33128686Y-44216824D01*
X33128686Y-44216825D01*
X33094681Y-44328925D01*
X33080023Y-44377244D01*
X33001005Y-44525078D01*
X32894659Y-44654659D01*
X32765078Y-44761005D01*
X32617243Y-44840023D01*
X32617240Y-44840024D01*
X32617238Y-44840025D01*
X32456824Y-44888686D01*
X32456823Y-44888686D01*
X32456820Y-44888687D01*
X32290000Y-44905117D01*
X32123179Y-44888687D01*
X32123176Y-44888686D01*
X32123175Y-44888686D01*
X31962761Y-44840025D01*
X31962759Y-44840024D01*
X31962756Y-44840023D01*
X31814922Y-44761005D01*
X31685341Y-44654659D01*
X31578995Y-44525078D01*
X31499977Y-44377243D01*
X31485320Y-44328925D01*
X31451314Y-44216824D01*
X31451314Y-44216823D01*
X31451313Y-44216820D01*
X31439000Y-44091803D01*
X31439000Y-43208197D01*
X31451314Y-43083179D01*
X31478010Y-42995173D01*
X31499976Y-42922761D01*
X31499977Y-42922759D01*
X31499978Y-42922756D01*
X31578996Y-42774922D01*
X31685342Y-42645341D01*
X31814923Y-42538995D01*
X31962757Y-42459977D01*
X31962760Y-42459976D01*
X31962762Y-42459975D01*
X32123176Y-42411314D01*
X32123177Y-42411314D01*
X32123180Y-42411313D01*
X32290000Y-42394883D01*
X32456821Y-42411313D01*
X32456821Y-42411313D01*
G37*
G36*
X29916821Y-42411313D02*
X29916824Y-42411314D01*
X29916825Y-42411314D01*
X30077239Y-42459975D01*
X30077241Y-42459976D01*
X30077244Y-42459977D01*
X30225078Y-42538995D01*
X30354659Y-42645341D01*
X30461005Y-42774922D01*
X30540023Y-42922756D01*
X30540024Y-42922759D01*
X30540025Y-42922761D01*
X30588686Y-43083175D01*
X30588686Y-43083178D01*
X30588687Y-43083180D01*
X30601000Y-43208197D01*
X30601000Y-44091804D01*
X30588687Y-44216821D01*
X30588686Y-44216824D01*
X30588686Y-44216825D01*
X30554681Y-44328925D01*
X30540023Y-44377244D01*
X30461005Y-44525078D01*
X30354659Y-44654659D01*
X30225078Y-44761005D01*
X30077243Y-44840023D01*
X30077240Y-44840024D01*
X30077238Y-44840025D01*
X29916824Y-44888686D01*
X29916823Y-44888686D01*
X29916820Y-44888687D01*
X29750000Y-44905117D01*
X29583179Y-44888687D01*
X29583176Y-44888686D01*
X29583175Y-44888686D01*
X29422761Y-44840025D01*
X29422759Y-44840024D01*
X29422756Y-44840023D01*
X29274922Y-44761005D01*
X29145341Y-44654659D01*
X29038995Y-44525078D01*
X28959977Y-44377243D01*
X28945320Y-44328925D01*
X28911314Y-44216824D01*
X28911314Y-44216823D01*
X28911313Y-44216820D01*
X28899000Y-44091803D01*
X28899000Y-43208197D01*
X28911314Y-43083179D01*
X28938010Y-42995173D01*
X28959976Y-42922761D01*
X28959977Y-42922759D01*
X28959978Y-42922756D01*
X29038996Y-42774922D01*
X29145342Y-42645341D01*
X29274923Y-42538995D01*
X29422757Y-42459977D01*
X29422760Y-42459976D01*
X29422762Y-42459975D01*
X29583176Y-42411314D01*
X29583177Y-42411314D01*
X29583180Y-42411313D01*
X29750000Y-42394883D01*
X29916821Y-42411313D01*
X29916821Y-42411313D01*
G37*
G36*
X37536821Y-42411313D02*
X37536824Y-42411314D01*
X37536825Y-42411314D01*
X37697239Y-42459975D01*
X37697241Y-42459976D01*
X37697244Y-42459977D01*
X37845078Y-42538995D01*
X37974659Y-42645341D01*
X38081005Y-42774922D01*
X38160023Y-42922756D01*
X38160024Y-42922759D01*
X38160025Y-42922761D01*
X38208686Y-43083175D01*
X38208686Y-43083178D01*
X38208687Y-43083180D01*
X38221000Y-43208197D01*
X38221000Y-44091804D01*
X38208687Y-44216821D01*
X38208686Y-44216824D01*
X38208686Y-44216825D01*
X38174681Y-44328925D01*
X38160023Y-44377244D01*
X38081005Y-44525078D01*
X37974659Y-44654659D01*
X37845078Y-44761005D01*
X37697243Y-44840023D01*
X37697240Y-44840024D01*
X37697238Y-44840025D01*
X37536824Y-44888686D01*
X37536823Y-44888686D01*
X37536820Y-44888687D01*
X37370000Y-44905117D01*
X37203179Y-44888687D01*
X37203176Y-44888686D01*
X37203175Y-44888686D01*
X37042761Y-44840025D01*
X37042759Y-44840024D01*
X37042756Y-44840023D01*
X36894922Y-44761005D01*
X36765341Y-44654659D01*
X36658995Y-44525078D01*
X36579977Y-44377243D01*
X36565320Y-44328925D01*
X36531314Y-44216824D01*
X36531314Y-44216823D01*
X36531313Y-44216820D01*
X36519000Y-44091803D01*
X36519000Y-43208197D01*
X36531314Y-43083179D01*
X36558010Y-42995173D01*
X36579976Y-42922761D01*
X36579977Y-42922759D01*
X36579978Y-42922756D01*
X36658996Y-42774922D01*
X36765342Y-42645341D01*
X36894923Y-42538995D01*
X37042757Y-42459977D01*
X37042760Y-42459976D01*
X37042762Y-42459975D01*
X37203176Y-42411314D01*
X37203177Y-42411314D01*
X37203180Y-42411313D01*
X37370000Y-42394883D01*
X37536821Y-42411313D01*
X37536821Y-42411313D01*
G37*
G36*
X40076821Y-42411313D02*
X40076824Y-42411314D01*
X40076825Y-42411314D01*
X40237239Y-42459975D01*
X40237241Y-42459976D01*
X40237244Y-42459977D01*
X40385078Y-42538995D01*
X40514659Y-42645341D01*
X40621005Y-42774922D01*
X40700023Y-42922756D01*
X40700024Y-42922759D01*
X40700025Y-42922761D01*
X40748686Y-43083175D01*
X40748686Y-43083178D01*
X40748687Y-43083180D01*
X40761000Y-43208197D01*
X40761000Y-44091804D01*
X40748687Y-44216821D01*
X40748686Y-44216824D01*
X40748686Y-44216825D01*
X40714681Y-44328925D01*
X40700023Y-44377244D01*
X40621005Y-44525078D01*
X40514659Y-44654659D01*
X40385078Y-44761005D01*
X40237243Y-44840023D01*
X40237240Y-44840024D01*
X40237238Y-44840025D01*
X40076824Y-44888686D01*
X40076823Y-44888686D01*
X40076820Y-44888687D01*
X39910000Y-44905117D01*
X39743179Y-44888687D01*
X39743176Y-44888686D01*
X39743175Y-44888686D01*
X39582761Y-44840025D01*
X39582759Y-44840024D01*
X39582756Y-44840023D01*
X39434922Y-44761005D01*
X39305341Y-44654659D01*
X39198995Y-44525078D01*
X39119977Y-44377243D01*
X39105320Y-44328925D01*
X39071314Y-44216824D01*
X39071314Y-44216823D01*
X39071313Y-44216820D01*
X39059000Y-44091803D01*
X39059000Y-43208197D01*
X39071314Y-43083179D01*
X39098010Y-42995173D01*
X39119976Y-42922761D01*
X39119977Y-42922759D01*
X39119978Y-42922756D01*
X39198996Y-42774922D01*
X39305342Y-42645341D01*
X39434923Y-42538995D01*
X39582757Y-42459977D01*
X39582760Y-42459976D01*
X39582762Y-42459975D01*
X39743176Y-42411314D01*
X39743177Y-42411314D01*
X39743180Y-42411313D01*
X39910000Y-42394883D01*
X40076821Y-42411313D01*
X40076821Y-42411313D01*
G37*
G36*
X42616821Y-42411313D02*
X42616824Y-42411314D01*
X42616825Y-42411314D01*
X42777239Y-42459975D01*
X42777241Y-42459976D01*
X42777244Y-42459977D01*
X42925078Y-42538995D01*
X43054659Y-42645341D01*
X43161005Y-42774922D01*
X43240023Y-42922756D01*
X43240024Y-42922759D01*
X43240025Y-42922761D01*
X43288686Y-43083175D01*
X43288686Y-43083178D01*
X43288687Y-43083180D01*
X43301000Y-43208197D01*
X43301000Y-44091804D01*
X43288687Y-44216821D01*
X43288686Y-44216824D01*
X43288686Y-44216825D01*
X43254681Y-44328925D01*
X43240023Y-44377244D01*
X43161005Y-44525078D01*
X43054659Y-44654659D01*
X42925078Y-44761005D01*
X42777243Y-44840023D01*
X42777240Y-44840024D01*
X42777238Y-44840025D01*
X42616824Y-44888686D01*
X42616823Y-44888686D01*
X42616820Y-44888687D01*
X42450000Y-44905117D01*
X42283179Y-44888687D01*
X42283176Y-44888686D01*
X42283175Y-44888686D01*
X42122761Y-44840025D01*
X42122759Y-44840024D01*
X42122756Y-44840023D01*
X41974922Y-44761005D01*
X41845341Y-44654659D01*
X41738995Y-44525078D01*
X41659977Y-44377243D01*
X41645320Y-44328925D01*
X41611314Y-44216824D01*
X41611314Y-44216823D01*
X41611313Y-44216820D01*
X41599000Y-44091803D01*
X41599000Y-43208197D01*
X41611314Y-43083179D01*
X41638010Y-42995173D01*
X41659976Y-42922761D01*
X41659977Y-42922759D01*
X41659978Y-42922756D01*
X41738996Y-42774922D01*
X41845342Y-42645341D01*
X41974923Y-42538995D01*
X42122757Y-42459977D01*
X42122760Y-42459976D01*
X42122762Y-42459975D01*
X42283176Y-42411314D01*
X42283177Y-42411314D01*
X42283180Y-42411313D01*
X42450000Y-42394883D01*
X42616821Y-42411313D01*
X42616821Y-42411313D01*
G37*
G36*
X45156821Y-42411313D02*
X45156824Y-42411314D01*
X45156825Y-42411314D01*
X45317239Y-42459975D01*
X45317241Y-42459976D01*
X45317244Y-42459977D01*
X45465078Y-42538995D01*
X45594659Y-42645341D01*
X45701005Y-42774922D01*
X45780023Y-42922756D01*
X45780024Y-42922759D01*
X45780025Y-42922761D01*
X45828686Y-43083175D01*
X45828686Y-43083178D01*
X45828687Y-43083180D01*
X45841000Y-43208197D01*
X45841000Y-44091804D01*
X45828687Y-44216821D01*
X45828686Y-44216824D01*
X45828686Y-44216825D01*
X45794681Y-44328925D01*
X45780023Y-44377244D01*
X45701005Y-44525078D01*
X45594659Y-44654659D01*
X45465078Y-44761005D01*
X45317243Y-44840023D01*
X45317240Y-44840024D01*
X45317238Y-44840025D01*
X45156824Y-44888686D01*
X45156823Y-44888686D01*
X45156820Y-44888687D01*
X44990000Y-44905117D01*
X44823179Y-44888687D01*
X44823176Y-44888686D01*
X44823175Y-44888686D01*
X44662761Y-44840025D01*
X44662759Y-44840024D01*
X44662756Y-44840023D01*
X44514922Y-44761005D01*
X44385341Y-44654659D01*
X44278995Y-44525078D01*
X44199977Y-44377243D01*
X44185320Y-44328925D01*
X44151314Y-44216824D01*
X44151314Y-44216823D01*
X44151313Y-44216820D01*
X44139000Y-44091803D01*
X44139000Y-43208197D01*
X44151314Y-43083179D01*
X44178010Y-42995173D01*
X44199976Y-42922761D01*
X44199977Y-42922759D01*
X44199978Y-42922756D01*
X44278996Y-42774922D01*
X44385342Y-42645341D01*
X44514923Y-42538995D01*
X44662757Y-42459977D01*
X44662760Y-42459976D01*
X44662762Y-42459975D01*
X44823176Y-42411314D01*
X44823177Y-42411314D01*
X44823180Y-42411313D01*
X44990000Y-42394883D01*
X45156821Y-42411313D01*
X45156821Y-42411313D01*
G37*
G36*
X53536877Y-43300465D02*
X53574564Y-43311898D01*
X53609303Y-43330466D01*
X53639748Y-43355452D01*
X53664734Y-43385897D01*
X53683302Y-43420636D01*
X53694735Y-43458323D01*
X53699200Y-43503661D01*
X53699200Y-44340339D01*
X53694735Y-44385677D01*
X53683302Y-44423364D01*
X53664734Y-44458103D01*
X53639748Y-44488548D01*
X53609303Y-44513534D01*
X53574564Y-44532102D01*
X53536877Y-44543535D01*
X53491539Y-44548000D01*
X52404861Y-44548000D01*
X52359523Y-44543535D01*
X52321836Y-44532102D01*
X52287097Y-44513534D01*
X52256652Y-44488548D01*
X52231666Y-44458103D01*
X52213098Y-44423364D01*
X52201665Y-44385677D01*
X52197200Y-44340339D01*
X52197200Y-43503661D01*
X52201665Y-43458323D01*
X52213098Y-43420636D01*
X52231666Y-43385897D01*
X52256652Y-43355452D01*
X52287097Y-43330466D01*
X52321836Y-43311898D01*
X52359523Y-43300465D01*
X52404861Y-43296000D01*
X53491539Y-43296000D01*
X53536877Y-43300465D01*
X53536877Y-43300465D01*
G37*
G36*
X25362177Y-42716365D02*
X25399864Y-42727798D01*
X25434603Y-42746366D01*
X25465048Y-42771352D01*
X25490034Y-42801797D01*
X25508602Y-42836536D01*
X25520035Y-42874223D01*
X25524500Y-42919561D01*
X25524500Y-44006239D01*
X25520035Y-44051577D01*
X25508602Y-44089264D01*
X25490034Y-44124003D01*
X25465048Y-44154448D01*
X25434603Y-44179434D01*
X25399864Y-44198002D01*
X25362177Y-44209435D01*
X25316839Y-44213900D01*
X24480161Y-44213900D01*
X24434823Y-44209435D01*
X24397136Y-44198002D01*
X24362397Y-44179434D01*
X24331952Y-44154448D01*
X24306966Y-44124003D01*
X24288398Y-44089264D01*
X24276965Y-44051577D01*
X24272500Y-44006239D01*
X24272500Y-42919561D01*
X24276965Y-42874223D01*
X24288398Y-42836536D01*
X24306966Y-42801797D01*
X24331952Y-42771352D01*
X24362397Y-42746366D01*
X24397136Y-42727798D01*
X24434823Y-42716365D01*
X24480161Y-42711900D01*
X25316839Y-42711900D01*
X25362177Y-42716365D01*
X25362177Y-42716365D01*
G37*
G36*
X27412177Y-42716365D02*
X27449864Y-42727798D01*
X27484603Y-42746366D01*
X27515048Y-42771352D01*
X27540034Y-42801797D01*
X27558602Y-42836536D01*
X27570035Y-42874223D01*
X27574500Y-42919561D01*
X27574500Y-44006239D01*
X27570035Y-44051577D01*
X27558602Y-44089264D01*
X27540034Y-44124003D01*
X27515048Y-44154448D01*
X27484603Y-44179434D01*
X27449864Y-44198002D01*
X27412177Y-44209435D01*
X27366839Y-44213900D01*
X26530161Y-44213900D01*
X26484823Y-44209435D01*
X26447136Y-44198002D01*
X26412397Y-44179434D01*
X26381952Y-44154448D01*
X26356966Y-44124003D01*
X26338398Y-44089264D01*
X26326965Y-44051577D01*
X26322500Y-44006239D01*
X26322500Y-42919561D01*
X26326965Y-42874223D01*
X26338398Y-42836536D01*
X26356966Y-42801797D01*
X26381952Y-42771352D01*
X26412397Y-42746366D01*
X26447136Y-42727798D01*
X26484823Y-42716365D01*
X26530161Y-42711900D01*
X27366839Y-42711900D01*
X27412177Y-42716365D01*
X27412177Y-42716365D01*
G37*
G36*
X61336877Y-42727465D02*
X61374564Y-42738898D01*
X61409303Y-42757466D01*
X61439748Y-42782452D01*
X61464734Y-42812897D01*
X61483302Y-42847636D01*
X61494735Y-42885323D01*
X61499200Y-42930661D01*
X61499200Y-43767339D01*
X61494735Y-43812677D01*
X61483302Y-43850364D01*
X61464734Y-43885103D01*
X61439748Y-43915548D01*
X61409303Y-43940534D01*
X61374564Y-43959102D01*
X61336877Y-43970535D01*
X61291539Y-43975000D01*
X60204861Y-43975000D01*
X60159523Y-43970535D01*
X60121836Y-43959102D01*
X60087097Y-43940534D01*
X60056652Y-43915548D01*
X60031666Y-43885103D01*
X60013098Y-43850364D01*
X60001665Y-43812677D01*
X59997200Y-43767339D01*
X59997200Y-42930661D01*
X60001665Y-42885323D01*
X60013098Y-42847636D01*
X60031666Y-42812897D01*
X60056652Y-42782452D01*
X60087097Y-42757466D01*
X60121836Y-42738898D01*
X60159523Y-42727465D01*
X60204861Y-42723000D01*
X61291539Y-42723000D01*
X61336877Y-42727465D01*
X61336877Y-42727465D01*
G37*
G36*
X63201177Y-42677065D02*
X63238864Y-42688498D01*
X63273603Y-42707066D01*
X63304048Y-42732052D01*
X63329034Y-42762497D01*
X63347602Y-42797236D01*
X63359035Y-42834923D01*
X63363500Y-42880261D01*
X63363500Y-43716939D01*
X63359035Y-43762277D01*
X63347602Y-43799964D01*
X63329034Y-43834703D01*
X63304048Y-43865148D01*
X63273603Y-43890134D01*
X63238864Y-43908702D01*
X63201177Y-43920135D01*
X63155839Y-43924600D01*
X62069161Y-43924600D01*
X62023823Y-43920135D01*
X61986136Y-43908702D01*
X61951397Y-43890134D01*
X61920952Y-43865148D01*
X61895966Y-43834703D01*
X61877398Y-43799964D01*
X61865965Y-43762277D01*
X61861500Y-43716939D01*
X61861500Y-42880261D01*
X61865965Y-42834923D01*
X61877398Y-42797236D01*
X61895966Y-42762497D01*
X61920952Y-42732052D01*
X61951397Y-42707066D01*
X61986136Y-42688498D01*
X62023823Y-42677065D01*
X62069161Y-42672600D01*
X63155839Y-42672600D01*
X63201177Y-42677065D01*
X63201177Y-42677065D01*
G37*
G36*
X56811915Y-42063066D02*
X56856445Y-42076575D01*
X56897491Y-42098514D01*
X56933464Y-42128036D01*
X56962986Y-42164009D01*
X56984925Y-42205055D01*
X56998434Y-42249585D01*
X57003600Y-42302040D01*
X57003600Y-43015760D01*
X56998434Y-43068215D01*
X56984925Y-43112745D01*
X56962986Y-43153791D01*
X56933464Y-43189764D01*
X56897491Y-43219286D01*
X56856445Y-43241225D01*
X56811915Y-43254734D01*
X56759460Y-43259900D01*
X55345740Y-43259900D01*
X55293285Y-43254734D01*
X55248755Y-43241225D01*
X55207709Y-43219286D01*
X55171736Y-43189764D01*
X55142214Y-43153791D01*
X55120275Y-43112745D01*
X55106766Y-43068215D01*
X55101600Y-43015760D01*
X55101600Y-42302040D01*
X55106766Y-42249585D01*
X55120275Y-42205055D01*
X55142214Y-42164009D01*
X55171736Y-42128036D01*
X55207709Y-42098514D01*
X55248755Y-42076575D01*
X55293285Y-42063066D01*
X55345740Y-42057900D01*
X56759460Y-42057900D01*
X56811915Y-42063066D01*
X56811915Y-42063066D01*
G37*
G36*
X50698677Y-40743465D02*
X50736364Y-40754898D01*
X50771103Y-40773466D01*
X50801548Y-40798452D01*
X50826534Y-40828897D01*
X50845102Y-40863636D01*
X50856535Y-40901323D01*
X50861000Y-40946661D01*
X50861000Y-41783339D01*
X50856535Y-41828677D01*
X50845102Y-41866364D01*
X50826534Y-41901103D01*
X50801548Y-41931548D01*
X50771103Y-41956534D01*
X50736364Y-41975102D01*
X50698677Y-41986535D01*
X50653339Y-41991000D01*
X49566661Y-41991000D01*
X49521323Y-41986535D01*
X49483636Y-41975102D01*
X49448897Y-41956534D01*
X49418452Y-41931548D01*
X49393466Y-41901103D01*
X49374898Y-41866364D01*
X49363465Y-41828677D01*
X49359000Y-41783339D01*
X49359000Y-40946661D01*
X49363465Y-40901323D01*
X49374898Y-40863636D01*
X49393466Y-40828897D01*
X49418452Y-40798452D01*
X49448897Y-40773466D01*
X49483636Y-40754898D01*
X49521323Y-40743465D01*
X49566661Y-40739000D01*
X50653339Y-40739000D01*
X50698677Y-40743465D01*
X50698677Y-40743465D01*
G37*
G36*
X58881915Y-40793066D02*
X58926445Y-40806575D01*
X58967491Y-40828514D01*
X59003464Y-40858036D01*
X59032986Y-40894009D01*
X59054925Y-40935055D01*
X59068434Y-40979585D01*
X59073600Y-41032040D01*
X59073600Y-41745760D01*
X59068434Y-41798215D01*
X59054925Y-41842745D01*
X59032986Y-41883791D01*
X59003464Y-41919764D01*
X58967491Y-41949286D01*
X58926445Y-41971225D01*
X58881915Y-41984734D01*
X58829460Y-41989900D01*
X57415740Y-41989900D01*
X57363285Y-41984734D01*
X57318755Y-41971225D01*
X57277709Y-41949286D01*
X57241736Y-41919764D01*
X57212214Y-41883791D01*
X57190275Y-41842745D01*
X57176766Y-41798215D01*
X57171600Y-41745760D01*
X57171600Y-41032040D01*
X57176766Y-40979585D01*
X57190274Y-40935058D01*
X57206968Y-40903826D01*
X57212214Y-40891161D01*
X57216988Y-40887243D01*
X57225228Y-40878153D01*
X57241739Y-40858033D01*
X57277709Y-40828514D01*
X57318755Y-40806575D01*
X57363285Y-40793066D01*
X57415740Y-40787900D01*
X58829460Y-40787900D01*
X58881915Y-40793066D01*
X58881915Y-40793066D01*
G37*
G36*
X44404377Y-40360965D02*
X44442064Y-40372398D01*
X44476803Y-40390966D01*
X44507248Y-40415952D01*
X44532234Y-40446397D01*
X44550802Y-40481136D01*
X44562235Y-40518823D01*
X44566700Y-40564161D01*
X44566700Y-41400839D01*
X44562235Y-41446177D01*
X44550802Y-41483864D01*
X44532234Y-41518603D01*
X44507248Y-41549048D01*
X44476803Y-41574034D01*
X44442064Y-41592602D01*
X44404377Y-41604035D01*
X44359039Y-41608500D01*
X43272361Y-41608500D01*
X43227023Y-41604035D01*
X43189336Y-41592602D01*
X43154597Y-41574034D01*
X43124152Y-41549048D01*
X43099166Y-41518603D01*
X43080598Y-41483864D01*
X43069165Y-41446177D01*
X43064700Y-41400839D01*
X43064700Y-40564161D01*
X43069165Y-40518823D01*
X43080598Y-40481136D01*
X43099166Y-40446397D01*
X43124152Y-40415952D01*
X43154597Y-40390966D01*
X43189336Y-40372398D01*
X43227023Y-40360965D01*
X43272361Y-40356500D01*
X44359039Y-40356500D01*
X44404377Y-40360965D01*
X44404377Y-40360965D01*
G37*
G36*
X42036977Y-40030865D02*
X42074664Y-40042298D01*
X42109403Y-40060866D01*
X42139848Y-40085852D01*
X42164834Y-40116297D01*
X42183402Y-40151036D01*
X42194835Y-40188723D01*
X42199300Y-40234061D01*
X42199300Y-41320739D01*
X42194835Y-41366077D01*
X42183402Y-41403764D01*
X42164834Y-41438503D01*
X42139848Y-41468948D01*
X42109403Y-41493934D01*
X42074664Y-41512502D01*
X42036977Y-41523935D01*
X41991639Y-41528400D01*
X41154961Y-41528400D01*
X41109623Y-41523935D01*
X41071936Y-41512502D01*
X41037197Y-41493934D01*
X41006752Y-41468948D01*
X40981766Y-41438503D01*
X40963198Y-41403764D01*
X40951765Y-41366077D01*
X40947300Y-41320739D01*
X40947300Y-40234061D01*
X40951765Y-40188723D01*
X40963198Y-40151036D01*
X40981766Y-40116297D01*
X41006752Y-40085852D01*
X41037197Y-40060866D01*
X41071936Y-40042298D01*
X41109623Y-40030865D01*
X41154961Y-40026400D01*
X41991639Y-40026400D01*
X42036977Y-40030865D01*
X42036977Y-40030865D01*
G37*
G36*
X39986977Y-40030865D02*
X40024664Y-40042298D01*
X40059403Y-40060866D01*
X40089848Y-40085852D01*
X40114834Y-40116297D01*
X40133402Y-40151036D01*
X40144835Y-40188723D01*
X40149300Y-40234061D01*
X40149300Y-41320739D01*
X40144835Y-41366077D01*
X40133402Y-41403764D01*
X40114834Y-41438503D01*
X40089848Y-41468948D01*
X40059403Y-41493934D01*
X40024664Y-41512502D01*
X39986977Y-41523935D01*
X39941639Y-41528400D01*
X39104961Y-41528400D01*
X39059623Y-41523935D01*
X39021936Y-41512502D01*
X38987197Y-41493934D01*
X38956752Y-41468948D01*
X38931766Y-41438503D01*
X38913198Y-41403764D01*
X38901765Y-41366077D01*
X38897300Y-41320739D01*
X38897300Y-40234061D01*
X38901765Y-40188723D01*
X38913198Y-40151036D01*
X38931766Y-40116297D01*
X38956752Y-40085852D01*
X38987197Y-40060866D01*
X39021936Y-40042298D01*
X39059623Y-40030865D01*
X39104961Y-40026400D01*
X39941639Y-40026400D01*
X39986977Y-40030865D01*
X39986977Y-40030865D01*
G37*
G36*
X35657677Y-40187265D02*
X35695364Y-40198698D01*
X35730103Y-40217266D01*
X35760548Y-40242252D01*
X35785534Y-40272697D01*
X35804102Y-40307436D01*
X35815535Y-40345123D01*
X35820000Y-40390461D01*
X35820000Y-41227139D01*
X35815535Y-41272477D01*
X35804102Y-41310164D01*
X35785534Y-41344903D01*
X35760548Y-41375348D01*
X35730103Y-41400334D01*
X35695364Y-41418902D01*
X35657677Y-41430335D01*
X35612339Y-41434800D01*
X34525661Y-41434800D01*
X34480323Y-41430335D01*
X34442636Y-41418902D01*
X34407897Y-41400334D01*
X34377452Y-41375348D01*
X34352466Y-41344903D01*
X34333898Y-41310164D01*
X34322465Y-41272477D01*
X34318000Y-41227139D01*
X34318000Y-40390461D01*
X34322465Y-40345123D01*
X34333898Y-40307436D01*
X34352466Y-40272697D01*
X34377452Y-40242252D01*
X34407897Y-40217266D01*
X34442636Y-40198698D01*
X34480323Y-40187265D01*
X34525661Y-40182800D01*
X35612339Y-40182800D01*
X35657677Y-40187265D01*
X35657677Y-40187265D01*
G37*
G36*
X37981477Y-40147365D02*
X38019164Y-40158798D01*
X38053903Y-40177366D01*
X38084348Y-40202352D01*
X38109334Y-40232797D01*
X38127902Y-40267536D01*
X38139335Y-40305223D01*
X38143800Y-40350561D01*
X38143800Y-41187239D01*
X38139335Y-41232577D01*
X38127902Y-41270264D01*
X38109334Y-41305003D01*
X38084348Y-41335448D01*
X38053903Y-41360434D01*
X38019164Y-41379002D01*
X37981477Y-41390435D01*
X37936139Y-41394900D01*
X36849461Y-41394900D01*
X36804123Y-41390435D01*
X36766436Y-41379002D01*
X36731697Y-41360434D01*
X36701252Y-41335448D01*
X36676266Y-41305003D01*
X36657698Y-41270264D01*
X36646265Y-41232577D01*
X36641800Y-41187239D01*
X36641800Y-40350561D01*
X36646265Y-40305223D01*
X36657698Y-40267536D01*
X36676266Y-40232797D01*
X36701252Y-40202352D01*
X36731697Y-40177366D01*
X36766436Y-40158798D01*
X36804123Y-40147365D01*
X36849461Y-40142900D01*
X37936139Y-40142900D01*
X37981477Y-40147365D01*
X37981477Y-40147365D01*
G37*
G36*
X32992377Y-40027465D02*
X33030064Y-40038898D01*
X33064803Y-40057466D01*
X33095248Y-40082452D01*
X33120234Y-40112897D01*
X33138802Y-40147636D01*
X33150235Y-40185323D01*
X33154700Y-40230661D01*
X33154700Y-41067339D01*
X33150235Y-41112677D01*
X33138802Y-41150364D01*
X33120234Y-41185103D01*
X33095248Y-41215548D01*
X33064803Y-41240534D01*
X33030064Y-41259102D01*
X32992377Y-41270535D01*
X32947039Y-41275000D01*
X31860361Y-41275000D01*
X31815023Y-41270535D01*
X31777336Y-41259102D01*
X31742597Y-41240534D01*
X31712152Y-41215548D01*
X31687166Y-41185103D01*
X31668598Y-41150364D01*
X31657165Y-41112677D01*
X31652700Y-41067339D01*
X31652700Y-40230661D01*
X31657165Y-40185323D01*
X31668598Y-40147636D01*
X31687166Y-40112897D01*
X31712152Y-40082452D01*
X31742597Y-40057466D01*
X31777336Y-40038898D01*
X31815023Y-40027465D01*
X31860361Y-40023000D01*
X32947039Y-40023000D01*
X32992377Y-40027465D01*
X32992377Y-40027465D01*
G37*
G36*
X27376477Y-39750265D02*
X27414164Y-39761698D01*
X27448903Y-39780266D01*
X27479348Y-39805252D01*
X27504334Y-39835697D01*
X27522902Y-39870436D01*
X27534335Y-39908123D01*
X27538800Y-39953461D01*
X27538800Y-40790139D01*
X27534335Y-40835477D01*
X27522902Y-40873164D01*
X27504334Y-40907903D01*
X27479348Y-40938348D01*
X27448903Y-40963334D01*
X27414164Y-40981902D01*
X27376477Y-40993335D01*
X27331139Y-40997800D01*
X26244461Y-40997800D01*
X26199123Y-40993335D01*
X26161436Y-40981902D01*
X26126697Y-40963334D01*
X26096252Y-40938348D01*
X26071266Y-40907903D01*
X26052698Y-40873164D01*
X26041265Y-40835477D01*
X26036800Y-40790139D01*
X26036800Y-39953461D01*
X26041265Y-39908123D01*
X26052698Y-39870436D01*
X26071266Y-39835697D01*
X26096252Y-39805252D01*
X26126697Y-39780266D01*
X26161436Y-39761698D01*
X26199123Y-39750265D01*
X26244461Y-39745800D01*
X27331139Y-39745800D01*
X27376477Y-39750265D01*
X27376477Y-39750265D01*
G37*
G36*
X63075600Y-40887000D02*
X61273600Y-40887000D01*
X61273600Y-39085000D01*
X63075600Y-39085000D01*
X63075600Y-40887000D01*
X63075600Y-40887000D01*
G37*
G36*
X57003600Y-40719900D02*
X55101600Y-40719900D01*
X55101600Y-39517900D01*
X57003600Y-39517900D01*
X57003600Y-40719900D01*
X57003600Y-40719900D01*
G37*
G36*
X48468677Y-39223465D02*
X48506364Y-39234898D01*
X48541103Y-39253466D01*
X48571548Y-39278452D01*
X48596534Y-39308897D01*
X48615102Y-39343636D01*
X48626535Y-39381323D01*
X48631000Y-39426661D01*
X48631000Y-40263339D01*
X48626535Y-40308677D01*
X48615102Y-40346364D01*
X48596534Y-40381103D01*
X48571548Y-40411548D01*
X48541103Y-40436534D01*
X48506364Y-40455102D01*
X48468677Y-40466535D01*
X48423339Y-40471000D01*
X47336661Y-40471000D01*
X47291323Y-40466535D01*
X47253636Y-40455102D01*
X47218897Y-40436534D01*
X47188452Y-40411548D01*
X47163466Y-40381103D01*
X47144898Y-40346364D01*
X47133465Y-40308677D01*
X47129000Y-40263339D01*
X47129000Y-39426661D01*
X47133465Y-39381323D01*
X47144898Y-39343636D01*
X47163466Y-39308897D01*
X47188452Y-39278452D01*
X47218897Y-39253466D01*
X47253636Y-39234898D01*
X47291323Y-39223465D01*
X47336661Y-39219000D01*
X48423339Y-39219000D01*
X48468677Y-39223465D01*
X48468677Y-39223465D01*
G37*
G36*
X50698677Y-38693465D02*
X50736364Y-38704898D01*
X50771103Y-38723466D01*
X50801548Y-38748452D01*
X50826534Y-38778897D01*
X50845102Y-38813636D01*
X50856535Y-38851323D01*
X50861000Y-38896661D01*
X50861000Y-39733339D01*
X50856535Y-39778677D01*
X50845102Y-39816364D01*
X50826534Y-39851103D01*
X50801548Y-39881548D01*
X50771103Y-39906534D01*
X50736364Y-39925102D01*
X50698677Y-39936535D01*
X50653339Y-39941000D01*
X49566661Y-39941000D01*
X49521323Y-39936535D01*
X49483636Y-39925102D01*
X49448897Y-39906534D01*
X49418452Y-39881548D01*
X49393466Y-39851103D01*
X49374898Y-39816364D01*
X49363465Y-39778677D01*
X49359000Y-39733339D01*
X49359000Y-38896661D01*
X49363465Y-38851323D01*
X49374898Y-38813636D01*
X49393466Y-38778897D01*
X49418452Y-38748452D01*
X49448897Y-38723466D01*
X49483636Y-38704898D01*
X49521323Y-38693465D01*
X49566661Y-38689000D01*
X50653339Y-38689000D01*
X50698677Y-38693465D01*
X50698677Y-38693465D01*
G37*
G36*
X22891837Y-38098130D02*
X22994893Y-38118629D01*
X23135206Y-38176748D01*
X23261484Y-38261125D01*
X23368875Y-38368516D01*
X23453252Y-38494794D01*
X23511371Y-38635107D01*
X23511371Y-38635109D01*
X23541000Y-38784062D01*
X23541000Y-38935938D01*
X23535980Y-38961173D01*
X23511371Y-39084893D01*
X23453252Y-39225206D01*
X23368875Y-39351484D01*
X23261484Y-39458875D01*
X23135206Y-39543252D01*
X22994893Y-39601371D01*
X22895589Y-39621124D01*
X22845938Y-39631000D01*
X22694062Y-39631000D01*
X22644411Y-39621124D01*
X22545107Y-39601371D01*
X22404794Y-39543252D01*
X22278516Y-39458875D01*
X22171125Y-39351484D01*
X22086748Y-39225206D01*
X22028629Y-39084893D01*
X22004020Y-38961173D01*
X21999000Y-38935938D01*
X21999000Y-38784062D01*
X22028629Y-38635109D01*
X22028629Y-38635107D01*
X22086748Y-38494794D01*
X22171125Y-38368516D01*
X22278516Y-38261125D01*
X22404794Y-38176748D01*
X22545107Y-38118629D01*
X22648163Y-38098130D01*
X22694062Y-38089000D01*
X22845938Y-38089000D01*
X22891837Y-38098130D01*
X22891837Y-38098130D01*
G37*
G36*
X44404377Y-38310965D02*
X44442064Y-38322398D01*
X44476803Y-38340966D01*
X44507248Y-38365952D01*
X44532234Y-38396397D01*
X44550802Y-38431136D01*
X44562235Y-38468823D01*
X44566700Y-38514161D01*
X44566700Y-39350839D01*
X44562235Y-39396177D01*
X44550802Y-39433864D01*
X44532234Y-39468603D01*
X44507248Y-39499048D01*
X44476803Y-39524034D01*
X44442064Y-39542602D01*
X44404377Y-39554035D01*
X44359039Y-39558500D01*
X43272361Y-39558500D01*
X43227023Y-39554035D01*
X43189336Y-39542602D01*
X43154597Y-39524034D01*
X43124152Y-39499048D01*
X43099166Y-39468603D01*
X43080598Y-39433864D01*
X43069165Y-39396177D01*
X43064700Y-39350839D01*
X43064700Y-38514161D01*
X43069165Y-38468823D01*
X43080598Y-38431136D01*
X43099166Y-38396397D01*
X43124152Y-38365952D01*
X43154597Y-38340966D01*
X43189336Y-38322398D01*
X43227023Y-38310965D01*
X43272361Y-38306500D01*
X44359039Y-38306500D01*
X44404377Y-38310965D01*
X44404377Y-38310965D01*
G37*
G36*
X35657677Y-38137265D02*
X35695364Y-38148698D01*
X35730103Y-38167266D01*
X35760548Y-38192252D01*
X35785534Y-38222697D01*
X35804102Y-38257436D01*
X35815535Y-38295123D01*
X35820000Y-38340461D01*
X35820000Y-39177139D01*
X35815535Y-39222477D01*
X35804102Y-39260164D01*
X35785534Y-39294903D01*
X35760548Y-39325348D01*
X35730103Y-39350334D01*
X35695364Y-39368902D01*
X35657677Y-39380335D01*
X35612339Y-39384800D01*
X34525661Y-39384800D01*
X34480323Y-39380335D01*
X34442636Y-39368902D01*
X34407897Y-39350334D01*
X34377452Y-39325348D01*
X34352466Y-39294903D01*
X34333898Y-39260164D01*
X34322465Y-39222477D01*
X34318000Y-39177139D01*
X34318000Y-38340461D01*
X34322465Y-38295123D01*
X34333898Y-38257436D01*
X34352466Y-38222697D01*
X34377452Y-38192252D01*
X34407897Y-38167266D01*
X34442636Y-38148698D01*
X34480323Y-38137265D01*
X34525661Y-38132800D01*
X35612339Y-38132800D01*
X35657677Y-38137265D01*
X35657677Y-38137265D01*
G37*
G36*
X37981477Y-38097365D02*
X38019164Y-38108798D01*
X38053903Y-38127366D01*
X38084348Y-38152352D01*
X38109334Y-38182797D01*
X38127902Y-38217536D01*
X38139335Y-38255223D01*
X38143800Y-38300561D01*
X38143800Y-39137239D01*
X38139335Y-39182577D01*
X38127902Y-39220264D01*
X38109334Y-39255003D01*
X38084348Y-39285448D01*
X38053903Y-39310434D01*
X38019164Y-39329002D01*
X37981477Y-39340435D01*
X37936139Y-39344900D01*
X36849461Y-39344900D01*
X36804123Y-39340435D01*
X36766436Y-39329002D01*
X36731697Y-39310434D01*
X36701252Y-39285448D01*
X36676266Y-39255003D01*
X36657698Y-39220264D01*
X36646265Y-39182577D01*
X36641800Y-39137239D01*
X36641800Y-38300561D01*
X36646265Y-38255223D01*
X36657698Y-38217536D01*
X36676266Y-38182797D01*
X36701252Y-38152352D01*
X36731697Y-38127366D01*
X36766436Y-38108798D01*
X36804123Y-38097365D01*
X36849461Y-38092900D01*
X37936139Y-38092900D01*
X37981477Y-38097365D01*
X37981477Y-38097365D01*
G37*
G36*
X32992377Y-37977465D02*
X33030064Y-37988898D01*
X33064803Y-38007466D01*
X33095248Y-38032452D01*
X33120234Y-38062897D01*
X33138802Y-38097636D01*
X33150235Y-38135323D01*
X33154700Y-38180661D01*
X33154700Y-39017339D01*
X33150235Y-39062677D01*
X33138802Y-39100364D01*
X33120234Y-39135103D01*
X33095248Y-39165548D01*
X33064803Y-39190534D01*
X33030064Y-39209102D01*
X32992377Y-39220535D01*
X32947039Y-39225000D01*
X31860361Y-39225000D01*
X31815023Y-39220535D01*
X31777336Y-39209102D01*
X31742597Y-39190534D01*
X31712152Y-39165548D01*
X31687166Y-39135103D01*
X31668598Y-39100364D01*
X31657165Y-39062677D01*
X31652700Y-39017339D01*
X31652700Y-38180661D01*
X31657165Y-38135323D01*
X31668598Y-38097636D01*
X31687166Y-38062897D01*
X31712152Y-38032452D01*
X31742597Y-38007466D01*
X31777336Y-37988898D01*
X31815023Y-37977465D01*
X31860361Y-37973000D01*
X32947039Y-37973000D01*
X32992377Y-37977465D01*
X32992377Y-37977465D01*
G37*
G36*
X27376477Y-37700265D02*
X27414164Y-37711698D01*
X27448903Y-37730266D01*
X27479348Y-37755252D01*
X27504334Y-37785697D01*
X27522902Y-37820436D01*
X27534335Y-37858123D01*
X27538800Y-37903461D01*
X27538800Y-38740139D01*
X27534335Y-38785477D01*
X27522902Y-38823164D01*
X27504334Y-38857903D01*
X27479348Y-38888348D01*
X27448903Y-38913334D01*
X27414164Y-38931902D01*
X27376477Y-38943335D01*
X27331139Y-38947800D01*
X26244461Y-38947800D01*
X26199123Y-38943335D01*
X26161436Y-38931902D01*
X26126697Y-38913334D01*
X26096252Y-38888348D01*
X26071266Y-38857903D01*
X26052698Y-38823164D01*
X26041265Y-38785477D01*
X26036800Y-38740139D01*
X26036800Y-37903461D01*
X26041265Y-37858123D01*
X26052698Y-37820436D01*
X26071266Y-37785697D01*
X26096252Y-37755252D01*
X26126697Y-37730266D01*
X26161436Y-37711698D01*
X26199123Y-37700265D01*
X26244461Y-37695800D01*
X27331139Y-37695800D01*
X27376477Y-37700265D01*
X27376477Y-37700265D01*
G37*
G36*
X48468677Y-37173465D02*
X48506364Y-37184898D01*
X48541103Y-37203466D01*
X48571548Y-37228452D01*
X48596534Y-37258897D01*
X48615102Y-37293636D01*
X48626535Y-37331323D01*
X48631000Y-37376661D01*
X48631000Y-38213339D01*
X48626535Y-38258677D01*
X48615102Y-38296364D01*
X48596534Y-38331103D01*
X48571548Y-38361548D01*
X48541103Y-38386534D01*
X48506364Y-38405102D01*
X48468677Y-38416535D01*
X48423339Y-38421000D01*
X47336661Y-38421000D01*
X47291323Y-38416535D01*
X47253636Y-38405102D01*
X47218897Y-38386534D01*
X47188452Y-38361548D01*
X47163466Y-38331103D01*
X47144898Y-38296364D01*
X47133465Y-38258677D01*
X47129000Y-38213339D01*
X47129000Y-37376661D01*
X47133465Y-37331323D01*
X47144898Y-37293636D01*
X47163466Y-37258897D01*
X47188452Y-37228452D01*
X47218897Y-37203466D01*
X47253636Y-37184898D01*
X47291323Y-37173465D01*
X47336661Y-37169000D01*
X48423339Y-37169000D01*
X48468677Y-37173465D01*
X48468677Y-37173465D01*
G37*
G36*
X62285042Y-36551518D02*
X62351227Y-36558037D01*
X62454541Y-36589377D01*
X62521067Y-36609557D01*
X62560693Y-36630738D01*
X62677591Y-36693222D01*
X62713329Y-36722552D01*
X62814786Y-36805814D01*
X62896248Y-36905077D01*
X62927378Y-36943009D01*
X62927379Y-36943011D01*
X63011043Y-37099533D01*
X63011043Y-37099534D01*
X63062563Y-37269373D01*
X63079959Y-37446000D01*
X63062563Y-37622627D01*
X63029911Y-37730266D01*
X63011043Y-37792467D01*
X62945614Y-37914875D01*
X62927378Y-37948991D01*
X62907674Y-37973000D01*
X62814786Y-38086186D01*
X62715988Y-38167266D01*
X62677591Y-38198778D01*
X62677589Y-38198779D01*
X62521067Y-38282443D01*
X62479266Y-38295123D01*
X62351227Y-38333963D01*
X62285251Y-38340461D01*
X62218860Y-38347000D01*
X62130340Y-38347000D01*
X62063949Y-38340461D01*
X61997973Y-38333963D01*
X61869934Y-38295123D01*
X61828133Y-38282443D01*
X61671611Y-38198779D01*
X61671609Y-38198778D01*
X61633212Y-38167266D01*
X61534414Y-38086186D01*
X61441526Y-37973000D01*
X61421822Y-37948991D01*
X61403586Y-37914875D01*
X61338157Y-37792467D01*
X61319289Y-37730266D01*
X61286637Y-37622627D01*
X61269241Y-37446000D01*
X61286637Y-37269373D01*
X61338157Y-37099534D01*
X61338157Y-37099533D01*
X61421821Y-36943011D01*
X61421822Y-36943009D01*
X61452952Y-36905077D01*
X61534414Y-36805814D01*
X61635871Y-36722552D01*
X61671609Y-36693222D01*
X61788507Y-36630738D01*
X61828133Y-36609557D01*
X61894659Y-36589377D01*
X61997973Y-36558037D01*
X62064158Y-36551518D01*
X62130340Y-36545000D01*
X62218860Y-36545000D01*
X62285042Y-36551518D01*
X62285042Y-36551518D01*
G37*
G36*
X56168677Y-36326365D02*
X56206364Y-36337798D01*
X56241103Y-36356366D01*
X56271548Y-36381352D01*
X56296534Y-36411797D01*
X56315102Y-36446536D01*
X56326535Y-36484223D01*
X56331000Y-36529561D01*
X56331000Y-37366239D01*
X56326535Y-37411577D01*
X56315102Y-37449264D01*
X56296534Y-37484003D01*
X56271548Y-37514448D01*
X56241103Y-37539434D01*
X56206364Y-37558002D01*
X56168677Y-37569435D01*
X56123339Y-37573900D01*
X55036661Y-37573900D01*
X54991323Y-37569435D01*
X54953636Y-37558002D01*
X54918897Y-37539434D01*
X54888452Y-37514448D01*
X54863466Y-37484003D01*
X54844898Y-37449264D01*
X54833465Y-37411577D01*
X54829000Y-37366239D01*
X54829000Y-36529561D01*
X54833465Y-36484223D01*
X54844898Y-36446536D01*
X54863466Y-36411797D01*
X54888452Y-36381352D01*
X54918897Y-36356366D01*
X54953636Y-36337798D01*
X54991323Y-36326365D01*
X55036661Y-36321900D01*
X56123339Y-36321900D01*
X56168677Y-36326365D01*
X56168677Y-36326365D01*
G37*
G36*
X40076821Y-34791313D02*
X40076824Y-34791314D01*
X40076825Y-34791314D01*
X40237239Y-34839975D01*
X40237241Y-34839976D01*
X40237244Y-34839977D01*
X40385078Y-34918995D01*
X40514659Y-35025341D01*
X40621005Y-35154922D01*
X40700023Y-35302756D01*
X40700024Y-35302759D01*
X40700025Y-35302761D01*
X40748686Y-35463175D01*
X40748686Y-35463178D01*
X40748687Y-35463180D01*
X40761000Y-35588197D01*
X40761000Y-36471804D01*
X40748687Y-36596821D01*
X40748686Y-36596824D01*
X40748686Y-36596825D01*
X40703060Y-36747235D01*
X40700023Y-36757244D01*
X40621005Y-36905078D01*
X40514659Y-37034659D01*
X40385078Y-37141005D01*
X40237243Y-37220023D01*
X40237240Y-37220024D01*
X40237238Y-37220025D01*
X40076824Y-37268686D01*
X40076823Y-37268686D01*
X40076820Y-37268687D01*
X39910000Y-37285117D01*
X39743179Y-37268687D01*
X39743176Y-37268686D01*
X39743175Y-37268686D01*
X39582761Y-37220025D01*
X39582759Y-37220024D01*
X39582756Y-37220023D01*
X39434922Y-37141005D01*
X39305341Y-37034659D01*
X39198995Y-36905078D01*
X39119977Y-36757243D01*
X39118296Y-36751700D01*
X39071314Y-36596824D01*
X39071314Y-36596823D01*
X39071313Y-36596820D01*
X39059000Y-36471803D01*
X39059000Y-35588197D01*
X39071314Y-35463179D01*
X39071315Y-35463175D01*
X39119976Y-35302761D01*
X39119977Y-35302759D01*
X39119978Y-35302756D01*
X39198996Y-35154922D01*
X39305342Y-35025341D01*
X39434923Y-34918995D01*
X39582757Y-34839977D01*
X39582760Y-34839976D01*
X39582762Y-34839975D01*
X39743176Y-34791314D01*
X39743177Y-34791314D01*
X39743180Y-34791313D01*
X39910000Y-34774883D01*
X40076821Y-34791313D01*
X40076821Y-34791313D01*
G37*
G36*
X29916821Y-34791313D02*
X29916824Y-34791314D01*
X29916825Y-34791314D01*
X30077239Y-34839975D01*
X30077241Y-34839976D01*
X30077244Y-34839977D01*
X30225078Y-34918995D01*
X30354659Y-35025341D01*
X30461005Y-35154922D01*
X30540023Y-35302756D01*
X30540024Y-35302759D01*
X30540025Y-35302761D01*
X30588686Y-35463175D01*
X30588686Y-35463178D01*
X30588687Y-35463180D01*
X30601000Y-35588197D01*
X30601000Y-36471804D01*
X30588687Y-36596821D01*
X30588686Y-36596824D01*
X30588686Y-36596825D01*
X30543060Y-36747235D01*
X30540023Y-36757244D01*
X30461005Y-36905078D01*
X30354659Y-37034659D01*
X30225078Y-37141005D01*
X30077243Y-37220023D01*
X30077240Y-37220024D01*
X30077238Y-37220025D01*
X29916824Y-37268686D01*
X29916823Y-37268686D01*
X29916820Y-37268687D01*
X29750000Y-37285117D01*
X29583179Y-37268687D01*
X29583176Y-37268686D01*
X29583175Y-37268686D01*
X29422761Y-37220025D01*
X29422759Y-37220024D01*
X29422756Y-37220023D01*
X29274922Y-37141005D01*
X29145341Y-37034659D01*
X29038995Y-36905078D01*
X28959977Y-36757243D01*
X28958296Y-36751700D01*
X28911314Y-36596824D01*
X28911314Y-36596823D01*
X28911313Y-36596820D01*
X28899000Y-36471803D01*
X28899000Y-35588197D01*
X28911314Y-35463179D01*
X28911315Y-35463175D01*
X28959976Y-35302761D01*
X28959977Y-35302759D01*
X28959978Y-35302756D01*
X29038996Y-35154922D01*
X29145342Y-35025341D01*
X29274923Y-34918995D01*
X29422757Y-34839977D01*
X29422760Y-34839976D01*
X29422762Y-34839975D01*
X29583176Y-34791314D01*
X29583177Y-34791314D01*
X29583180Y-34791313D01*
X29750000Y-34774883D01*
X29916821Y-34791313D01*
X29916821Y-34791313D01*
G37*
G36*
X32456821Y-34791313D02*
X32456824Y-34791314D01*
X32456825Y-34791314D01*
X32617239Y-34839975D01*
X32617241Y-34839976D01*
X32617244Y-34839977D01*
X32765078Y-34918995D01*
X32894659Y-35025341D01*
X33001005Y-35154922D01*
X33080023Y-35302756D01*
X33080024Y-35302759D01*
X33080025Y-35302761D01*
X33128686Y-35463175D01*
X33128686Y-35463178D01*
X33128687Y-35463180D01*
X33141000Y-35588197D01*
X33141000Y-36471804D01*
X33128687Y-36596821D01*
X33128686Y-36596824D01*
X33128686Y-36596825D01*
X33083060Y-36747235D01*
X33080023Y-36757244D01*
X33001005Y-36905078D01*
X32894659Y-37034659D01*
X32765078Y-37141005D01*
X32617243Y-37220023D01*
X32617240Y-37220024D01*
X32617238Y-37220025D01*
X32456824Y-37268686D01*
X32456823Y-37268686D01*
X32456820Y-37268687D01*
X32290000Y-37285117D01*
X32123179Y-37268687D01*
X32123176Y-37268686D01*
X32123175Y-37268686D01*
X31962761Y-37220025D01*
X31962759Y-37220024D01*
X31962756Y-37220023D01*
X31814922Y-37141005D01*
X31685341Y-37034659D01*
X31578995Y-36905078D01*
X31499977Y-36757243D01*
X31498296Y-36751700D01*
X31451314Y-36596824D01*
X31451314Y-36596823D01*
X31451313Y-36596820D01*
X31439000Y-36471803D01*
X31439000Y-35588197D01*
X31451314Y-35463179D01*
X31451315Y-35463175D01*
X31499976Y-35302761D01*
X31499977Y-35302759D01*
X31499978Y-35302756D01*
X31578996Y-35154922D01*
X31685342Y-35025341D01*
X31814923Y-34918995D01*
X31962757Y-34839977D01*
X31962760Y-34839976D01*
X31962762Y-34839975D01*
X32123176Y-34791314D01*
X32123177Y-34791314D01*
X32123180Y-34791313D01*
X32290000Y-34774883D01*
X32456821Y-34791313D01*
X32456821Y-34791313D01*
G37*
G36*
X34996821Y-34791313D02*
X34996824Y-34791314D01*
X34996825Y-34791314D01*
X35157239Y-34839975D01*
X35157241Y-34839976D01*
X35157244Y-34839977D01*
X35305078Y-34918995D01*
X35434659Y-35025341D01*
X35541005Y-35154922D01*
X35620023Y-35302756D01*
X35620024Y-35302759D01*
X35620025Y-35302761D01*
X35668686Y-35463175D01*
X35668686Y-35463178D01*
X35668687Y-35463180D01*
X35681000Y-35588197D01*
X35681000Y-36471804D01*
X35668687Y-36596821D01*
X35668686Y-36596824D01*
X35668686Y-36596825D01*
X35623060Y-36747235D01*
X35620023Y-36757244D01*
X35541005Y-36905078D01*
X35434659Y-37034659D01*
X35305078Y-37141005D01*
X35157243Y-37220023D01*
X35157240Y-37220024D01*
X35157238Y-37220025D01*
X34996824Y-37268686D01*
X34996823Y-37268686D01*
X34996820Y-37268687D01*
X34830000Y-37285117D01*
X34663179Y-37268687D01*
X34663176Y-37268686D01*
X34663175Y-37268686D01*
X34502761Y-37220025D01*
X34502759Y-37220024D01*
X34502756Y-37220023D01*
X34354922Y-37141005D01*
X34225341Y-37034659D01*
X34118995Y-36905078D01*
X34039977Y-36757243D01*
X34038296Y-36751700D01*
X33991314Y-36596824D01*
X33991314Y-36596823D01*
X33991313Y-36596820D01*
X33979000Y-36471803D01*
X33979000Y-35588197D01*
X33991314Y-35463179D01*
X33991315Y-35463175D01*
X34039976Y-35302761D01*
X34039977Y-35302759D01*
X34039978Y-35302756D01*
X34118996Y-35154922D01*
X34225342Y-35025341D01*
X34354923Y-34918995D01*
X34502757Y-34839977D01*
X34502760Y-34839976D01*
X34502762Y-34839975D01*
X34663176Y-34791314D01*
X34663177Y-34791314D01*
X34663180Y-34791313D01*
X34830000Y-34774883D01*
X34996821Y-34791313D01*
X34996821Y-34791313D01*
G37*
G36*
X37536821Y-34791313D02*
X37536824Y-34791314D01*
X37536825Y-34791314D01*
X37697239Y-34839975D01*
X37697241Y-34839976D01*
X37697244Y-34839977D01*
X37845078Y-34918995D01*
X37974659Y-35025341D01*
X38081005Y-35154922D01*
X38160023Y-35302756D01*
X38160024Y-35302759D01*
X38160025Y-35302761D01*
X38208686Y-35463175D01*
X38208686Y-35463178D01*
X38208687Y-35463180D01*
X38221000Y-35588197D01*
X38221000Y-36471804D01*
X38208687Y-36596821D01*
X38208686Y-36596824D01*
X38208686Y-36596825D01*
X38163060Y-36747235D01*
X38160023Y-36757244D01*
X38081005Y-36905078D01*
X37974659Y-37034659D01*
X37845078Y-37141005D01*
X37697243Y-37220023D01*
X37697240Y-37220024D01*
X37697238Y-37220025D01*
X37536824Y-37268686D01*
X37536823Y-37268686D01*
X37536820Y-37268687D01*
X37370000Y-37285117D01*
X37203179Y-37268687D01*
X37203176Y-37268686D01*
X37203175Y-37268686D01*
X37042761Y-37220025D01*
X37042759Y-37220024D01*
X37042756Y-37220023D01*
X36894922Y-37141005D01*
X36765341Y-37034659D01*
X36658995Y-36905078D01*
X36579977Y-36757243D01*
X36578296Y-36751700D01*
X36531314Y-36596824D01*
X36531314Y-36596823D01*
X36531313Y-36596820D01*
X36519000Y-36471803D01*
X36519000Y-35588197D01*
X36531314Y-35463179D01*
X36531315Y-35463175D01*
X36579976Y-35302761D01*
X36579977Y-35302759D01*
X36579978Y-35302756D01*
X36658996Y-35154922D01*
X36765342Y-35025341D01*
X36894923Y-34918995D01*
X37042757Y-34839977D01*
X37042760Y-34839976D01*
X37042762Y-34839975D01*
X37203176Y-34791314D01*
X37203177Y-34791314D01*
X37203180Y-34791313D01*
X37370000Y-34774883D01*
X37536821Y-34791313D01*
X37536821Y-34791313D01*
G37*
G36*
X42616821Y-34791313D02*
X42616824Y-34791314D01*
X42616825Y-34791314D01*
X42777239Y-34839975D01*
X42777241Y-34839976D01*
X42777244Y-34839977D01*
X42925078Y-34918995D01*
X43054659Y-35025341D01*
X43161005Y-35154922D01*
X43240023Y-35302756D01*
X43240024Y-35302759D01*
X43240025Y-35302761D01*
X43288686Y-35463175D01*
X43288686Y-35463178D01*
X43288687Y-35463180D01*
X43301000Y-35588197D01*
X43301000Y-36471804D01*
X43288687Y-36596821D01*
X43288686Y-36596824D01*
X43288686Y-36596825D01*
X43243060Y-36747235D01*
X43240023Y-36757244D01*
X43161005Y-36905078D01*
X43054659Y-37034659D01*
X42925078Y-37141005D01*
X42777243Y-37220023D01*
X42777240Y-37220024D01*
X42777238Y-37220025D01*
X42616824Y-37268686D01*
X42616823Y-37268686D01*
X42616820Y-37268687D01*
X42450000Y-37285117D01*
X42283179Y-37268687D01*
X42283176Y-37268686D01*
X42283175Y-37268686D01*
X42122761Y-37220025D01*
X42122759Y-37220024D01*
X42122756Y-37220023D01*
X41974922Y-37141005D01*
X41845341Y-37034659D01*
X41738995Y-36905078D01*
X41659977Y-36757243D01*
X41658296Y-36751700D01*
X41611314Y-36596824D01*
X41611314Y-36596823D01*
X41611313Y-36596820D01*
X41599000Y-36471803D01*
X41599000Y-35588197D01*
X41611314Y-35463179D01*
X41611315Y-35463175D01*
X41659976Y-35302761D01*
X41659977Y-35302759D01*
X41659978Y-35302756D01*
X41738996Y-35154922D01*
X41845342Y-35025341D01*
X41974923Y-34918995D01*
X42122757Y-34839977D01*
X42122760Y-34839976D01*
X42122762Y-34839975D01*
X42283176Y-34791314D01*
X42283177Y-34791314D01*
X42283180Y-34791313D01*
X42450000Y-34774883D01*
X42616821Y-34791313D01*
X42616821Y-34791313D01*
G37*
G36*
X45841000Y-37281000D02*
X44139000Y-37281000D01*
X44139000Y-34779000D01*
X45841000Y-34779000D01*
X45841000Y-37281000D01*
X45841000Y-37281000D01*
G37*
G36*
X22895589Y-35558876D02*
X22994893Y-35578629D01*
X23135206Y-35636748D01*
X23261484Y-35721125D01*
X23368875Y-35828516D01*
X23453252Y-35954794D01*
X23511371Y-36095107D01*
X23541000Y-36244063D01*
X23541000Y-36395937D01*
X23511371Y-36544893D01*
X23453252Y-36685206D01*
X23368875Y-36811484D01*
X23261484Y-36918875D01*
X23135206Y-37003252D01*
X22994893Y-37061371D01*
X22895589Y-37081124D01*
X22845938Y-37091000D01*
X22694062Y-37091000D01*
X22644411Y-37081124D01*
X22545107Y-37061371D01*
X22404794Y-37003252D01*
X22278516Y-36918875D01*
X22171125Y-36811484D01*
X22086748Y-36685206D01*
X22028629Y-36544893D01*
X21999000Y-36395937D01*
X21999000Y-36244063D01*
X22028629Y-36095107D01*
X22086748Y-35954794D01*
X22171125Y-35828516D01*
X22278516Y-35721125D01*
X22404794Y-35636748D01*
X22545107Y-35578629D01*
X22644411Y-35558876D01*
X22694062Y-35549000D01*
X22845938Y-35549000D01*
X22895589Y-35558876D01*
X22895589Y-35558876D01*
G37*
G36*
X27197677Y-35504165D02*
X27235364Y-35515598D01*
X27270103Y-35534166D01*
X27300548Y-35559152D01*
X27325534Y-35589597D01*
X27344102Y-35624336D01*
X27355535Y-35662023D01*
X27360000Y-35707361D01*
X27360000Y-36544039D01*
X27355535Y-36589377D01*
X27344102Y-36627064D01*
X27325534Y-36661803D01*
X27300548Y-36692248D01*
X27270103Y-36717234D01*
X27235364Y-36735802D01*
X27197677Y-36747235D01*
X27152339Y-36751700D01*
X26065661Y-36751700D01*
X26020323Y-36747235D01*
X25982636Y-36735802D01*
X25947897Y-36717234D01*
X25917452Y-36692248D01*
X25892466Y-36661803D01*
X25873898Y-36627064D01*
X25862465Y-36589377D01*
X25858000Y-36544039D01*
X25858000Y-35707361D01*
X25862465Y-35662023D01*
X25873898Y-35624336D01*
X25892466Y-35589597D01*
X25917452Y-35559152D01*
X25947897Y-35534166D01*
X25982636Y-35515598D01*
X26020323Y-35504165D01*
X26065661Y-35499700D01*
X27152339Y-35499700D01*
X27197677Y-35504165D01*
X27197677Y-35504165D01*
G37*
G36*
X48371277Y-34947465D02*
X48408964Y-34958898D01*
X48443703Y-34977466D01*
X48474148Y-35002452D01*
X48499134Y-35032897D01*
X48517702Y-35067636D01*
X48529135Y-35105323D01*
X48533600Y-35150661D01*
X48533600Y-35987339D01*
X48529135Y-36032677D01*
X48517702Y-36070364D01*
X48499134Y-36105103D01*
X48474148Y-36135548D01*
X48443703Y-36160534D01*
X48408964Y-36179102D01*
X48371277Y-36190535D01*
X48325939Y-36195000D01*
X47239261Y-36195000D01*
X47193923Y-36190535D01*
X47156236Y-36179102D01*
X47121497Y-36160534D01*
X47091052Y-36135548D01*
X47066066Y-36105103D01*
X47047498Y-36070364D01*
X47036065Y-36032677D01*
X47031600Y-35987339D01*
X47031600Y-35150661D01*
X47036065Y-35105323D01*
X47047498Y-35067636D01*
X47066066Y-35032897D01*
X47091052Y-35002452D01*
X47121497Y-34977466D01*
X47156236Y-34958898D01*
X47193923Y-34947465D01*
X47239261Y-34943000D01*
X48325939Y-34943000D01*
X48371277Y-34947465D01*
X48371277Y-34947465D01*
G37*
G36*
X56168677Y-34276365D02*
X56206364Y-34287798D01*
X56241103Y-34306366D01*
X56271548Y-34331352D01*
X56296534Y-34361797D01*
X56315102Y-34396536D01*
X56326535Y-34434223D01*
X56331000Y-34479561D01*
X56331000Y-35316239D01*
X56326535Y-35361577D01*
X56315102Y-35399264D01*
X56296534Y-35434003D01*
X56271548Y-35464448D01*
X56241103Y-35489434D01*
X56206364Y-35508002D01*
X56168677Y-35519435D01*
X56123339Y-35523900D01*
X55036661Y-35523900D01*
X54991323Y-35519435D01*
X54953636Y-35508002D01*
X54918897Y-35489434D01*
X54888452Y-35464448D01*
X54863466Y-35434003D01*
X54844898Y-35399264D01*
X54833465Y-35361577D01*
X54829000Y-35316239D01*
X54829000Y-34479561D01*
X54833465Y-34434223D01*
X54844898Y-34396536D01*
X54863466Y-34361797D01*
X54888452Y-34331352D01*
X54918897Y-34306366D01*
X54953636Y-34287798D01*
X54991323Y-34276365D01*
X55036661Y-34271900D01*
X56123339Y-34271900D01*
X56168677Y-34276365D01*
X56168677Y-34276365D01*
G37*
G36*
X27197677Y-33454165D02*
X27235364Y-33465598D01*
X27270103Y-33484166D01*
X27300548Y-33509152D01*
X27325534Y-33539597D01*
X27344102Y-33574336D01*
X27355535Y-33612023D01*
X27360000Y-33657361D01*
X27360000Y-34494039D01*
X27355535Y-34539377D01*
X27344102Y-34577064D01*
X27325534Y-34611803D01*
X27300548Y-34642248D01*
X27270103Y-34667234D01*
X27235364Y-34685802D01*
X27197677Y-34697235D01*
X27152339Y-34701700D01*
X26065661Y-34701700D01*
X26020323Y-34697235D01*
X25982636Y-34685802D01*
X25947897Y-34667234D01*
X25917452Y-34642248D01*
X25892466Y-34611803D01*
X25873898Y-34577064D01*
X25862465Y-34539377D01*
X25858000Y-34494039D01*
X25858000Y-33657361D01*
X25862465Y-33612023D01*
X25873898Y-33574336D01*
X25892466Y-33539597D01*
X25917452Y-33509152D01*
X25947897Y-33484166D01*
X25982636Y-33465598D01*
X26020323Y-33454165D01*
X26065661Y-33449700D01*
X27152339Y-33449700D01*
X27197677Y-33454165D01*
X27197677Y-33454165D01*
G37*
G36*
X22895589Y-33018876D02*
X22994893Y-33038629D01*
X23135206Y-33096748D01*
X23261484Y-33181125D01*
X23368875Y-33288516D01*
X23453252Y-33414794D01*
X23511371Y-33555107D01*
X23531124Y-33654411D01*
X23541000Y-33704062D01*
X23541000Y-33855938D01*
X23531877Y-33901803D01*
X23511371Y-34004893D01*
X23453252Y-34145206D01*
X23368875Y-34271484D01*
X23261484Y-34378875D01*
X23135206Y-34463252D01*
X22994893Y-34521371D01*
X22904370Y-34539377D01*
X22845938Y-34551000D01*
X22694062Y-34551000D01*
X22635630Y-34539377D01*
X22545107Y-34521371D01*
X22404794Y-34463252D01*
X22278516Y-34378875D01*
X22171125Y-34271484D01*
X22086748Y-34145206D01*
X22028629Y-34004893D01*
X22008123Y-33901803D01*
X21999000Y-33855938D01*
X21999000Y-33704062D01*
X22008876Y-33654411D01*
X22028629Y-33555107D01*
X22086748Y-33414794D01*
X22171125Y-33288516D01*
X22278516Y-33181125D01*
X22404794Y-33096748D01*
X22545107Y-33038629D01*
X22644411Y-33018876D01*
X22694062Y-33009000D01*
X22845938Y-33009000D01*
X22895589Y-33018876D01*
X22895589Y-33018876D01*
G37*
G36*
X48371277Y-32897465D02*
X48408964Y-32908898D01*
X48443703Y-32927466D01*
X48474148Y-32952452D01*
X48499134Y-32982897D01*
X48517702Y-33017636D01*
X48529135Y-33055323D01*
X48533600Y-33100661D01*
X48533600Y-33937339D01*
X48529135Y-33982677D01*
X48517702Y-34020364D01*
X48499134Y-34055103D01*
X48474148Y-34085548D01*
X48443703Y-34110534D01*
X48408964Y-34129102D01*
X48371277Y-34140535D01*
X48325939Y-34145000D01*
X47239261Y-34145000D01*
X47193923Y-34140535D01*
X47156236Y-34129102D01*
X47121497Y-34110534D01*
X47091052Y-34085548D01*
X47066066Y-34055103D01*
X47047498Y-34020364D01*
X47036065Y-33982677D01*
X47031600Y-33937339D01*
X47031600Y-33100661D01*
X47036065Y-33055323D01*
X47047498Y-33017636D01*
X47066066Y-32982897D01*
X47091052Y-32952452D01*
X47121497Y-32927466D01*
X47156236Y-32908898D01*
X47193923Y-32897465D01*
X47239261Y-32893000D01*
X48325939Y-32893000D01*
X48371277Y-32897465D01*
X48371277Y-32897465D01*
G37*
G36*
X31379977Y-32494165D02*
X31417664Y-32505598D01*
X31452403Y-32524166D01*
X31482848Y-32549152D01*
X31507834Y-32579597D01*
X31526402Y-32614336D01*
X31537835Y-32652023D01*
X31542300Y-32697361D01*
X31542300Y-33784039D01*
X31537835Y-33829377D01*
X31526402Y-33867064D01*
X31507834Y-33901803D01*
X31482848Y-33932248D01*
X31452403Y-33957234D01*
X31417664Y-33975802D01*
X31379977Y-33987235D01*
X31334639Y-33991700D01*
X30497961Y-33991700D01*
X30452623Y-33987235D01*
X30414936Y-33975802D01*
X30380197Y-33957234D01*
X30349752Y-33932248D01*
X30324766Y-33901803D01*
X30306198Y-33867064D01*
X30294765Y-33829377D01*
X30290300Y-33784039D01*
X30290300Y-32697361D01*
X30294765Y-32652023D01*
X30306198Y-32614336D01*
X30324766Y-32579597D01*
X30349752Y-32549152D01*
X30380197Y-32524166D01*
X30414936Y-32505598D01*
X30452623Y-32494165D01*
X30497961Y-32489700D01*
X31334639Y-32489700D01*
X31379977Y-32494165D01*
X31379977Y-32494165D01*
G37*
G36*
X33429977Y-32494165D02*
X33467664Y-32505598D01*
X33502403Y-32524166D01*
X33532848Y-32549152D01*
X33557834Y-32579597D01*
X33576402Y-32614336D01*
X33587835Y-32652023D01*
X33592300Y-32697361D01*
X33592300Y-33784039D01*
X33587835Y-33829377D01*
X33576402Y-33867064D01*
X33557834Y-33901803D01*
X33532848Y-33932248D01*
X33502403Y-33957234D01*
X33467664Y-33975802D01*
X33429977Y-33987235D01*
X33384639Y-33991700D01*
X32547961Y-33991700D01*
X32502623Y-33987235D01*
X32464936Y-33975802D01*
X32430197Y-33957234D01*
X32399752Y-33932248D01*
X32374766Y-33901803D01*
X32356198Y-33867064D01*
X32344765Y-33829377D01*
X32340300Y-33784039D01*
X32340300Y-32697361D01*
X32344765Y-32652023D01*
X32356198Y-32614336D01*
X32374766Y-32579597D01*
X32399752Y-32549152D01*
X32430197Y-32524166D01*
X32464936Y-32505598D01*
X32502623Y-32494165D01*
X32547961Y-32489700D01*
X33384639Y-32489700D01*
X33429977Y-32494165D01*
X33429977Y-32494165D01*
G37*
G36*
X60838228Y-32011703D02*
X60993100Y-32075853D01*
X61132481Y-32168985D01*
X61251015Y-32287519D01*
X61344147Y-32426900D01*
X61408297Y-32581772D01*
X61441000Y-32746184D01*
X61441000Y-32913816D01*
X61408297Y-33078228D01*
X61344147Y-33233100D01*
X61251015Y-33372481D01*
X61132481Y-33491015D01*
X60993100Y-33584147D01*
X60838228Y-33648297D01*
X60673816Y-33681000D01*
X60506184Y-33681000D01*
X60341772Y-33648297D01*
X60186900Y-33584147D01*
X60047519Y-33491015D01*
X59928985Y-33372481D01*
X59835853Y-33233100D01*
X59771703Y-33078228D01*
X59739000Y-32913816D01*
X59739000Y-32746184D01*
X59771703Y-32581772D01*
X59835853Y-32426900D01*
X59928985Y-32287519D01*
X60047519Y-32168985D01*
X60186900Y-32075853D01*
X60341772Y-32011703D01*
X60506184Y-31979000D01*
X60673816Y-31979000D01*
X60838228Y-32011703D01*
X60838228Y-32011703D01*
G37*
G36*
X40654777Y-32375765D02*
X40692464Y-32387198D01*
X40727203Y-32405766D01*
X40757648Y-32430752D01*
X40782634Y-32461197D01*
X40801202Y-32495936D01*
X40812635Y-32533623D01*
X40817100Y-32578961D01*
X40817100Y-33415639D01*
X40812635Y-33460977D01*
X40801202Y-33498664D01*
X40782634Y-33533403D01*
X40757648Y-33563848D01*
X40727203Y-33588834D01*
X40692464Y-33607402D01*
X40654777Y-33618835D01*
X40609439Y-33623300D01*
X39522761Y-33623300D01*
X39477423Y-33618835D01*
X39439736Y-33607402D01*
X39404997Y-33588834D01*
X39374552Y-33563848D01*
X39349566Y-33533403D01*
X39330998Y-33498664D01*
X39319565Y-33460977D01*
X39315100Y-33415639D01*
X39315100Y-32578961D01*
X39319565Y-32533623D01*
X39330998Y-32495936D01*
X39349566Y-32461197D01*
X39374552Y-32430752D01*
X39404997Y-32405766D01*
X39439736Y-32387198D01*
X39477423Y-32375765D01*
X39522761Y-32371300D01*
X40609439Y-32371300D01*
X40654777Y-32375765D01*
X40654777Y-32375765D01*
G37*
G36*
X56138677Y-32313465D02*
X56176364Y-32324898D01*
X56211103Y-32343466D01*
X56241548Y-32368452D01*
X56266534Y-32398897D01*
X56285102Y-32433636D01*
X56296535Y-32471323D01*
X56301000Y-32516661D01*
X56301000Y-33353339D01*
X56296535Y-33398677D01*
X56285102Y-33436364D01*
X56266534Y-33471103D01*
X56241548Y-33501548D01*
X56211103Y-33526534D01*
X56176364Y-33545102D01*
X56138677Y-33556535D01*
X56093339Y-33561000D01*
X55006661Y-33561000D01*
X54961323Y-33556535D01*
X54923636Y-33545102D01*
X54888897Y-33526534D01*
X54858452Y-33501548D01*
X54833466Y-33471103D01*
X54814898Y-33436364D01*
X54803465Y-33398677D01*
X54799000Y-33353339D01*
X54799000Y-32516661D01*
X54803465Y-32471323D01*
X54814898Y-32433636D01*
X54833466Y-32398897D01*
X54858452Y-32368452D01*
X54888897Y-32343466D01*
X54923636Y-32324898D01*
X54961323Y-32313465D01*
X55006661Y-32309000D01*
X56093339Y-32309000D01*
X56138677Y-32313465D01*
X56138677Y-32313465D01*
G37*
G36*
X52447916Y-29432334D02*
X52556492Y-29465271D01*
X52656557Y-29518756D01*
X52744264Y-29590736D01*
X52816244Y-29678443D01*
X52869729Y-29778508D01*
X52902666Y-29887084D01*
X52913787Y-30000000D01*
X52902666Y-30112916D01*
X52869729Y-30221492D01*
X52869726Y-30221497D01*
X52816244Y-30321557D01*
X52744264Y-30409264D01*
X52656557Y-30481244D01*
X52575143Y-30524760D01*
X52554768Y-30538373D01*
X52537441Y-30555701D01*
X52523827Y-30576075D01*
X52514450Y-30598714D01*
X52509669Y-30622747D01*
X52509669Y-30647252D01*
X52514449Y-30671285D01*
X52523827Y-30693924D01*
X52537440Y-30714299D01*
X52554768Y-30731626D01*
X52575143Y-30745240D01*
X52656557Y-30788756D01*
X52744264Y-30860736D01*
X52816244Y-30948443D01*
X52869729Y-31048508D01*
X52902666Y-31157084D01*
X52913787Y-31270000D01*
X52902666Y-31382916D01*
X52869729Y-31491492D01*
X52837076Y-31552582D01*
X52816244Y-31591557D01*
X52744264Y-31679264D01*
X52667365Y-31742374D01*
X52650038Y-31759701D01*
X52636424Y-31780076D01*
X52627046Y-31802715D01*
X52622266Y-31826748D01*
X52622266Y-31851252D01*
X52627047Y-31875286D01*
X52636424Y-31897925D01*
X52650038Y-31918299D01*
X52667365Y-31935626D01*
X52687740Y-31949240D01*
X52710379Y-31958618D01*
X52746664Y-31964000D01*
X52911000Y-31964000D01*
X52911000Y-33116000D01*
X51309000Y-33116000D01*
X51309000Y-31964000D01*
X51473336Y-31964000D01*
X51497722Y-31961598D01*
X51521171Y-31954485D01*
X51542782Y-31942934D01*
X51561724Y-31927388D01*
X51577270Y-31908446D01*
X51588821Y-31886835D01*
X51595934Y-31863386D01*
X51598336Y-31839000D01*
X51595934Y-31814614D01*
X51588821Y-31791165D01*
X51577270Y-31769554D01*
X51552635Y-31742374D01*
X51475736Y-31679264D01*
X51403756Y-31591557D01*
X51382924Y-31552582D01*
X51350271Y-31491492D01*
X51317334Y-31382916D01*
X51306213Y-31270000D01*
X51317334Y-31157084D01*
X51350271Y-31048508D01*
X51403756Y-30948443D01*
X51475736Y-30860736D01*
X51563443Y-30788756D01*
X51644857Y-30745240D01*
X51665232Y-30731627D01*
X51682559Y-30714299D01*
X51696173Y-30693925D01*
X51705550Y-30671286D01*
X51710331Y-30647253D01*
X51710331Y-30622748D01*
X51705551Y-30598715D01*
X51696173Y-30576076D01*
X51682560Y-30555701D01*
X51665232Y-30538374D01*
X51644857Y-30524760D01*
X51563443Y-30481244D01*
X51475736Y-30409264D01*
X51403756Y-30321557D01*
X51350274Y-30221497D01*
X51350271Y-30221492D01*
X51317334Y-30112916D01*
X51306213Y-30000000D01*
X51317334Y-29887084D01*
X51350271Y-29778508D01*
X51403756Y-29678443D01*
X51475736Y-29590736D01*
X51563443Y-29518756D01*
X51663508Y-29465271D01*
X51772084Y-29432334D01*
X51856702Y-29424000D01*
X52363298Y-29424000D01*
X52447916Y-29432334D01*
X52447916Y-29432334D01*
G37*
G36*
X40654777Y-30325765D02*
X40692464Y-30337198D01*
X40727203Y-30355766D01*
X40757648Y-30380752D01*
X40782634Y-30411197D01*
X40801202Y-30445936D01*
X40812635Y-30483623D01*
X40817100Y-30528961D01*
X40817100Y-31365639D01*
X40812635Y-31410977D01*
X40801202Y-31448664D01*
X40782634Y-31483403D01*
X40757648Y-31513848D01*
X40727203Y-31538834D01*
X40692464Y-31557402D01*
X40654777Y-31568835D01*
X40609439Y-31573300D01*
X39522761Y-31573300D01*
X39477423Y-31568835D01*
X39439736Y-31557402D01*
X39404997Y-31538834D01*
X39374552Y-31513848D01*
X39349566Y-31483403D01*
X39330998Y-31448664D01*
X39319565Y-31410977D01*
X39315100Y-31365639D01*
X39315100Y-30528961D01*
X39319565Y-30483623D01*
X39330998Y-30445936D01*
X39349566Y-30411197D01*
X39374552Y-30380752D01*
X39404997Y-30355766D01*
X39439736Y-30337198D01*
X39477423Y-30325765D01*
X39522761Y-30321300D01*
X40609439Y-30321300D01*
X40654777Y-30325765D01*
X40654777Y-30325765D01*
G37*
G36*
X56138677Y-30263465D02*
X56176364Y-30274898D01*
X56211103Y-30293466D01*
X56241548Y-30318452D01*
X56266534Y-30348897D01*
X56285102Y-30383636D01*
X56296535Y-30421323D01*
X56301000Y-30466661D01*
X56301000Y-31303339D01*
X56296535Y-31348677D01*
X56285102Y-31386364D01*
X56266534Y-31421103D01*
X56241548Y-31451548D01*
X56211103Y-31476534D01*
X56176364Y-31495102D01*
X56138677Y-31506535D01*
X56093339Y-31511000D01*
X55006661Y-31511000D01*
X54961323Y-31506535D01*
X54923636Y-31495102D01*
X54888897Y-31476534D01*
X54858452Y-31451548D01*
X54833466Y-31421103D01*
X54814898Y-31386364D01*
X54803465Y-31348677D01*
X54799000Y-31303339D01*
X54799000Y-30466661D01*
X54803465Y-30421323D01*
X54814898Y-30383636D01*
X54833466Y-30348897D01*
X54858452Y-30318452D01*
X54888897Y-30293466D01*
X54923636Y-30274898D01*
X54961323Y-30263465D01*
X55006661Y-30259000D01*
X56093339Y-30259000D01*
X56138677Y-30263465D01*
X56138677Y-30263465D01*
G37*
G36*
X61441000Y-31181000D02*
X59739000Y-31181000D01*
X59739000Y-29479000D01*
X61441000Y-29479000D01*
X61441000Y-31181000D01*
X61441000Y-31181000D01*
G37*
G36*
X26905742Y-28906318D02*
X26971927Y-28912837D01*
X27085153Y-28947184D01*
X27141767Y-28964357D01*
X27280387Y-29038452D01*
X27298291Y-29048022D01*
X27334029Y-29077352D01*
X27435486Y-29160614D01*
X27518748Y-29262071D01*
X27548078Y-29297809D01*
X27548079Y-29297811D01*
X27631743Y-29454333D01*
X27648916Y-29510947D01*
X27683263Y-29624173D01*
X27700659Y-29800800D01*
X27683263Y-29977427D01*
X27648916Y-30090653D01*
X27631743Y-30147267D01*
X27569633Y-30263465D01*
X27548078Y-30303791D01*
X27530044Y-30325765D01*
X27435486Y-30440986D01*
X27334029Y-30524248D01*
X27298291Y-30553578D01*
X27298289Y-30553579D01*
X27141767Y-30637243D01*
X27085153Y-30654416D01*
X26971927Y-30688763D01*
X26919515Y-30693925D01*
X26839560Y-30701800D01*
X26751040Y-30701800D01*
X26671085Y-30693925D01*
X26618673Y-30688763D01*
X26505447Y-30654416D01*
X26448833Y-30637243D01*
X26292311Y-30553579D01*
X26292309Y-30553578D01*
X26256571Y-30524248D01*
X26155114Y-30440986D01*
X26060556Y-30325765D01*
X26042522Y-30303791D01*
X26020967Y-30263465D01*
X25958857Y-30147267D01*
X25941684Y-30090653D01*
X25907337Y-29977427D01*
X25889941Y-29800800D01*
X25907337Y-29624173D01*
X25941684Y-29510947D01*
X25958857Y-29454333D01*
X26042521Y-29297811D01*
X26042522Y-29297809D01*
X26071852Y-29262071D01*
X26155114Y-29160614D01*
X26256571Y-29077352D01*
X26292309Y-29048022D01*
X26310213Y-29038452D01*
X26448833Y-28964357D01*
X26505447Y-28947184D01*
X26618673Y-28912837D01*
X26684858Y-28906318D01*
X26751040Y-28899800D01*
X26839560Y-28899800D01*
X26905742Y-28906318D01*
X26905742Y-28906318D01*
G37*
G36*
X30236300Y-30701800D02*
X28434300Y-30701800D01*
X28434300Y-28899800D01*
X30236300Y-28899800D01*
X30236300Y-30701800D01*
X30236300Y-30701800D01*
G37*
G36*
X44910443Y-25975519D02*
X44976627Y-25982037D01*
X45089853Y-26016384D01*
X45146467Y-26033557D01*
X45224120Y-26075064D01*
X45302991Y-26117222D01*
X45331048Y-26140248D01*
X45440186Y-26229814D01*
X45523448Y-26331271D01*
X45552778Y-26367009D01*
X45552779Y-26367011D01*
X45636443Y-26523533D01*
X45636443Y-26523534D01*
X45687963Y-26693373D01*
X45705359Y-26870000D01*
X45687963Y-27046627D01*
X45653616Y-27159853D01*
X45636443Y-27216467D01*
X45562348Y-27355087D01*
X45552778Y-27372991D01*
X45523448Y-27408729D01*
X45440186Y-27510186D01*
X45338729Y-27593448D01*
X45302991Y-27622778D01*
X45302989Y-27622779D01*
X45146467Y-27706443D01*
X45089853Y-27723616D01*
X44976627Y-27757963D01*
X44910442Y-27764482D01*
X44844260Y-27771000D01*
X44755740Y-27771000D01*
X44689558Y-27764482D01*
X44623373Y-27757963D01*
X44510147Y-27723616D01*
X44453533Y-27706443D01*
X44297011Y-27622779D01*
X44297009Y-27622778D01*
X44261271Y-27593448D01*
X44159814Y-27510186D01*
X44076552Y-27408729D01*
X44047222Y-27372991D01*
X44037652Y-27355087D01*
X43963557Y-27216467D01*
X43946384Y-27159853D01*
X43912037Y-27046627D01*
X43894641Y-26870000D01*
X43912037Y-26693373D01*
X43963557Y-26523534D01*
X43963557Y-26523533D01*
X44047221Y-26367011D01*
X44047222Y-26367009D01*
X44076552Y-26331271D01*
X44159814Y-26229814D01*
X44268952Y-26140248D01*
X44297009Y-26117222D01*
X44375880Y-26075064D01*
X44453533Y-26033557D01*
X44510147Y-26016384D01*
X44623373Y-25982037D01*
X44689558Y-25975518D01*
X44755740Y-25969000D01*
X44844260Y-25969000D01*
X44910443Y-25975519D01*
X44910443Y-25975519D01*
G37*
G36*
X42370443Y-25975519D02*
X42436627Y-25982037D01*
X42549853Y-26016384D01*
X42606467Y-26033557D01*
X42684120Y-26075064D01*
X42762991Y-26117222D01*
X42791048Y-26140248D01*
X42900186Y-26229814D01*
X42983448Y-26331271D01*
X43012778Y-26367009D01*
X43012779Y-26367011D01*
X43096443Y-26523533D01*
X43096443Y-26523534D01*
X43147963Y-26693373D01*
X43165359Y-26870000D01*
X43147963Y-27046627D01*
X43113616Y-27159853D01*
X43096443Y-27216467D01*
X43022348Y-27355087D01*
X43012778Y-27372991D01*
X42983448Y-27408729D01*
X42900186Y-27510186D01*
X42798729Y-27593448D01*
X42762991Y-27622778D01*
X42762989Y-27622779D01*
X42606467Y-27706443D01*
X42549853Y-27723616D01*
X42436627Y-27757963D01*
X42370442Y-27764482D01*
X42304260Y-27771000D01*
X42215740Y-27771000D01*
X42149558Y-27764482D01*
X42083373Y-27757963D01*
X41970147Y-27723616D01*
X41913533Y-27706443D01*
X41757011Y-27622779D01*
X41757009Y-27622778D01*
X41721271Y-27593448D01*
X41619814Y-27510186D01*
X41536552Y-27408729D01*
X41507222Y-27372991D01*
X41497652Y-27355087D01*
X41423557Y-27216467D01*
X41406384Y-27159853D01*
X41372037Y-27046627D01*
X41354641Y-26870000D01*
X41372037Y-26693373D01*
X41423557Y-26523534D01*
X41423557Y-26523533D01*
X41507221Y-26367011D01*
X41507222Y-26367009D01*
X41536552Y-26331271D01*
X41619814Y-26229814D01*
X41728952Y-26140248D01*
X41757009Y-26117222D01*
X41835880Y-26075064D01*
X41913533Y-26033557D01*
X41970147Y-26016384D01*
X42083373Y-25982037D01*
X42149558Y-25975518D01*
X42215740Y-25969000D01*
X42304260Y-25969000D01*
X42370443Y-25975519D01*
X42370443Y-25975519D01*
G37*
G36*
X39830443Y-25975519D02*
X39896627Y-25982037D01*
X40009853Y-26016384D01*
X40066467Y-26033557D01*
X40144120Y-26075064D01*
X40222991Y-26117222D01*
X40251048Y-26140248D01*
X40360186Y-26229814D01*
X40443448Y-26331271D01*
X40472778Y-26367009D01*
X40472779Y-26367011D01*
X40556443Y-26523533D01*
X40556443Y-26523534D01*
X40607963Y-26693373D01*
X40625359Y-26870000D01*
X40607963Y-27046627D01*
X40573616Y-27159853D01*
X40556443Y-27216467D01*
X40482348Y-27355087D01*
X40472778Y-27372991D01*
X40443448Y-27408729D01*
X40360186Y-27510186D01*
X40258729Y-27593448D01*
X40222991Y-27622778D01*
X40222989Y-27622779D01*
X40066467Y-27706443D01*
X40009853Y-27723616D01*
X39896627Y-27757963D01*
X39830442Y-27764482D01*
X39764260Y-27771000D01*
X39675740Y-27771000D01*
X39609558Y-27764482D01*
X39543373Y-27757963D01*
X39430147Y-27723616D01*
X39373533Y-27706443D01*
X39217011Y-27622779D01*
X39217009Y-27622778D01*
X39181271Y-27593448D01*
X39079814Y-27510186D01*
X38996552Y-27408729D01*
X38967222Y-27372991D01*
X38957652Y-27355087D01*
X38883557Y-27216467D01*
X38866384Y-27159853D01*
X38832037Y-27046627D01*
X38814641Y-26870000D01*
X38832037Y-26693373D01*
X38883557Y-26523534D01*
X38883557Y-26523533D01*
X38967221Y-26367011D01*
X38967222Y-26367009D01*
X38996552Y-26331271D01*
X39079814Y-26229814D01*
X39188952Y-26140248D01*
X39217009Y-26117222D01*
X39295880Y-26075064D01*
X39373533Y-26033557D01*
X39430147Y-26016384D01*
X39543373Y-25982037D01*
X39609558Y-25975518D01*
X39675740Y-25969000D01*
X39764260Y-25969000D01*
X39830443Y-25975519D01*
X39830443Y-25975519D01*
G37*
G36*
X37290443Y-25975519D02*
X37356627Y-25982037D01*
X37469853Y-26016384D01*
X37526467Y-26033557D01*
X37604120Y-26075064D01*
X37682991Y-26117222D01*
X37711048Y-26140248D01*
X37820186Y-26229814D01*
X37903448Y-26331271D01*
X37932778Y-26367009D01*
X37932779Y-26367011D01*
X38016443Y-26523533D01*
X38016443Y-26523534D01*
X38067963Y-26693373D01*
X38085359Y-26870000D01*
X38067963Y-27046627D01*
X38033616Y-27159853D01*
X38016443Y-27216467D01*
X37942348Y-27355087D01*
X37932778Y-27372991D01*
X37903448Y-27408729D01*
X37820186Y-27510186D01*
X37718729Y-27593448D01*
X37682991Y-27622778D01*
X37682989Y-27622779D01*
X37526467Y-27706443D01*
X37469853Y-27723616D01*
X37356627Y-27757963D01*
X37290442Y-27764482D01*
X37224260Y-27771000D01*
X37135740Y-27771000D01*
X37069558Y-27764482D01*
X37003373Y-27757963D01*
X36890147Y-27723616D01*
X36833533Y-27706443D01*
X36677011Y-27622779D01*
X36677009Y-27622778D01*
X36641271Y-27593448D01*
X36539814Y-27510186D01*
X36456552Y-27408729D01*
X36427222Y-27372991D01*
X36417652Y-27355087D01*
X36343557Y-27216467D01*
X36326384Y-27159853D01*
X36292037Y-27046627D01*
X36274641Y-26870000D01*
X36292037Y-26693373D01*
X36343557Y-26523534D01*
X36343557Y-26523533D01*
X36427221Y-26367011D01*
X36427222Y-26367009D01*
X36456552Y-26331271D01*
X36539814Y-26229814D01*
X36648952Y-26140248D01*
X36677009Y-26117222D01*
X36755880Y-26075064D01*
X36833533Y-26033557D01*
X36890147Y-26016384D01*
X37003373Y-25982037D01*
X37069558Y-25975518D01*
X37135740Y-25969000D01*
X37224260Y-25969000D01*
X37290443Y-25975519D01*
X37290443Y-25975519D01*
G37*
G36*
X35541000Y-27771000D02*
X33739000Y-27771000D01*
X33739000Y-25969000D01*
X35541000Y-25969000D01*
X35541000Y-27771000D01*
X35541000Y-27771000D01*
G37*
G36*
X59278677Y-25363465D02*
X59316364Y-25374898D01*
X59351103Y-25393466D01*
X59381548Y-25418452D01*
X59406534Y-25448897D01*
X59425102Y-25483636D01*
X59436535Y-25521323D01*
X59441000Y-25566661D01*
X59441000Y-26653339D01*
X59436535Y-26698677D01*
X59425102Y-26736364D01*
X59406534Y-26771103D01*
X59381548Y-26801548D01*
X59351103Y-26826534D01*
X59316364Y-26845102D01*
X59278677Y-26856535D01*
X59233339Y-26861000D01*
X58396661Y-26861000D01*
X58351323Y-26856535D01*
X58313636Y-26845102D01*
X58278897Y-26826534D01*
X58248452Y-26801548D01*
X58223466Y-26771103D01*
X58204898Y-26736364D01*
X58193465Y-26698677D01*
X58189000Y-26653339D01*
X58189000Y-25566661D01*
X58193465Y-25521323D01*
X58204898Y-25483636D01*
X58223466Y-25448897D01*
X58248452Y-25418452D01*
X58278897Y-25393466D01*
X58313636Y-25374898D01*
X58351323Y-25363465D01*
X58396661Y-25359000D01*
X59233339Y-25359000D01*
X59278677Y-25363465D01*
X59278677Y-25363465D01*
G37*
G36*
X61328677Y-25363465D02*
X61366364Y-25374898D01*
X61401103Y-25393466D01*
X61431548Y-25418452D01*
X61456534Y-25448897D01*
X61475102Y-25483636D01*
X61486535Y-25521323D01*
X61491000Y-25566661D01*
X61491000Y-26653339D01*
X61486535Y-26698677D01*
X61475102Y-26736364D01*
X61456534Y-26771103D01*
X61431548Y-26801548D01*
X61401103Y-26826534D01*
X61366364Y-26845102D01*
X61328677Y-26856535D01*
X61283339Y-26861000D01*
X60446661Y-26861000D01*
X60401323Y-26856535D01*
X60363636Y-26845102D01*
X60328897Y-26826534D01*
X60298452Y-26801548D01*
X60273466Y-26771103D01*
X60254898Y-26736364D01*
X60243465Y-26698677D01*
X60239000Y-26653339D01*
X60239000Y-25566661D01*
X60243465Y-25521323D01*
X60254898Y-25483636D01*
X60273466Y-25448897D01*
X60298452Y-25418452D01*
X60328897Y-25393466D01*
X60363636Y-25374898D01*
X60401323Y-25363465D01*
X60446661Y-25359000D01*
X61283339Y-25359000D01*
X61328677Y-25363465D01*
X61328677Y-25363465D01*
G37*
G36*
X23758677Y-25003465D02*
X23796364Y-25014898D01*
X23831103Y-25033466D01*
X23861548Y-25058452D01*
X23886534Y-25088897D01*
X23905102Y-25123636D01*
X23916535Y-25161323D01*
X23921000Y-25206661D01*
X23921000Y-26293339D01*
X23916535Y-26338677D01*
X23905102Y-26376364D01*
X23886534Y-26411103D01*
X23861548Y-26441548D01*
X23831103Y-26466534D01*
X23796364Y-26485102D01*
X23758677Y-26496535D01*
X23713339Y-26501000D01*
X22876661Y-26501000D01*
X22831323Y-26496535D01*
X22793636Y-26485102D01*
X22758897Y-26466534D01*
X22728452Y-26441548D01*
X22703466Y-26411103D01*
X22684898Y-26376364D01*
X22673465Y-26338677D01*
X22669000Y-26293339D01*
X22669000Y-25206661D01*
X22673465Y-25161323D01*
X22684898Y-25123636D01*
X22703466Y-25088897D01*
X22728452Y-25058452D01*
X22758897Y-25033466D01*
X22793636Y-25014898D01*
X22831323Y-25003465D01*
X22876661Y-24999000D01*
X23713339Y-24999000D01*
X23758677Y-25003465D01*
X23758677Y-25003465D01*
G37*
G36*
X25808677Y-25003465D02*
X25846364Y-25014898D01*
X25881103Y-25033466D01*
X25911548Y-25058452D01*
X25936534Y-25088897D01*
X25955102Y-25123636D01*
X25966535Y-25161323D01*
X25971000Y-25206661D01*
X25971000Y-26293339D01*
X25966535Y-26338677D01*
X25955102Y-26376364D01*
X25936534Y-26411103D01*
X25911548Y-26441548D01*
X25881103Y-26466534D01*
X25846364Y-26485102D01*
X25808677Y-26496535D01*
X25763339Y-26501000D01*
X24926661Y-26501000D01*
X24881323Y-26496535D01*
X24843636Y-26485102D01*
X24808897Y-26466534D01*
X24778452Y-26441548D01*
X24753466Y-26411103D01*
X24734898Y-26376364D01*
X24723465Y-26338677D01*
X24719000Y-26293339D01*
X24719000Y-25206661D01*
X24723465Y-25161323D01*
X24734898Y-25123636D01*
X24753466Y-25088897D01*
X24778452Y-25058452D01*
X24808897Y-25033466D01*
X24843636Y-25014898D01*
X24881323Y-25003465D01*
X24926661Y-24999000D01*
X25763339Y-24999000D01*
X25808677Y-25003465D01*
X25808677Y-25003465D01*
G37*
G36*
X55591000Y-26441000D02*
X53789000Y-26441000D01*
X53789000Y-24639000D01*
X55591000Y-24639000D01*
X55591000Y-26441000D01*
X55591000Y-26441000D01*
G37*
G36*
X52260443Y-24645519D02*
X52326627Y-24652037D01*
X52439853Y-24686384D01*
X52496467Y-24703557D01*
X52601470Y-24759683D01*
X52652991Y-24787222D01*
X52672294Y-24803064D01*
X52790186Y-24899814D01*
X52871585Y-24999000D01*
X52902778Y-25037009D01*
X52902779Y-25037011D01*
X52986443Y-25193533D01*
X52997808Y-25231000D01*
X53037963Y-25363373D01*
X53055359Y-25540000D01*
X53037963Y-25716627D01*
X53003616Y-25829853D01*
X52986443Y-25886467D01*
X52936114Y-25980625D01*
X52902778Y-26042991D01*
X52876456Y-26075064D01*
X52790186Y-26180186D01*
X52688729Y-26263448D01*
X52652991Y-26292778D01*
X52652989Y-26292779D01*
X52496467Y-26376443D01*
X52439853Y-26393616D01*
X52326627Y-26427963D01*
X52260442Y-26434482D01*
X52194260Y-26441000D01*
X52105740Y-26441000D01*
X52039558Y-26434482D01*
X51973373Y-26427963D01*
X51860147Y-26393616D01*
X51803533Y-26376443D01*
X51647011Y-26292779D01*
X51647009Y-26292778D01*
X51611271Y-26263448D01*
X51509814Y-26180186D01*
X51423544Y-26075064D01*
X51397222Y-26042991D01*
X51363886Y-25980625D01*
X51313557Y-25886467D01*
X51296384Y-25829853D01*
X51262037Y-25716627D01*
X51244641Y-25540000D01*
X51262037Y-25363373D01*
X51302192Y-25231000D01*
X51313557Y-25193533D01*
X51397221Y-25037011D01*
X51397222Y-25037009D01*
X51428415Y-24999000D01*
X51509814Y-24899814D01*
X51627706Y-24803064D01*
X51647009Y-24787222D01*
X51698530Y-24759683D01*
X51803533Y-24703557D01*
X51860147Y-24686384D01*
X51973373Y-24652037D01*
X52039557Y-24645519D01*
X52105740Y-24639000D01*
X52194260Y-24639000D01*
X52260443Y-24645519D01*
X52260443Y-24645519D01*
G37*
G36*
X49981977Y-24702165D02*
X50019664Y-24713598D01*
X50054403Y-24732166D01*
X50084848Y-24757152D01*
X50109834Y-24787597D01*
X50128402Y-24822336D01*
X50139835Y-24860023D01*
X50144300Y-24905361D01*
X50144300Y-25992039D01*
X50139835Y-26037377D01*
X50128402Y-26075064D01*
X50109834Y-26109803D01*
X50084848Y-26140248D01*
X50054403Y-26165234D01*
X50019664Y-26183802D01*
X49981977Y-26195235D01*
X49936639Y-26199700D01*
X49099961Y-26199700D01*
X49054623Y-26195235D01*
X49016936Y-26183802D01*
X48982197Y-26165234D01*
X48951752Y-26140248D01*
X48926766Y-26109803D01*
X48908198Y-26075064D01*
X48896765Y-26037377D01*
X48892300Y-25992039D01*
X48892300Y-24905361D01*
X48896765Y-24860023D01*
X48908198Y-24822336D01*
X48926766Y-24787597D01*
X48951752Y-24757152D01*
X48982197Y-24732166D01*
X49016936Y-24713598D01*
X49054623Y-24702165D01*
X49099961Y-24697700D01*
X49936639Y-24697700D01*
X49981977Y-24702165D01*
X49981977Y-24702165D01*
G37*
G36*
X47931977Y-24702165D02*
X47969664Y-24713598D01*
X48004403Y-24732166D01*
X48034848Y-24757152D01*
X48059834Y-24787597D01*
X48078402Y-24822336D01*
X48089835Y-24860023D01*
X48094300Y-24905361D01*
X48094300Y-25992039D01*
X48089835Y-26037377D01*
X48078402Y-26075064D01*
X48059834Y-26109803D01*
X48034848Y-26140248D01*
X48004403Y-26165234D01*
X47969664Y-26183802D01*
X47931977Y-26195235D01*
X47886639Y-26199700D01*
X47049961Y-26199700D01*
X47004623Y-26195235D01*
X46966936Y-26183802D01*
X46932197Y-26165234D01*
X46901752Y-26140248D01*
X46876766Y-26109803D01*
X46858198Y-26075064D01*
X46846765Y-26037377D01*
X46842300Y-25992039D01*
X46842300Y-24905361D01*
X46846765Y-24860023D01*
X46858198Y-24822336D01*
X46876766Y-24787597D01*
X46901752Y-24757152D01*
X46932197Y-24732166D01*
X46966936Y-24713598D01*
X47004623Y-24702165D01*
X47049961Y-24697700D01*
X47886639Y-24697700D01*
X47931977Y-24702165D01*
X47931977Y-24702165D01*
G37*
G36*
X31127077Y-24092965D02*
X31164764Y-24104398D01*
X31199503Y-24122966D01*
X31229948Y-24147952D01*
X31254934Y-24178397D01*
X31273502Y-24213136D01*
X31284935Y-24250823D01*
X31289400Y-24296161D01*
X31289400Y-25382839D01*
X31284935Y-25428177D01*
X31273502Y-25465864D01*
X31254934Y-25500603D01*
X31229948Y-25531048D01*
X31199503Y-25556034D01*
X31164764Y-25574602D01*
X31127077Y-25586035D01*
X31081739Y-25590500D01*
X30245061Y-25590500D01*
X30199723Y-25586035D01*
X30162036Y-25574602D01*
X30127297Y-25556034D01*
X30096852Y-25531048D01*
X30071866Y-25500603D01*
X30053298Y-25465864D01*
X30041865Y-25428177D01*
X30037400Y-25382839D01*
X30037400Y-24296161D01*
X30041865Y-24250823D01*
X30053298Y-24213136D01*
X30071866Y-24178397D01*
X30096852Y-24147952D01*
X30127297Y-24122966D01*
X30162036Y-24104398D01*
X30199723Y-24092965D01*
X30245061Y-24088500D01*
X31081739Y-24088500D01*
X31127077Y-24092965D01*
X31127077Y-24092965D01*
G37*
G36*
X29077077Y-24092965D02*
X29114764Y-24104398D01*
X29149503Y-24122966D01*
X29179948Y-24147952D01*
X29204934Y-24178397D01*
X29223502Y-24213136D01*
X29234935Y-24250823D01*
X29239400Y-24296161D01*
X29239400Y-25382839D01*
X29234935Y-25428177D01*
X29223502Y-25465864D01*
X29204934Y-25500603D01*
X29179948Y-25531048D01*
X29149503Y-25556034D01*
X29114764Y-25574602D01*
X29077077Y-25586035D01*
X29031739Y-25590500D01*
X28195061Y-25590500D01*
X28149723Y-25586035D01*
X28112036Y-25574602D01*
X28077297Y-25556034D01*
X28046852Y-25531048D01*
X28021866Y-25500603D01*
X28003298Y-25465864D01*
X27991865Y-25428177D01*
X27987400Y-25382839D01*
X27987400Y-24296161D01*
X27991865Y-24250823D01*
X28003298Y-24213136D01*
X28021866Y-24178397D01*
X28046852Y-24147952D01*
X28077297Y-24122966D01*
X28112036Y-24104398D01*
X28149723Y-24092965D01*
X28195061Y-24088500D01*
X29031739Y-24088500D01*
X29077077Y-24092965D01*
X29077077Y-24092965D01*
G37*
G36*
X44910443Y-23435519D02*
X44976627Y-23442037D01*
X45073981Y-23471569D01*
X45146467Y-23493557D01*
X45187700Y-23515597D01*
X45302991Y-23577222D01*
X45323090Y-23593717D01*
X45440186Y-23689814D01*
X45523448Y-23791271D01*
X45552778Y-23827009D01*
X45552779Y-23827011D01*
X45636443Y-23983533D01*
X45636443Y-23983534D01*
X45687963Y-24153373D01*
X45705359Y-24330000D01*
X45687963Y-24506627D01*
X45653616Y-24619853D01*
X45636443Y-24676467D01*
X45593315Y-24757152D01*
X45552778Y-24832991D01*
X45540475Y-24847982D01*
X45440186Y-24970186D01*
X45358758Y-25037011D01*
X45302991Y-25082778D01*
X45302989Y-25082779D01*
X45146467Y-25166443D01*
X45089853Y-25183616D01*
X44976627Y-25217963D01*
X44910443Y-25224481D01*
X44844260Y-25231000D01*
X44755740Y-25231000D01*
X44689557Y-25224481D01*
X44623373Y-25217963D01*
X44510147Y-25183616D01*
X44453533Y-25166443D01*
X44297011Y-25082779D01*
X44297009Y-25082778D01*
X44241242Y-25037011D01*
X44159814Y-24970186D01*
X44059525Y-24847982D01*
X44047222Y-24832991D01*
X44006685Y-24757152D01*
X43963557Y-24676467D01*
X43946384Y-24619853D01*
X43912037Y-24506627D01*
X43894641Y-24330000D01*
X43912037Y-24153373D01*
X43963557Y-23983534D01*
X43963557Y-23983533D01*
X44047221Y-23827011D01*
X44047222Y-23827009D01*
X44076552Y-23791271D01*
X44159814Y-23689814D01*
X44276910Y-23593717D01*
X44297009Y-23577222D01*
X44412300Y-23515597D01*
X44453533Y-23493557D01*
X44526019Y-23471569D01*
X44623373Y-23442037D01*
X44689557Y-23435519D01*
X44755740Y-23429000D01*
X44844260Y-23429000D01*
X44910443Y-23435519D01*
X44910443Y-23435519D01*
G37*
G36*
X34750443Y-23435519D02*
X34816627Y-23442037D01*
X34913981Y-23471569D01*
X34986467Y-23493557D01*
X35027700Y-23515597D01*
X35142991Y-23577222D01*
X35163090Y-23593717D01*
X35280186Y-23689814D01*
X35363448Y-23791271D01*
X35392778Y-23827009D01*
X35392779Y-23827011D01*
X35476443Y-23983533D01*
X35476443Y-23983534D01*
X35527963Y-24153373D01*
X35545359Y-24330000D01*
X35527963Y-24506627D01*
X35493616Y-24619853D01*
X35476443Y-24676467D01*
X35433315Y-24757152D01*
X35392778Y-24832991D01*
X35380475Y-24847982D01*
X35280186Y-24970186D01*
X35198758Y-25037011D01*
X35142991Y-25082778D01*
X35142989Y-25082779D01*
X34986467Y-25166443D01*
X34929853Y-25183616D01*
X34816627Y-25217963D01*
X34750443Y-25224481D01*
X34684260Y-25231000D01*
X34595740Y-25231000D01*
X34529557Y-25224481D01*
X34463373Y-25217963D01*
X34350147Y-25183616D01*
X34293533Y-25166443D01*
X34137011Y-25082779D01*
X34137009Y-25082778D01*
X34081242Y-25037011D01*
X33999814Y-24970186D01*
X33899525Y-24847982D01*
X33887222Y-24832991D01*
X33846685Y-24757152D01*
X33803557Y-24676467D01*
X33786384Y-24619853D01*
X33752037Y-24506627D01*
X33734641Y-24330000D01*
X33752037Y-24153373D01*
X33803557Y-23983534D01*
X33803557Y-23983533D01*
X33887221Y-23827011D01*
X33887222Y-23827009D01*
X33916552Y-23791271D01*
X33999814Y-23689814D01*
X34116910Y-23593717D01*
X34137009Y-23577222D01*
X34252300Y-23515597D01*
X34293533Y-23493557D01*
X34366019Y-23471569D01*
X34463373Y-23442037D01*
X34529557Y-23435519D01*
X34595740Y-23429000D01*
X34684260Y-23429000D01*
X34750443Y-23435519D01*
X34750443Y-23435519D01*
G37*
G36*
X37290443Y-23435519D02*
X37356627Y-23442037D01*
X37453981Y-23471569D01*
X37526467Y-23493557D01*
X37567700Y-23515597D01*
X37682991Y-23577222D01*
X37703090Y-23593717D01*
X37820186Y-23689814D01*
X37903448Y-23791271D01*
X37932778Y-23827009D01*
X37932779Y-23827011D01*
X38016443Y-23983533D01*
X38016443Y-23983534D01*
X38067963Y-24153373D01*
X38085359Y-24330000D01*
X38067963Y-24506627D01*
X38033616Y-24619853D01*
X38016443Y-24676467D01*
X37973315Y-24757152D01*
X37932778Y-24832991D01*
X37920475Y-24847982D01*
X37820186Y-24970186D01*
X37738758Y-25037011D01*
X37682991Y-25082778D01*
X37682989Y-25082779D01*
X37526467Y-25166443D01*
X37469853Y-25183616D01*
X37356627Y-25217963D01*
X37290443Y-25224481D01*
X37224260Y-25231000D01*
X37135740Y-25231000D01*
X37069557Y-25224481D01*
X37003373Y-25217963D01*
X36890147Y-25183616D01*
X36833533Y-25166443D01*
X36677011Y-25082779D01*
X36677009Y-25082778D01*
X36621242Y-25037011D01*
X36539814Y-24970186D01*
X36439525Y-24847982D01*
X36427222Y-24832991D01*
X36386685Y-24757152D01*
X36343557Y-24676467D01*
X36326384Y-24619853D01*
X36292037Y-24506627D01*
X36274641Y-24330000D01*
X36292037Y-24153373D01*
X36343557Y-23983534D01*
X36343557Y-23983533D01*
X36427221Y-23827011D01*
X36427222Y-23827009D01*
X36456552Y-23791271D01*
X36539814Y-23689814D01*
X36656910Y-23593717D01*
X36677009Y-23577222D01*
X36792300Y-23515597D01*
X36833533Y-23493557D01*
X36906019Y-23471569D01*
X37003373Y-23442037D01*
X37069557Y-23435519D01*
X37135740Y-23429000D01*
X37224260Y-23429000D01*
X37290443Y-23435519D01*
X37290443Y-23435519D01*
G37*
G36*
X39830443Y-23435519D02*
X39896627Y-23442037D01*
X39993981Y-23471569D01*
X40066467Y-23493557D01*
X40107700Y-23515597D01*
X40222991Y-23577222D01*
X40243090Y-23593717D01*
X40360186Y-23689814D01*
X40443448Y-23791271D01*
X40472778Y-23827009D01*
X40472779Y-23827011D01*
X40556443Y-23983533D01*
X40556443Y-23983534D01*
X40607963Y-24153373D01*
X40625359Y-24330000D01*
X40607963Y-24506627D01*
X40573616Y-24619853D01*
X40556443Y-24676467D01*
X40513315Y-24757152D01*
X40472778Y-24832991D01*
X40460475Y-24847982D01*
X40360186Y-24970186D01*
X40278758Y-25037011D01*
X40222991Y-25082778D01*
X40222989Y-25082779D01*
X40066467Y-25166443D01*
X40009853Y-25183616D01*
X39896627Y-25217963D01*
X39830443Y-25224481D01*
X39764260Y-25231000D01*
X39675740Y-25231000D01*
X39609557Y-25224481D01*
X39543373Y-25217963D01*
X39430147Y-25183616D01*
X39373533Y-25166443D01*
X39217011Y-25082779D01*
X39217009Y-25082778D01*
X39161242Y-25037011D01*
X39079814Y-24970186D01*
X38979525Y-24847982D01*
X38967222Y-24832991D01*
X38926685Y-24757152D01*
X38883557Y-24676467D01*
X38866384Y-24619853D01*
X38832037Y-24506627D01*
X38814641Y-24330000D01*
X38832037Y-24153373D01*
X38883557Y-23983534D01*
X38883557Y-23983533D01*
X38967221Y-23827011D01*
X38967222Y-23827009D01*
X38996552Y-23791271D01*
X39079814Y-23689814D01*
X39196910Y-23593717D01*
X39217009Y-23577222D01*
X39332300Y-23515597D01*
X39373533Y-23493557D01*
X39446019Y-23471569D01*
X39543373Y-23442037D01*
X39609557Y-23435519D01*
X39675740Y-23429000D01*
X39764260Y-23429000D01*
X39830443Y-23435519D01*
X39830443Y-23435519D01*
G37*
G36*
X42370443Y-23435519D02*
X42436627Y-23442037D01*
X42533981Y-23471569D01*
X42606467Y-23493557D01*
X42647700Y-23515597D01*
X42762991Y-23577222D01*
X42783090Y-23593717D01*
X42900186Y-23689814D01*
X42983448Y-23791271D01*
X43012778Y-23827009D01*
X43012779Y-23827011D01*
X43096443Y-23983533D01*
X43096443Y-23983534D01*
X43147963Y-24153373D01*
X43165359Y-24330000D01*
X43147963Y-24506627D01*
X43113616Y-24619853D01*
X43096443Y-24676467D01*
X43053315Y-24757152D01*
X43012778Y-24832991D01*
X43000475Y-24847982D01*
X42900186Y-24970186D01*
X42818758Y-25037011D01*
X42762991Y-25082778D01*
X42762989Y-25082779D01*
X42606467Y-25166443D01*
X42549853Y-25183616D01*
X42436627Y-25217963D01*
X42370443Y-25224481D01*
X42304260Y-25231000D01*
X42215740Y-25231000D01*
X42149557Y-25224481D01*
X42083373Y-25217963D01*
X41970147Y-25183616D01*
X41913533Y-25166443D01*
X41757011Y-25082779D01*
X41757009Y-25082778D01*
X41701242Y-25037011D01*
X41619814Y-24970186D01*
X41519525Y-24847982D01*
X41507222Y-24832991D01*
X41466685Y-24757152D01*
X41423557Y-24676467D01*
X41406384Y-24619853D01*
X41372037Y-24506627D01*
X41354641Y-24330000D01*
X41372037Y-24153373D01*
X41423557Y-23983534D01*
X41423557Y-23983533D01*
X41507221Y-23827011D01*
X41507222Y-23827009D01*
X41536552Y-23791271D01*
X41619814Y-23689814D01*
X41736910Y-23593717D01*
X41757009Y-23577222D01*
X41872300Y-23515597D01*
X41913533Y-23493557D01*
X41986019Y-23471569D01*
X42083373Y-23442037D01*
X42149557Y-23435519D01*
X42215740Y-23429000D01*
X42304260Y-23429000D01*
X42370443Y-23435519D01*
X42370443Y-23435519D01*
G37*
G36*
X61329477Y-23430165D02*
X61367164Y-23441598D01*
X61401903Y-23460166D01*
X61432348Y-23485152D01*
X61457334Y-23515597D01*
X61475902Y-23550336D01*
X61487335Y-23588023D01*
X61491800Y-23633361D01*
X61491800Y-24720039D01*
X61487335Y-24765377D01*
X61475902Y-24803064D01*
X61457334Y-24837803D01*
X61432348Y-24868248D01*
X61401903Y-24893234D01*
X61367164Y-24911802D01*
X61329477Y-24923235D01*
X61284139Y-24927700D01*
X60447461Y-24927700D01*
X60402123Y-24923235D01*
X60364436Y-24911802D01*
X60329697Y-24893234D01*
X60299252Y-24868248D01*
X60274266Y-24837803D01*
X60255698Y-24803064D01*
X60244265Y-24765377D01*
X60239800Y-24720039D01*
X60239800Y-23633361D01*
X60244265Y-23588023D01*
X60255698Y-23550336D01*
X60274266Y-23515597D01*
X60299252Y-23485152D01*
X60329697Y-23460166D01*
X60364436Y-23441598D01*
X60402123Y-23430165D01*
X60447461Y-23425700D01*
X61284139Y-23425700D01*
X61329477Y-23430165D01*
X61329477Y-23430165D01*
G37*
G36*
X59279477Y-23430165D02*
X59317164Y-23441598D01*
X59351903Y-23460166D01*
X59382348Y-23485152D01*
X59407334Y-23515597D01*
X59425902Y-23550336D01*
X59437335Y-23588023D01*
X59441800Y-23633361D01*
X59441800Y-24720039D01*
X59437335Y-24765377D01*
X59425902Y-24803064D01*
X59407334Y-24837803D01*
X59382348Y-24868248D01*
X59351903Y-24893234D01*
X59317164Y-24911802D01*
X59279477Y-24923235D01*
X59234139Y-24927700D01*
X58397461Y-24927700D01*
X58352123Y-24923235D01*
X58314436Y-24911802D01*
X58279697Y-24893234D01*
X58249252Y-24868248D01*
X58224266Y-24837803D01*
X58205698Y-24803064D01*
X58194265Y-24765377D01*
X58189800Y-24720039D01*
X58189800Y-23633361D01*
X58194265Y-23588023D01*
X58205698Y-23550336D01*
X58224266Y-23515597D01*
X58249252Y-23485152D01*
X58279697Y-23460166D01*
X58314436Y-23441598D01*
X58352123Y-23430165D01*
X58397461Y-23425700D01*
X59234139Y-23425700D01*
X59279477Y-23430165D01*
X59279477Y-23430165D01*
G37*
G36*
X25511000Y-23121000D02*
X23609000Y-23121000D01*
X23609000Y-21919000D01*
X25511000Y-21919000D01*
X25511000Y-23121000D01*
X25511000Y-23121000D01*
G37*
G36*
X29909315Y-21924166D02*
X29953845Y-21937675D01*
X29994891Y-21959614D01*
X30030864Y-21989136D01*
X30060386Y-22025109D01*
X30082325Y-22066155D01*
X30095834Y-22110685D01*
X30101000Y-22163140D01*
X30101000Y-22876860D01*
X30095834Y-22929315D01*
X30082325Y-22973845D01*
X30060386Y-23014891D01*
X30030864Y-23050864D01*
X29994891Y-23080386D01*
X29953845Y-23102325D01*
X29909315Y-23115834D01*
X29856860Y-23121000D01*
X28443140Y-23121000D01*
X28390685Y-23115834D01*
X28346155Y-23102325D01*
X28305109Y-23080386D01*
X28269136Y-23050864D01*
X28239614Y-23014891D01*
X28217675Y-22973845D01*
X28204166Y-22929315D01*
X28199000Y-22876860D01*
X28199000Y-22163140D01*
X28204166Y-22110685D01*
X28217675Y-22066155D01*
X28239614Y-22025109D01*
X28269136Y-21989136D01*
X28305109Y-21959614D01*
X28346155Y-21937675D01*
X28390685Y-21924166D01*
X28443140Y-21919000D01*
X29856860Y-21919000D01*
X29909315Y-21924166D01*
X29909315Y-21924166D01*
G37*
G36*
X54371142Y-20247618D02*
X54437327Y-20254137D01*
X54524234Y-20280500D01*
X54607167Y-20305657D01*
X54669780Y-20339125D01*
X54763691Y-20389322D01*
X54787874Y-20409169D01*
X54900886Y-20501914D01*
X54984148Y-20603371D01*
X55013478Y-20639109D01*
X55013479Y-20639111D01*
X55097143Y-20795633D01*
X55097143Y-20795634D01*
X55148663Y-20965473D01*
X55166059Y-21142100D01*
X55148663Y-21318727D01*
X55130398Y-21378938D01*
X55097143Y-21488567D01*
X55041254Y-21593127D01*
X55013478Y-21645091D01*
X54996732Y-21665496D01*
X54900886Y-21782286D01*
X54805702Y-21860400D01*
X54763691Y-21894878D01*
X54763689Y-21894879D01*
X54607167Y-21978543D01*
X54550553Y-21995716D01*
X54437327Y-22030063D01*
X54371143Y-22036581D01*
X54304960Y-22043100D01*
X54216440Y-22043100D01*
X54150258Y-22036582D01*
X54084073Y-22030063D01*
X53970847Y-21995716D01*
X53914233Y-21978543D01*
X53757711Y-21894879D01*
X53757709Y-21894878D01*
X53715698Y-21860400D01*
X53620514Y-21782286D01*
X53524668Y-21665496D01*
X53507922Y-21645091D01*
X53480146Y-21593127D01*
X53424257Y-21488567D01*
X53391002Y-21378938D01*
X53372737Y-21318727D01*
X53355341Y-21142100D01*
X53372737Y-20965473D01*
X53424257Y-20795634D01*
X53424257Y-20795633D01*
X53507921Y-20639111D01*
X53507922Y-20639109D01*
X53537252Y-20603371D01*
X53620514Y-20501914D01*
X53733526Y-20409169D01*
X53757709Y-20389322D01*
X53851620Y-20339125D01*
X53914233Y-20305657D01*
X53997166Y-20280500D01*
X54084073Y-20254137D01*
X54150258Y-20247618D01*
X54216440Y-20241100D01*
X54304960Y-20241100D01*
X54371142Y-20247618D01*
X54371142Y-20247618D01*
G37*
G36*
X50081700Y-22043100D02*
X48279700Y-22043100D01*
X48279700Y-20241100D01*
X50081700Y-20241100D01*
X50081700Y-22043100D01*
X50081700Y-22043100D01*
G37*
G36*
X51831142Y-20247618D02*
X51897327Y-20254137D01*
X51984234Y-20280500D01*
X52067167Y-20305657D01*
X52129780Y-20339125D01*
X52223691Y-20389322D01*
X52247874Y-20409169D01*
X52360886Y-20501914D01*
X52444148Y-20603371D01*
X52473478Y-20639109D01*
X52473479Y-20639111D01*
X52557143Y-20795633D01*
X52557143Y-20795634D01*
X52608663Y-20965473D01*
X52626059Y-21142100D01*
X52608663Y-21318727D01*
X52590398Y-21378938D01*
X52557143Y-21488567D01*
X52501254Y-21593127D01*
X52473478Y-21645091D01*
X52456732Y-21665496D01*
X52360886Y-21782286D01*
X52265702Y-21860400D01*
X52223691Y-21894878D01*
X52223689Y-21894879D01*
X52067167Y-21978543D01*
X52010553Y-21995716D01*
X51897327Y-22030063D01*
X51831143Y-22036581D01*
X51764960Y-22043100D01*
X51676440Y-22043100D01*
X51610258Y-22036582D01*
X51544073Y-22030063D01*
X51430847Y-21995716D01*
X51374233Y-21978543D01*
X51217711Y-21894879D01*
X51217709Y-21894878D01*
X51175698Y-21860400D01*
X51080514Y-21782286D01*
X50984668Y-21665496D01*
X50967922Y-21645091D01*
X50940146Y-21593127D01*
X50884257Y-21488567D01*
X50851002Y-21378938D01*
X50832737Y-21318727D01*
X50815341Y-21142100D01*
X50832737Y-20965473D01*
X50884257Y-20795634D01*
X50884257Y-20795633D01*
X50967921Y-20639111D01*
X50967922Y-20639109D01*
X50997252Y-20603371D01*
X51080514Y-20501914D01*
X51193526Y-20409169D01*
X51217709Y-20389322D01*
X51311620Y-20339125D01*
X51374233Y-20305657D01*
X51457166Y-20280500D01*
X51544073Y-20254137D01*
X51610258Y-20247618D01*
X51676440Y-20241100D01*
X51764960Y-20241100D01*
X51831142Y-20247618D01*
X51831142Y-20247618D01*
G37*
G36*
X45145977Y-20367765D02*
X45183664Y-20379198D01*
X45218403Y-20397766D01*
X45248848Y-20422752D01*
X45273834Y-20453197D01*
X45292402Y-20487936D01*
X45303835Y-20525623D01*
X45308300Y-20570961D01*
X45308300Y-21657639D01*
X45303835Y-21702977D01*
X45292402Y-21740664D01*
X45273834Y-21775403D01*
X45248848Y-21805848D01*
X45218403Y-21830834D01*
X45183664Y-21849402D01*
X45145977Y-21860835D01*
X45100639Y-21865300D01*
X44263961Y-21865300D01*
X44218623Y-21860835D01*
X44180936Y-21849402D01*
X44146197Y-21830834D01*
X44115752Y-21805848D01*
X44090766Y-21775403D01*
X44072198Y-21740664D01*
X44060765Y-21702977D01*
X44056300Y-21657639D01*
X44056300Y-20570961D01*
X44060765Y-20525623D01*
X44072198Y-20487936D01*
X44090766Y-20453197D01*
X44115752Y-20422752D01*
X44146197Y-20397766D01*
X44180936Y-20379198D01*
X44218623Y-20367765D01*
X44263961Y-20363300D01*
X45100639Y-20363300D01*
X45145977Y-20367765D01*
X45145977Y-20367765D01*
G37*
G36*
X43095977Y-20367765D02*
X43133664Y-20379198D01*
X43168403Y-20397766D01*
X43198848Y-20422752D01*
X43223834Y-20453197D01*
X43242402Y-20487936D01*
X43253835Y-20525623D01*
X43258300Y-20570961D01*
X43258300Y-21657639D01*
X43253835Y-21702977D01*
X43242402Y-21740664D01*
X43223834Y-21775403D01*
X43198848Y-21805848D01*
X43168403Y-21830834D01*
X43133664Y-21849402D01*
X43095977Y-21860835D01*
X43050639Y-21865300D01*
X42213961Y-21865300D01*
X42168623Y-21860835D01*
X42130936Y-21849402D01*
X42096197Y-21830834D01*
X42065752Y-21805848D01*
X42040766Y-21775403D01*
X42022198Y-21740664D01*
X42010765Y-21702977D01*
X42006300Y-21657639D01*
X42006300Y-20570961D01*
X42010765Y-20525623D01*
X42022198Y-20487936D01*
X42040766Y-20453197D01*
X42065752Y-20422752D01*
X42096197Y-20397766D01*
X42130936Y-20379198D01*
X42168623Y-20367765D01*
X42213961Y-20363300D01*
X43050639Y-20363300D01*
X43095977Y-20367765D01*
X43095977Y-20367765D01*
G37*
G36*
X61036930Y-20064218D02*
X61110227Y-20071437D01*
X61214118Y-20102952D01*
X61280067Y-20122957D01*
X61418687Y-20197052D01*
X61436591Y-20206622D01*
X61449206Y-20216975D01*
X61573786Y-20319214D01*
X61631320Y-20389321D01*
X61686378Y-20456409D01*
X61686379Y-20456411D01*
X61770043Y-20612933D01*
X61782551Y-20654166D01*
X61821563Y-20782773D01*
X61838959Y-20959400D01*
X61821563Y-21136027D01*
X61793746Y-21227727D01*
X61770043Y-21305867D01*
X61763170Y-21318725D01*
X61686378Y-21462391D01*
X61664896Y-21488567D01*
X61573786Y-21599586D01*
X61493473Y-21665496D01*
X61436591Y-21712178D01*
X61436589Y-21712179D01*
X61280067Y-21795843D01*
X61247084Y-21805848D01*
X61110227Y-21847363D01*
X61044042Y-21853882D01*
X60977860Y-21860400D01*
X60889340Y-21860400D01*
X60823158Y-21853882D01*
X60756973Y-21847363D01*
X60620116Y-21805848D01*
X60587133Y-21795843D01*
X60430611Y-21712179D01*
X60430609Y-21712178D01*
X60373727Y-21665496D01*
X60293414Y-21599586D01*
X60202304Y-21488567D01*
X60180822Y-21462391D01*
X60104030Y-21318725D01*
X60097157Y-21305867D01*
X60073454Y-21227727D01*
X60045637Y-21136027D01*
X60028241Y-20959400D01*
X60045637Y-20782773D01*
X60084649Y-20654166D01*
X60097157Y-20612933D01*
X60180821Y-20456411D01*
X60180822Y-20456409D01*
X60235880Y-20389321D01*
X60293414Y-20319214D01*
X60417994Y-20216975D01*
X60430609Y-20206622D01*
X60448513Y-20197052D01*
X60587133Y-20122957D01*
X60653082Y-20102952D01*
X60756973Y-20071437D01*
X60830270Y-20064218D01*
X60889340Y-20058400D01*
X60977860Y-20058400D01*
X61036930Y-20064218D01*
X61036930Y-20064218D01*
G37*
G36*
X59294600Y-21860400D02*
X57492600Y-21860400D01*
X57492600Y-20058400D01*
X59294600Y-20058400D01*
X59294600Y-21860400D01*
X59294600Y-21860400D01*
G37*
G36*
X31979315Y-20654166D02*
X32023845Y-20667675D01*
X32064891Y-20689614D01*
X32100864Y-20719136D01*
X32130386Y-20755109D01*
X32152325Y-20796155D01*
X32165834Y-20840685D01*
X32171000Y-20893140D01*
X32171000Y-21606860D01*
X32165834Y-21659315D01*
X32152325Y-21703845D01*
X32130386Y-21744891D01*
X32100864Y-21780864D01*
X32064891Y-21810386D01*
X32023845Y-21832325D01*
X31979315Y-21845834D01*
X31926860Y-21851000D01*
X30513140Y-21851000D01*
X30460685Y-21845834D01*
X30416155Y-21832325D01*
X30375109Y-21810386D01*
X30339136Y-21780864D01*
X30309614Y-21744891D01*
X30287675Y-21703845D01*
X30274166Y-21659315D01*
X30269000Y-21606860D01*
X30269000Y-20893140D01*
X30274166Y-20840685D01*
X30287674Y-20796158D01*
X30304368Y-20764926D01*
X30309614Y-20752261D01*
X30314388Y-20748343D01*
X30322628Y-20739253D01*
X30339139Y-20719133D01*
X30375109Y-20689614D01*
X30416155Y-20667675D01*
X30460685Y-20654166D01*
X30513140Y-20649000D01*
X31926860Y-20649000D01*
X31979315Y-20654166D01*
X31979315Y-20654166D01*
G37*
G36*
X23249315Y-20654166D02*
X23293845Y-20667675D01*
X23334891Y-20689614D01*
X23370864Y-20719136D01*
X23400386Y-20755109D01*
X23422325Y-20796155D01*
X23435834Y-20840685D01*
X23441000Y-20893140D01*
X23441000Y-21606860D01*
X23435834Y-21659315D01*
X23422326Y-21703842D01*
X23405632Y-21735074D01*
X23400386Y-21747739D01*
X23395612Y-21751657D01*
X23387372Y-21760747D01*
X23370861Y-21780867D01*
X23334891Y-21810386D01*
X23293845Y-21832325D01*
X23249315Y-21845834D01*
X23196860Y-21851000D01*
X21783140Y-21851000D01*
X21730685Y-21845834D01*
X21686155Y-21832325D01*
X21645109Y-21810386D01*
X21609136Y-21780864D01*
X21579614Y-21744891D01*
X21557675Y-21703845D01*
X21544166Y-21659315D01*
X21539000Y-21606860D01*
X21539000Y-20893140D01*
X21544166Y-20840685D01*
X21557675Y-20796155D01*
X21579614Y-20755109D01*
X21609136Y-20719136D01*
X21645109Y-20689614D01*
X21686155Y-20667675D01*
X21730685Y-20654166D01*
X21783140Y-20649000D01*
X23196860Y-20649000D01*
X23249315Y-20654166D01*
X23249315Y-20654166D01*
G37*
G36*
X34348677Y-20047965D02*
X34386364Y-20059398D01*
X34421103Y-20077966D01*
X34451548Y-20102952D01*
X34476534Y-20133397D01*
X34495102Y-20168136D01*
X34506535Y-20205823D01*
X34511000Y-20251161D01*
X34511000Y-21337839D01*
X34506535Y-21383177D01*
X34495102Y-21420864D01*
X34476534Y-21455603D01*
X34451548Y-21486048D01*
X34421103Y-21511034D01*
X34386364Y-21529602D01*
X34348677Y-21541035D01*
X34303339Y-21545500D01*
X33466661Y-21545500D01*
X33421323Y-21541035D01*
X33383636Y-21529602D01*
X33348897Y-21511034D01*
X33318452Y-21486048D01*
X33293466Y-21455603D01*
X33274898Y-21420864D01*
X33263465Y-21383177D01*
X33259000Y-21337839D01*
X33259000Y-20251161D01*
X33263465Y-20205823D01*
X33274898Y-20168136D01*
X33293466Y-20133397D01*
X33318452Y-20102952D01*
X33348897Y-20077966D01*
X33383636Y-20059398D01*
X33421323Y-20047965D01*
X33466661Y-20043500D01*
X34303339Y-20043500D01*
X34348677Y-20047965D01*
X34348677Y-20047965D01*
G37*
G36*
X36398677Y-20047965D02*
X36436364Y-20059398D01*
X36471103Y-20077966D01*
X36501548Y-20102952D01*
X36526534Y-20133397D01*
X36545102Y-20168136D01*
X36556535Y-20205823D01*
X36561000Y-20251161D01*
X36561000Y-21337839D01*
X36556535Y-21383177D01*
X36545102Y-21420864D01*
X36526534Y-21455603D01*
X36501548Y-21486048D01*
X36471103Y-21511034D01*
X36436364Y-21529602D01*
X36398677Y-21541035D01*
X36353339Y-21545500D01*
X35516661Y-21545500D01*
X35471323Y-21541035D01*
X35433636Y-21529602D01*
X35398897Y-21511034D01*
X35368452Y-21486048D01*
X35343466Y-21455603D01*
X35324898Y-21420864D01*
X35313465Y-21383177D01*
X35309000Y-21337839D01*
X35309000Y-20251161D01*
X35313465Y-20205823D01*
X35324898Y-20168136D01*
X35343466Y-20133397D01*
X35368452Y-20102952D01*
X35398897Y-20077966D01*
X35433636Y-20059398D01*
X35471323Y-20047965D01*
X35516661Y-20043500D01*
X36353339Y-20043500D01*
X36398677Y-20047965D01*
X36398677Y-20047965D01*
G37*
G36*
X40749977Y-20002365D02*
X40787664Y-20013798D01*
X40822403Y-20032366D01*
X40852848Y-20057352D01*
X40877834Y-20087797D01*
X40896402Y-20122536D01*
X40907835Y-20160223D01*
X40912300Y-20205561D01*
X40912300Y-21292239D01*
X40907835Y-21337577D01*
X40896402Y-21375264D01*
X40877834Y-21410003D01*
X40852848Y-21440448D01*
X40822403Y-21465434D01*
X40787664Y-21484002D01*
X40749977Y-21495435D01*
X40704639Y-21499900D01*
X39867961Y-21499900D01*
X39822623Y-21495435D01*
X39784936Y-21484002D01*
X39750197Y-21465434D01*
X39719752Y-21440448D01*
X39694766Y-21410003D01*
X39676198Y-21375264D01*
X39664765Y-21337577D01*
X39660300Y-21292239D01*
X39660300Y-20205561D01*
X39664765Y-20160223D01*
X39676198Y-20122536D01*
X39694766Y-20087797D01*
X39719752Y-20057352D01*
X39750197Y-20032366D01*
X39784936Y-20013798D01*
X39822623Y-20002365D01*
X39867961Y-19997900D01*
X40704639Y-19997900D01*
X40749977Y-20002365D01*
X40749977Y-20002365D01*
G37*
G36*
X38699977Y-20002365D02*
X38737664Y-20013798D01*
X38772403Y-20032366D01*
X38802848Y-20057352D01*
X38827834Y-20087797D01*
X38846402Y-20122536D01*
X38857835Y-20160223D01*
X38862300Y-20205561D01*
X38862300Y-21292239D01*
X38857835Y-21337577D01*
X38846402Y-21375264D01*
X38827834Y-21410003D01*
X38802848Y-21440448D01*
X38772403Y-21465434D01*
X38737664Y-21484002D01*
X38699977Y-21495435D01*
X38654639Y-21499900D01*
X37817961Y-21499900D01*
X37772623Y-21495435D01*
X37734936Y-21484002D01*
X37700197Y-21465434D01*
X37669752Y-21440448D01*
X37644766Y-21410003D01*
X37626198Y-21375264D01*
X37614765Y-21337577D01*
X37610300Y-21292239D01*
X37610300Y-20205561D01*
X37614765Y-20160223D01*
X37626198Y-20122536D01*
X37644766Y-20087797D01*
X37669752Y-20057352D01*
X37700197Y-20032366D01*
X37734936Y-20013798D01*
X37772623Y-20002365D01*
X37817961Y-19997900D01*
X38654639Y-19997900D01*
X38699977Y-20002365D01*
X38699977Y-20002365D01*
G37*
G36*
X25319315Y-19384166D02*
X25363845Y-19397675D01*
X25404891Y-19419614D01*
X25440864Y-19449136D01*
X25470386Y-19485109D01*
X25492325Y-19526155D01*
X25505834Y-19570685D01*
X25511000Y-19623140D01*
X25511000Y-20336860D01*
X25505834Y-20389315D01*
X25492325Y-20433845D01*
X25470386Y-20474891D01*
X25440864Y-20510864D01*
X25404891Y-20540386D01*
X25363845Y-20562325D01*
X25319315Y-20575834D01*
X25266860Y-20581000D01*
X23853140Y-20581000D01*
X23800685Y-20575834D01*
X23756155Y-20562325D01*
X23715109Y-20540386D01*
X23679136Y-20510864D01*
X23649614Y-20474891D01*
X23627675Y-20433845D01*
X23614166Y-20389315D01*
X23609000Y-20336860D01*
X23609000Y-19623140D01*
X23614166Y-19570685D01*
X23627675Y-19526155D01*
X23649614Y-19485109D01*
X23679136Y-19449136D01*
X23715109Y-19419614D01*
X23756155Y-19397675D01*
X23800685Y-19384166D01*
X23853140Y-19379000D01*
X25266860Y-19379000D01*
X25319315Y-19384166D01*
X25319315Y-19384166D01*
G37*
G36*
X30101000Y-20581000D02*
X28199000Y-20581000D01*
X28199000Y-19379000D01*
X30101000Y-19379000D01*
X30101000Y-20581000D01*
X30101000Y-20581000D01*
G37*
M02*
