G04 #@! TF.GenerationSoftware,KiCad,Pcbnew,5.0.1*
G04 #@! TF.CreationDate,2019-02-11T11:48:54+08:00*
G04 #@! TF.ProjectId,lab,6C61622E6B696361645F706362000000,rev?*
G04 #@! TF.SameCoordinates,Original*
G04 #@! TF.FileFunction,Soldermask,Bot*
G04 #@! TF.FilePolarity,Negative*
%FSLAX46Y46*%
G04 Gerber Fmt 4.6, Leading zero omitted, Abs format (unit mm)*
G04 Created by KiCad (PCBNEW 5.0.1) date Mon 11 Feb 2019 11:48:54 AM +08*
%MOMM*%
%LPD*%
G01*
G04 APERTURE LIST*
%ADD10C,0.100000*%
G04 APERTURE END LIST*
D10*
G36*
X49377742Y-46056418D02*
X49443927Y-46062937D01*
X49527208Y-46088200D01*
X49613767Y-46114457D01*
X49752387Y-46188552D01*
X49770291Y-46198122D01*
X49806029Y-46227452D01*
X49907486Y-46310714D01*
X49990748Y-46412171D01*
X50020078Y-46447909D01*
X50020079Y-46447911D01*
X50103743Y-46604433D01*
X50103743Y-46604434D01*
X50155263Y-46774273D01*
X50172659Y-46950900D01*
X50155263Y-47127527D01*
X50147175Y-47154188D01*
X50103743Y-47297367D01*
X50093725Y-47316109D01*
X50020078Y-47453891D01*
X49990748Y-47489629D01*
X49907486Y-47591086D01*
X49806029Y-47674348D01*
X49770291Y-47703678D01*
X49770289Y-47703679D01*
X49613767Y-47787343D01*
X49557153Y-47804516D01*
X49443927Y-47838863D01*
X49377742Y-47845382D01*
X49311560Y-47851900D01*
X49223040Y-47851900D01*
X49156858Y-47845382D01*
X49090673Y-47838863D01*
X48977447Y-47804516D01*
X48920833Y-47787343D01*
X48764311Y-47703679D01*
X48764309Y-47703678D01*
X48728571Y-47674348D01*
X48627114Y-47591086D01*
X48543852Y-47489629D01*
X48514522Y-47453891D01*
X48440875Y-47316109D01*
X48430857Y-47297367D01*
X48387425Y-47154188D01*
X48379337Y-47127527D01*
X48361941Y-46950900D01*
X48379337Y-46774273D01*
X48430857Y-46604434D01*
X48430857Y-46604433D01*
X48514521Y-46447911D01*
X48514522Y-46447909D01*
X48543852Y-46412171D01*
X48627114Y-46310714D01*
X48728571Y-46227452D01*
X48764309Y-46198122D01*
X48782213Y-46188552D01*
X48920833Y-46114457D01*
X49007392Y-46088200D01*
X49090673Y-46062937D01*
X49156858Y-46056418D01*
X49223040Y-46049900D01*
X49311560Y-46049900D01*
X49377742Y-46056418D01*
X49377742Y-46056418D01*
G37*
G36*
X55308790Y-46113217D02*
X55427261Y-46162289D01*
X55533892Y-46233538D01*
X55624562Y-46324208D01*
X55695811Y-46430839D01*
X55727415Y-46507139D01*
X55738966Y-46528750D01*
X55754511Y-46547692D01*
X55773453Y-46563237D01*
X55795064Y-46574789D01*
X55818513Y-46581902D01*
X55842899Y-46584304D01*
X55867286Y-46581902D01*
X55890735Y-46574789D01*
X55912346Y-46563238D01*
X55931288Y-46547693D01*
X55946833Y-46528751D01*
X55958385Y-46507140D01*
X55965498Y-46483691D01*
X55967900Y-46459304D01*
X55967900Y-46088200D01*
X57269900Y-46088200D01*
X57269900Y-47390200D01*
X55967900Y-47390200D01*
X55967900Y-47019096D01*
X55965498Y-46994710D01*
X55958385Y-46971261D01*
X55946834Y-46949650D01*
X55931288Y-46930708D01*
X55912346Y-46915162D01*
X55890735Y-46903611D01*
X55867286Y-46896498D01*
X55842900Y-46894096D01*
X55818514Y-46896498D01*
X55795065Y-46903611D01*
X55773454Y-46915162D01*
X55754512Y-46930708D01*
X55738966Y-46949650D01*
X55727415Y-46971261D01*
X55695811Y-47047561D01*
X55695809Y-47047564D01*
X55642381Y-47127525D01*
X55624562Y-47154192D01*
X55533892Y-47244862D01*
X55427261Y-47316111D01*
X55308790Y-47365183D01*
X55183019Y-47390200D01*
X55054781Y-47390200D01*
X54929010Y-47365183D01*
X54810539Y-47316111D01*
X54703908Y-47244862D01*
X54613238Y-47154192D01*
X54595420Y-47127525D01*
X54541991Y-47047564D01*
X54541989Y-47047561D01*
X54492917Y-46929090D01*
X54467900Y-46803319D01*
X54467900Y-46675081D01*
X54492917Y-46549310D01*
X54541989Y-46430839D01*
X54613238Y-46324208D01*
X54703908Y-46233538D01*
X54810539Y-46162289D01*
X54929010Y-46113217D01*
X55054781Y-46088200D01*
X55183019Y-46088200D01*
X55308790Y-46113217D01*
X55308790Y-46113217D01*
G37*
G36*
X50168300Y-45311900D02*
X48366300Y-45311900D01*
X48366300Y-43509900D01*
X50168300Y-43509900D01*
X50168300Y-45311900D01*
X50168300Y-45311900D01*
G37*
G36*
X32456821Y-42411313D02*
X32456824Y-42411314D01*
X32456825Y-42411314D01*
X32617239Y-42459975D01*
X32617241Y-42459976D01*
X32617244Y-42459977D01*
X32765078Y-42538995D01*
X32894659Y-42645341D01*
X33001005Y-42774922D01*
X33080023Y-42922756D01*
X33080024Y-42922759D01*
X33080025Y-42922761D01*
X33128686Y-43083175D01*
X33128686Y-43083178D01*
X33128687Y-43083180D01*
X33141000Y-43208197D01*
X33141000Y-44091804D01*
X33128687Y-44216821D01*
X33080023Y-44377244D01*
X33001005Y-44525078D01*
X32894659Y-44654659D01*
X32765078Y-44761005D01*
X32617243Y-44840023D01*
X32617240Y-44840024D01*
X32617238Y-44840025D01*
X32456824Y-44888686D01*
X32456823Y-44888686D01*
X32456820Y-44888687D01*
X32290000Y-44905117D01*
X32123179Y-44888687D01*
X32123176Y-44888686D01*
X32123175Y-44888686D01*
X31962761Y-44840025D01*
X31962759Y-44840024D01*
X31962756Y-44840023D01*
X31814922Y-44761005D01*
X31685341Y-44654659D01*
X31578995Y-44525078D01*
X31499977Y-44377243D01*
X31451315Y-44216825D01*
X31451314Y-44216824D01*
X31451314Y-44216823D01*
X31451313Y-44216820D01*
X31439000Y-44091803D01*
X31439000Y-43208197D01*
X31451314Y-43083179D01*
X31499978Y-42922756D01*
X31578996Y-42774922D01*
X31685342Y-42645341D01*
X31814923Y-42538995D01*
X31962757Y-42459977D01*
X31962760Y-42459976D01*
X31962762Y-42459975D01*
X32123176Y-42411314D01*
X32123177Y-42411314D01*
X32123180Y-42411313D01*
X32290000Y-42394883D01*
X32456821Y-42411313D01*
X32456821Y-42411313D01*
G37*
G36*
X29916821Y-42411313D02*
X29916824Y-42411314D01*
X29916825Y-42411314D01*
X30077239Y-42459975D01*
X30077241Y-42459976D01*
X30077244Y-42459977D01*
X30225078Y-42538995D01*
X30354659Y-42645341D01*
X30461005Y-42774922D01*
X30540023Y-42922756D01*
X30540024Y-42922759D01*
X30540025Y-42922761D01*
X30588686Y-43083175D01*
X30588686Y-43083178D01*
X30588687Y-43083180D01*
X30601000Y-43208197D01*
X30601000Y-44091804D01*
X30588687Y-44216821D01*
X30540023Y-44377244D01*
X30461005Y-44525078D01*
X30354659Y-44654659D01*
X30225078Y-44761005D01*
X30077243Y-44840023D01*
X30077240Y-44840024D01*
X30077238Y-44840025D01*
X29916824Y-44888686D01*
X29916823Y-44888686D01*
X29916820Y-44888687D01*
X29750000Y-44905117D01*
X29583179Y-44888687D01*
X29583176Y-44888686D01*
X29583175Y-44888686D01*
X29422761Y-44840025D01*
X29422759Y-44840024D01*
X29422756Y-44840023D01*
X29274922Y-44761005D01*
X29145341Y-44654659D01*
X29038995Y-44525078D01*
X28959977Y-44377243D01*
X28911315Y-44216825D01*
X28911314Y-44216824D01*
X28911314Y-44216823D01*
X28911313Y-44216820D01*
X28899000Y-44091803D01*
X28899000Y-43208197D01*
X28911314Y-43083179D01*
X28959978Y-42922756D01*
X29038996Y-42774922D01*
X29145342Y-42645341D01*
X29274923Y-42538995D01*
X29422757Y-42459977D01*
X29422760Y-42459976D01*
X29422762Y-42459975D01*
X29583176Y-42411314D01*
X29583177Y-42411314D01*
X29583180Y-42411313D01*
X29750000Y-42394883D01*
X29916821Y-42411313D01*
X29916821Y-42411313D01*
G37*
G36*
X34996821Y-42411313D02*
X34996824Y-42411314D01*
X34996825Y-42411314D01*
X35157239Y-42459975D01*
X35157241Y-42459976D01*
X35157244Y-42459977D01*
X35305078Y-42538995D01*
X35434659Y-42645341D01*
X35541005Y-42774922D01*
X35620023Y-42922756D01*
X35620024Y-42922759D01*
X35620025Y-42922761D01*
X35668686Y-43083175D01*
X35668686Y-43083178D01*
X35668687Y-43083180D01*
X35681000Y-43208197D01*
X35681000Y-44091804D01*
X35668687Y-44216821D01*
X35620023Y-44377244D01*
X35541005Y-44525078D01*
X35434659Y-44654659D01*
X35305078Y-44761005D01*
X35157243Y-44840023D01*
X35157240Y-44840024D01*
X35157238Y-44840025D01*
X34996824Y-44888686D01*
X34996823Y-44888686D01*
X34996820Y-44888687D01*
X34830000Y-44905117D01*
X34663179Y-44888687D01*
X34663176Y-44888686D01*
X34663175Y-44888686D01*
X34502761Y-44840025D01*
X34502759Y-44840024D01*
X34502756Y-44840023D01*
X34354922Y-44761005D01*
X34225341Y-44654659D01*
X34118995Y-44525078D01*
X34039977Y-44377243D01*
X33991315Y-44216825D01*
X33991314Y-44216824D01*
X33991314Y-44216823D01*
X33991313Y-44216820D01*
X33979000Y-44091803D01*
X33979000Y-43208197D01*
X33991314Y-43083179D01*
X34039978Y-42922756D01*
X34118996Y-42774922D01*
X34225342Y-42645341D01*
X34354923Y-42538995D01*
X34502757Y-42459977D01*
X34502760Y-42459976D01*
X34502762Y-42459975D01*
X34663176Y-42411314D01*
X34663177Y-42411314D01*
X34663180Y-42411313D01*
X34830000Y-42394883D01*
X34996821Y-42411313D01*
X34996821Y-42411313D01*
G37*
G36*
X37536821Y-42411313D02*
X37536824Y-42411314D01*
X37536825Y-42411314D01*
X37697239Y-42459975D01*
X37697241Y-42459976D01*
X37697244Y-42459977D01*
X37845078Y-42538995D01*
X37974659Y-42645341D01*
X38081005Y-42774922D01*
X38160023Y-42922756D01*
X38160024Y-42922759D01*
X38160025Y-42922761D01*
X38208686Y-43083175D01*
X38208686Y-43083178D01*
X38208687Y-43083180D01*
X38221000Y-43208197D01*
X38221000Y-44091804D01*
X38208687Y-44216821D01*
X38160023Y-44377244D01*
X38081005Y-44525078D01*
X37974659Y-44654659D01*
X37845078Y-44761005D01*
X37697243Y-44840023D01*
X37697240Y-44840024D01*
X37697238Y-44840025D01*
X37536824Y-44888686D01*
X37536823Y-44888686D01*
X37536820Y-44888687D01*
X37370000Y-44905117D01*
X37203179Y-44888687D01*
X37203176Y-44888686D01*
X37203175Y-44888686D01*
X37042761Y-44840025D01*
X37042759Y-44840024D01*
X37042756Y-44840023D01*
X36894922Y-44761005D01*
X36765341Y-44654659D01*
X36658995Y-44525078D01*
X36579977Y-44377243D01*
X36531315Y-44216825D01*
X36531314Y-44216824D01*
X36531314Y-44216823D01*
X36531313Y-44216820D01*
X36519000Y-44091803D01*
X36519000Y-43208197D01*
X36531314Y-43083179D01*
X36579978Y-42922756D01*
X36658996Y-42774922D01*
X36765342Y-42645341D01*
X36894923Y-42538995D01*
X37042757Y-42459977D01*
X37042760Y-42459976D01*
X37042762Y-42459975D01*
X37203176Y-42411314D01*
X37203177Y-42411314D01*
X37203180Y-42411313D01*
X37370000Y-42394883D01*
X37536821Y-42411313D01*
X37536821Y-42411313D01*
G37*
G36*
X40076821Y-42411313D02*
X40076824Y-42411314D01*
X40076825Y-42411314D01*
X40237239Y-42459975D01*
X40237241Y-42459976D01*
X40237244Y-42459977D01*
X40385078Y-42538995D01*
X40514659Y-42645341D01*
X40621005Y-42774922D01*
X40700023Y-42922756D01*
X40700024Y-42922759D01*
X40700025Y-42922761D01*
X40748686Y-43083175D01*
X40748686Y-43083178D01*
X40748687Y-43083180D01*
X40761000Y-43208197D01*
X40761000Y-44091804D01*
X40748687Y-44216821D01*
X40700023Y-44377244D01*
X40621005Y-44525078D01*
X40514659Y-44654659D01*
X40385078Y-44761005D01*
X40237243Y-44840023D01*
X40237240Y-44840024D01*
X40237238Y-44840025D01*
X40076824Y-44888686D01*
X40076823Y-44888686D01*
X40076820Y-44888687D01*
X39910000Y-44905117D01*
X39743179Y-44888687D01*
X39743176Y-44888686D01*
X39743175Y-44888686D01*
X39582761Y-44840025D01*
X39582759Y-44840024D01*
X39582756Y-44840023D01*
X39434922Y-44761005D01*
X39305341Y-44654659D01*
X39198995Y-44525078D01*
X39119977Y-44377243D01*
X39071315Y-44216825D01*
X39071314Y-44216824D01*
X39071314Y-44216823D01*
X39071313Y-44216820D01*
X39059000Y-44091803D01*
X39059000Y-43208197D01*
X39071314Y-43083179D01*
X39119978Y-42922756D01*
X39198996Y-42774922D01*
X39305342Y-42645341D01*
X39434923Y-42538995D01*
X39582757Y-42459977D01*
X39582760Y-42459976D01*
X39582762Y-42459975D01*
X39743176Y-42411314D01*
X39743177Y-42411314D01*
X39743180Y-42411313D01*
X39910000Y-42394883D01*
X40076821Y-42411313D01*
X40076821Y-42411313D01*
G37*
G36*
X42616821Y-42411313D02*
X42616824Y-42411314D01*
X42616825Y-42411314D01*
X42777239Y-42459975D01*
X42777241Y-42459976D01*
X42777244Y-42459977D01*
X42925078Y-42538995D01*
X43054659Y-42645341D01*
X43161005Y-42774922D01*
X43240023Y-42922756D01*
X43240024Y-42922759D01*
X43240025Y-42922761D01*
X43288686Y-43083175D01*
X43288686Y-43083178D01*
X43288687Y-43083180D01*
X43301000Y-43208197D01*
X43301000Y-44091804D01*
X43288687Y-44216821D01*
X43240023Y-44377244D01*
X43161005Y-44525078D01*
X43054659Y-44654659D01*
X42925078Y-44761005D01*
X42777243Y-44840023D01*
X42777240Y-44840024D01*
X42777238Y-44840025D01*
X42616824Y-44888686D01*
X42616823Y-44888686D01*
X42616820Y-44888687D01*
X42450000Y-44905117D01*
X42283179Y-44888687D01*
X42283176Y-44888686D01*
X42283175Y-44888686D01*
X42122761Y-44840025D01*
X42122759Y-44840024D01*
X42122756Y-44840023D01*
X41974922Y-44761005D01*
X41845341Y-44654659D01*
X41738995Y-44525078D01*
X41659977Y-44377243D01*
X41611315Y-44216825D01*
X41611314Y-44216824D01*
X41611314Y-44216823D01*
X41611313Y-44216820D01*
X41599000Y-44091803D01*
X41599000Y-43208197D01*
X41611314Y-43083179D01*
X41659978Y-42922756D01*
X41738996Y-42774922D01*
X41845342Y-42645341D01*
X41974923Y-42538995D01*
X42122757Y-42459977D01*
X42122760Y-42459976D01*
X42122762Y-42459975D01*
X42283176Y-42411314D01*
X42283177Y-42411314D01*
X42283180Y-42411313D01*
X42450000Y-42394883D01*
X42616821Y-42411313D01*
X42616821Y-42411313D01*
G37*
G36*
X45156821Y-42411313D02*
X45156824Y-42411314D01*
X45156825Y-42411314D01*
X45317239Y-42459975D01*
X45317241Y-42459976D01*
X45317244Y-42459977D01*
X45465078Y-42538995D01*
X45594659Y-42645341D01*
X45701005Y-42774922D01*
X45780023Y-42922756D01*
X45780024Y-42922759D01*
X45780025Y-42922761D01*
X45828686Y-43083175D01*
X45828686Y-43083178D01*
X45828687Y-43083180D01*
X45841000Y-43208197D01*
X45841000Y-44091804D01*
X45828687Y-44216821D01*
X45780023Y-44377244D01*
X45701005Y-44525078D01*
X45594659Y-44654659D01*
X45465078Y-44761005D01*
X45317243Y-44840023D01*
X45317240Y-44840024D01*
X45317238Y-44840025D01*
X45156824Y-44888686D01*
X45156823Y-44888686D01*
X45156820Y-44888687D01*
X44990000Y-44905117D01*
X44823179Y-44888687D01*
X44823176Y-44888686D01*
X44823175Y-44888686D01*
X44662761Y-44840025D01*
X44662759Y-44840024D01*
X44662756Y-44840023D01*
X44514922Y-44761005D01*
X44385341Y-44654659D01*
X44278995Y-44525078D01*
X44199977Y-44377243D01*
X44151315Y-44216825D01*
X44151314Y-44216824D01*
X44151314Y-44216823D01*
X44151313Y-44216820D01*
X44139000Y-44091803D01*
X44139000Y-43208197D01*
X44151314Y-43083179D01*
X44199978Y-42922756D01*
X44278996Y-42774922D01*
X44385342Y-42645341D01*
X44514923Y-42538995D01*
X44662757Y-42459977D01*
X44662760Y-42459976D01*
X44662762Y-42459975D01*
X44823176Y-42411314D01*
X44823177Y-42411314D01*
X44823180Y-42411313D01*
X44990000Y-42394883D01*
X45156821Y-42411313D01*
X45156821Y-42411313D01*
G37*
G36*
X56811915Y-42063066D02*
X56856445Y-42076575D01*
X56897491Y-42098514D01*
X56933464Y-42128036D01*
X56962986Y-42164009D01*
X56984925Y-42205055D01*
X56998434Y-42249585D01*
X57003600Y-42302040D01*
X57003600Y-43015760D01*
X56998434Y-43068215D01*
X56984925Y-43112745D01*
X56962986Y-43153791D01*
X56933464Y-43189764D01*
X56897491Y-43219286D01*
X56856445Y-43241225D01*
X56811915Y-43254734D01*
X56759460Y-43259900D01*
X55345740Y-43259900D01*
X55293285Y-43254734D01*
X55248755Y-43241225D01*
X55207709Y-43219286D01*
X55171736Y-43189764D01*
X55142214Y-43153791D01*
X55120275Y-43112745D01*
X55106766Y-43068215D01*
X55101600Y-43015760D01*
X55101600Y-42302040D01*
X55106766Y-42249585D01*
X55120275Y-42205055D01*
X55142214Y-42164009D01*
X55171736Y-42128036D01*
X55207709Y-42098514D01*
X55248755Y-42076575D01*
X55293285Y-42063066D01*
X55345740Y-42057900D01*
X56759460Y-42057900D01*
X56811915Y-42063066D01*
X56811915Y-42063066D01*
G37*
G36*
X58881915Y-40793066D02*
X58926445Y-40806575D01*
X58967491Y-40828514D01*
X59003464Y-40858036D01*
X59032986Y-40894009D01*
X59054925Y-40935055D01*
X59068434Y-40979585D01*
X59073600Y-41032040D01*
X59073600Y-41745760D01*
X59068434Y-41798215D01*
X59054925Y-41842745D01*
X59032986Y-41883791D01*
X59003464Y-41919764D01*
X58967491Y-41949286D01*
X58926445Y-41971225D01*
X58881915Y-41984734D01*
X58829460Y-41989900D01*
X57415740Y-41989900D01*
X57363285Y-41984734D01*
X57318755Y-41971225D01*
X57277709Y-41949286D01*
X57241736Y-41919764D01*
X57212214Y-41883791D01*
X57190275Y-41842745D01*
X57176766Y-41798215D01*
X57171600Y-41745760D01*
X57171600Y-41032040D01*
X57176766Y-40979585D01*
X57190274Y-40935058D01*
X57206968Y-40903826D01*
X57212214Y-40891161D01*
X57216988Y-40887243D01*
X57225228Y-40878153D01*
X57241739Y-40858033D01*
X57277709Y-40828514D01*
X57318755Y-40806575D01*
X57363285Y-40793066D01*
X57415740Y-40787900D01*
X58829460Y-40787900D01*
X58881915Y-40793066D01*
X58881915Y-40793066D01*
G37*
G36*
X63075600Y-40887000D02*
X61273600Y-40887000D01*
X61273600Y-39085000D01*
X63075600Y-39085000D01*
X63075600Y-40887000D01*
X63075600Y-40887000D01*
G37*
G36*
X57003600Y-40719900D02*
X55101600Y-40719900D01*
X55101600Y-39517900D01*
X57003600Y-39517900D01*
X57003600Y-40719900D01*
X57003600Y-40719900D01*
G37*
G36*
X22895589Y-38098876D02*
X22994893Y-38118629D01*
X23135206Y-38176748D01*
X23261484Y-38261125D01*
X23368875Y-38368516D01*
X23453252Y-38494794D01*
X23511371Y-38635107D01*
X23541000Y-38784063D01*
X23541000Y-38935937D01*
X23511371Y-39084893D01*
X23453252Y-39225206D01*
X23368875Y-39351484D01*
X23261484Y-39458875D01*
X23135206Y-39543252D01*
X22994893Y-39601371D01*
X22895589Y-39621124D01*
X22845938Y-39631000D01*
X22694062Y-39631000D01*
X22644411Y-39621124D01*
X22545107Y-39601371D01*
X22404794Y-39543252D01*
X22278516Y-39458875D01*
X22171125Y-39351484D01*
X22086748Y-39225206D01*
X22028629Y-39084893D01*
X21999000Y-38935937D01*
X21999000Y-38784063D01*
X22028629Y-38635107D01*
X22086748Y-38494794D01*
X22171125Y-38368516D01*
X22278516Y-38261125D01*
X22404794Y-38176748D01*
X22545107Y-38118629D01*
X22644411Y-38098876D01*
X22694062Y-38089000D01*
X22845938Y-38089000D01*
X22895589Y-38098876D01*
X22895589Y-38098876D01*
G37*
G36*
X62285042Y-36551518D02*
X62351227Y-36558037D01*
X62464453Y-36592384D01*
X62521067Y-36609557D01*
X62659687Y-36683652D01*
X62677591Y-36693222D01*
X62713329Y-36722552D01*
X62814786Y-36805814D01*
X62896248Y-36905077D01*
X62927378Y-36943009D01*
X62927379Y-36943011D01*
X63011043Y-37099533D01*
X63011043Y-37099534D01*
X63062563Y-37269373D01*
X63079959Y-37446000D01*
X63062563Y-37622627D01*
X63028216Y-37735853D01*
X63011043Y-37792467D01*
X62936948Y-37931087D01*
X62927378Y-37948991D01*
X62898048Y-37984729D01*
X62814786Y-38086186D01*
X62713329Y-38169448D01*
X62677591Y-38198778D01*
X62677589Y-38198779D01*
X62521067Y-38282443D01*
X62464453Y-38299616D01*
X62351227Y-38333963D01*
X62285042Y-38340482D01*
X62218860Y-38347000D01*
X62130340Y-38347000D01*
X62064158Y-38340482D01*
X61997973Y-38333963D01*
X61884747Y-38299616D01*
X61828133Y-38282443D01*
X61671611Y-38198779D01*
X61671609Y-38198778D01*
X61635871Y-38169448D01*
X61534414Y-38086186D01*
X61451152Y-37984729D01*
X61421822Y-37948991D01*
X61412252Y-37931087D01*
X61338157Y-37792467D01*
X61320984Y-37735853D01*
X61286637Y-37622627D01*
X61269241Y-37446000D01*
X61286637Y-37269373D01*
X61338157Y-37099534D01*
X61338157Y-37099533D01*
X61421821Y-36943011D01*
X61421822Y-36943009D01*
X61452952Y-36905077D01*
X61534414Y-36805814D01*
X61635871Y-36722552D01*
X61671609Y-36693222D01*
X61689513Y-36683652D01*
X61828133Y-36609557D01*
X61884747Y-36592384D01*
X61997973Y-36558037D01*
X62064158Y-36551518D01*
X62130340Y-36545000D01*
X62218860Y-36545000D01*
X62285042Y-36551518D01*
X62285042Y-36551518D01*
G37*
G36*
X40076821Y-34791313D02*
X40076824Y-34791314D01*
X40076825Y-34791314D01*
X40237239Y-34839975D01*
X40237241Y-34839976D01*
X40237244Y-34839977D01*
X40385078Y-34918995D01*
X40514659Y-35025341D01*
X40621005Y-35154922D01*
X40700023Y-35302756D01*
X40700024Y-35302759D01*
X40700025Y-35302761D01*
X40748686Y-35463175D01*
X40748686Y-35463178D01*
X40748687Y-35463180D01*
X40761000Y-35588197D01*
X40761000Y-36471804D01*
X40748687Y-36596821D01*
X40748686Y-36596824D01*
X40748686Y-36596825D01*
X40719445Y-36693221D01*
X40700023Y-36757244D01*
X40621005Y-36905078D01*
X40514659Y-37034659D01*
X40385078Y-37141005D01*
X40237243Y-37220023D01*
X40237240Y-37220024D01*
X40237238Y-37220025D01*
X40076824Y-37268686D01*
X40076823Y-37268686D01*
X40076820Y-37268687D01*
X39910000Y-37285117D01*
X39743179Y-37268687D01*
X39743176Y-37268686D01*
X39743175Y-37268686D01*
X39582761Y-37220025D01*
X39582759Y-37220024D01*
X39582756Y-37220023D01*
X39434922Y-37141005D01*
X39305341Y-37034659D01*
X39198995Y-36905078D01*
X39119977Y-36757243D01*
X39098125Y-36685206D01*
X39071314Y-36596824D01*
X39071314Y-36596823D01*
X39071313Y-36596820D01*
X39059000Y-36471803D01*
X39059000Y-35588197D01*
X39071314Y-35463179D01*
X39119978Y-35302756D01*
X39198996Y-35154922D01*
X39305342Y-35025341D01*
X39434923Y-34918995D01*
X39582757Y-34839977D01*
X39582760Y-34839976D01*
X39582762Y-34839975D01*
X39743176Y-34791314D01*
X39743177Y-34791314D01*
X39743180Y-34791313D01*
X39910000Y-34774883D01*
X40076821Y-34791313D01*
X40076821Y-34791313D01*
G37*
G36*
X37536821Y-34791313D02*
X37536824Y-34791314D01*
X37536825Y-34791314D01*
X37697239Y-34839975D01*
X37697241Y-34839976D01*
X37697244Y-34839977D01*
X37845078Y-34918995D01*
X37974659Y-35025341D01*
X38081005Y-35154922D01*
X38160023Y-35302756D01*
X38160024Y-35302759D01*
X38160025Y-35302761D01*
X38208686Y-35463175D01*
X38208686Y-35463178D01*
X38208687Y-35463180D01*
X38221000Y-35588197D01*
X38221000Y-36471804D01*
X38208687Y-36596821D01*
X38208686Y-36596824D01*
X38208686Y-36596825D01*
X38179445Y-36693221D01*
X38160023Y-36757244D01*
X38081005Y-36905078D01*
X37974659Y-37034659D01*
X37845078Y-37141005D01*
X37697243Y-37220023D01*
X37697240Y-37220024D01*
X37697238Y-37220025D01*
X37536824Y-37268686D01*
X37536823Y-37268686D01*
X37536820Y-37268687D01*
X37370000Y-37285117D01*
X37203179Y-37268687D01*
X37203176Y-37268686D01*
X37203175Y-37268686D01*
X37042761Y-37220025D01*
X37042759Y-37220024D01*
X37042756Y-37220023D01*
X36894922Y-37141005D01*
X36765341Y-37034659D01*
X36658995Y-36905078D01*
X36579977Y-36757243D01*
X36558125Y-36685206D01*
X36531314Y-36596824D01*
X36531314Y-36596823D01*
X36531313Y-36596820D01*
X36519000Y-36471803D01*
X36519000Y-35588197D01*
X36531314Y-35463179D01*
X36579978Y-35302756D01*
X36658996Y-35154922D01*
X36765342Y-35025341D01*
X36894923Y-34918995D01*
X37042757Y-34839977D01*
X37042760Y-34839976D01*
X37042762Y-34839975D01*
X37203176Y-34791314D01*
X37203177Y-34791314D01*
X37203180Y-34791313D01*
X37370000Y-34774883D01*
X37536821Y-34791313D01*
X37536821Y-34791313D01*
G37*
G36*
X42616821Y-34791313D02*
X42616824Y-34791314D01*
X42616825Y-34791314D01*
X42777239Y-34839975D01*
X42777241Y-34839976D01*
X42777244Y-34839977D01*
X42925078Y-34918995D01*
X43054659Y-35025341D01*
X43161005Y-35154922D01*
X43240023Y-35302756D01*
X43240024Y-35302759D01*
X43240025Y-35302761D01*
X43288686Y-35463175D01*
X43288686Y-35463178D01*
X43288687Y-35463180D01*
X43301000Y-35588197D01*
X43301000Y-36471804D01*
X43288687Y-36596821D01*
X43288686Y-36596824D01*
X43288686Y-36596825D01*
X43259445Y-36693221D01*
X43240023Y-36757244D01*
X43161005Y-36905078D01*
X43054659Y-37034659D01*
X42925078Y-37141005D01*
X42777243Y-37220023D01*
X42777240Y-37220024D01*
X42777238Y-37220025D01*
X42616824Y-37268686D01*
X42616823Y-37268686D01*
X42616820Y-37268687D01*
X42450000Y-37285117D01*
X42283179Y-37268687D01*
X42283176Y-37268686D01*
X42283175Y-37268686D01*
X42122761Y-37220025D01*
X42122759Y-37220024D01*
X42122756Y-37220023D01*
X41974922Y-37141005D01*
X41845341Y-37034659D01*
X41738995Y-36905078D01*
X41659977Y-36757243D01*
X41638125Y-36685206D01*
X41611314Y-36596824D01*
X41611314Y-36596823D01*
X41611313Y-36596820D01*
X41599000Y-36471803D01*
X41599000Y-35588197D01*
X41611314Y-35463179D01*
X41659978Y-35302756D01*
X41738996Y-35154922D01*
X41845342Y-35025341D01*
X41974923Y-34918995D01*
X42122757Y-34839977D01*
X42122760Y-34839976D01*
X42122762Y-34839975D01*
X42283176Y-34791314D01*
X42283177Y-34791314D01*
X42283180Y-34791313D01*
X42450000Y-34774883D01*
X42616821Y-34791313D01*
X42616821Y-34791313D01*
G37*
G36*
X34996821Y-34791313D02*
X34996824Y-34791314D01*
X34996825Y-34791314D01*
X35157239Y-34839975D01*
X35157241Y-34839976D01*
X35157244Y-34839977D01*
X35305078Y-34918995D01*
X35434659Y-35025341D01*
X35541005Y-35154922D01*
X35620023Y-35302756D01*
X35620024Y-35302759D01*
X35620025Y-35302761D01*
X35668686Y-35463175D01*
X35668686Y-35463178D01*
X35668687Y-35463180D01*
X35681000Y-35588197D01*
X35681000Y-36471804D01*
X35668687Y-36596821D01*
X35668686Y-36596824D01*
X35668686Y-36596825D01*
X35639445Y-36693221D01*
X35620023Y-36757244D01*
X35541005Y-36905078D01*
X35434659Y-37034659D01*
X35305078Y-37141005D01*
X35157243Y-37220023D01*
X35157240Y-37220024D01*
X35157238Y-37220025D01*
X34996824Y-37268686D01*
X34996823Y-37268686D01*
X34996820Y-37268687D01*
X34830000Y-37285117D01*
X34663179Y-37268687D01*
X34663176Y-37268686D01*
X34663175Y-37268686D01*
X34502761Y-37220025D01*
X34502759Y-37220024D01*
X34502756Y-37220023D01*
X34354922Y-37141005D01*
X34225341Y-37034659D01*
X34118995Y-36905078D01*
X34039977Y-36757243D01*
X34018125Y-36685206D01*
X33991314Y-36596824D01*
X33991314Y-36596823D01*
X33991313Y-36596820D01*
X33979000Y-36471803D01*
X33979000Y-35588197D01*
X33991314Y-35463179D01*
X34039978Y-35302756D01*
X34118996Y-35154922D01*
X34225342Y-35025341D01*
X34354923Y-34918995D01*
X34502757Y-34839977D01*
X34502760Y-34839976D01*
X34502762Y-34839975D01*
X34663176Y-34791314D01*
X34663177Y-34791314D01*
X34663180Y-34791313D01*
X34830000Y-34774883D01*
X34996821Y-34791313D01*
X34996821Y-34791313D01*
G37*
G36*
X32456821Y-34791313D02*
X32456824Y-34791314D01*
X32456825Y-34791314D01*
X32617239Y-34839975D01*
X32617241Y-34839976D01*
X32617244Y-34839977D01*
X32765078Y-34918995D01*
X32894659Y-35025341D01*
X33001005Y-35154922D01*
X33080023Y-35302756D01*
X33080024Y-35302759D01*
X33080025Y-35302761D01*
X33128686Y-35463175D01*
X33128686Y-35463178D01*
X33128687Y-35463180D01*
X33141000Y-35588197D01*
X33141000Y-36471804D01*
X33128687Y-36596821D01*
X33128686Y-36596824D01*
X33128686Y-36596825D01*
X33099445Y-36693221D01*
X33080023Y-36757244D01*
X33001005Y-36905078D01*
X32894659Y-37034659D01*
X32765078Y-37141005D01*
X32617243Y-37220023D01*
X32617240Y-37220024D01*
X32617238Y-37220025D01*
X32456824Y-37268686D01*
X32456823Y-37268686D01*
X32456820Y-37268687D01*
X32290000Y-37285117D01*
X32123179Y-37268687D01*
X32123176Y-37268686D01*
X32123175Y-37268686D01*
X31962761Y-37220025D01*
X31962759Y-37220024D01*
X31962756Y-37220023D01*
X31814922Y-37141005D01*
X31685341Y-37034659D01*
X31578995Y-36905078D01*
X31499977Y-36757243D01*
X31478125Y-36685206D01*
X31451314Y-36596824D01*
X31451314Y-36596823D01*
X31451313Y-36596820D01*
X31439000Y-36471803D01*
X31439000Y-35588197D01*
X31451314Y-35463179D01*
X31499978Y-35302756D01*
X31578996Y-35154922D01*
X31685342Y-35025341D01*
X31814923Y-34918995D01*
X31962757Y-34839977D01*
X31962760Y-34839976D01*
X31962762Y-34839975D01*
X32123176Y-34791314D01*
X32123177Y-34791314D01*
X32123180Y-34791313D01*
X32290000Y-34774883D01*
X32456821Y-34791313D01*
X32456821Y-34791313D01*
G37*
G36*
X29916821Y-34791313D02*
X29916824Y-34791314D01*
X29916825Y-34791314D01*
X30077239Y-34839975D01*
X30077241Y-34839976D01*
X30077244Y-34839977D01*
X30225078Y-34918995D01*
X30354659Y-35025341D01*
X30461005Y-35154922D01*
X30540023Y-35302756D01*
X30540024Y-35302759D01*
X30540025Y-35302761D01*
X30588686Y-35463175D01*
X30588686Y-35463178D01*
X30588687Y-35463180D01*
X30601000Y-35588197D01*
X30601000Y-36471804D01*
X30588687Y-36596821D01*
X30588686Y-36596824D01*
X30588686Y-36596825D01*
X30559445Y-36693221D01*
X30540023Y-36757244D01*
X30461005Y-36905078D01*
X30354659Y-37034659D01*
X30225078Y-37141005D01*
X30077243Y-37220023D01*
X30077240Y-37220024D01*
X30077238Y-37220025D01*
X29916824Y-37268686D01*
X29916823Y-37268686D01*
X29916820Y-37268687D01*
X29750000Y-37285117D01*
X29583179Y-37268687D01*
X29583176Y-37268686D01*
X29583175Y-37268686D01*
X29422761Y-37220025D01*
X29422759Y-37220024D01*
X29422756Y-37220023D01*
X29274922Y-37141005D01*
X29145341Y-37034659D01*
X29038995Y-36905078D01*
X28959977Y-36757243D01*
X28938125Y-36685206D01*
X28911314Y-36596824D01*
X28911314Y-36596823D01*
X28911313Y-36596820D01*
X28899000Y-36471803D01*
X28899000Y-35588197D01*
X28911314Y-35463179D01*
X28959978Y-35302756D01*
X29038996Y-35154922D01*
X29145342Y-35025341D01*
X29274923Y-34918995D01*
X29422757Y-34839977D01*
X29422760Y-34839976D01*
X29422762Y-34839975D01*
X29583176Y-34791314D01*
X29583177Y-34791314D01*
X29583180Y-34791313D01*
X29750000Y-34774883D01*
X29916821Y-34791313D01*
X29916821Y-34791313D01*
G37*
G36*
X45841000Y-37281000D02*
X44139000Y-37281000D01*
X44139000Y-34779000D01*
X45841000Y-34779000D01*
X45841000Y-37281000D01*
X45841000Y-37281000D01*
G37*
G36*
X22895589Y-35558876D02*
X22994893Y-35578629D01*
X23135206Y-35636748D01*
X23261484Y-35721125D01*
X23368875Y-35828516D01*
X23453252Y-35954794D01*
X23511371Y-36095107D01*
X23541000Y-36244063D01*
X23541000Y-36395937D01*
X23511371Y-36544893D01*
X23453252Y-36685206D01*
X23368875Y-36811484D01*
X23261484Y-36918875D01*
X23135206Y-37003252D01*
X22994893Y-37061371D01*
X22895589Y-37081124D01*
X22845938Y-37091000D01*
X22694062Y-37091000D01*
X22644411Y-37081124D01*
X22545107Y-37061371D01*
X22404794Y-37003252D01*
X22278516Y-36918875D01*
X22171125Y-36811484D01*
X22086748Y-36685206D01*
X22028629Y-36544893D01*
X21999000Y-36395937D01*
X21999000Y-36244063D01*
X22028629Y-36095107D01*
X22086748Y-35954794D01*
X22171125Y-35828516D01*
X22278516Y-35721125D01*
X22404794Y-35636748D01*
X22545107Y-35578629D01*
X22644411Y-35558876D01*
X22694062Y-35549000D01*
X22845938Y-35549000D01*
X22895589Y-35558876D01*
X22895589Y-35558876D01*
G37*
G36*
X22895589Y-33018876D02*
X22994893Y-33038629D01*
X23135206Y-33096748D01*
X23261484Y-33181125D01*
X23368875Y-33288516D01*
X23453252Y-33414794D01*
X23511371Y-33555107D01*
X23541000Y-33704063D01*
X23541000Y-33855937D01*
X23511371Y-34004893D01*
X23453252Y-34145206D01*
X23368875Y-34271484D01*
X23261484Y-34378875D01*
X23135206Y-34463252D01*
X22994893Y-34521371D01*
X22895589Y-34541124D01*
X22845938Y-34551000D01*
X22694062Y-34551000D01*
X22644411Y-34541124D01*
X22545107Y-34521371D01*
X22404794Y-34463252D01*
X22278516Y-34378875D01*
X22171125Y-34271484D01*
X22086748Y-34145206D01*
X22028629Y-34004893D01*
X21999000Y-33855937D01*
X21999000Y-33704063D01*
X22028629Y-33555107D01*
X22086748Y-33414794D01*
X22171125Y-33288516D01*
X22278516Y-33181125D01*
X22404794Y-33096748D01*
X22545107Y-33038629D01*
X22644411Y-33018876D01*
X22694062Y-33009000D01*
X22845938Y-33009000D01*
X22895589Y-33018876D01*
X22895589Y-33018876D01*
G37*
G36*
X60838228Y-32011703D02*
X60993100Y-32075853D01*
X61132481Y-32168985D01*
X61251015Y-32287519D01*
X61344147Y-32426900D01*
X61408297Y-32581772D01*
X61441000Y-32746184D01*
X61441000Y-32913816D01*
X61408297Y-33078228D01*
X61344147Y-33233100D01*
X61251015Y-33372481D01*
X61132481Y-33491015D01*
X60993100Y-33584147D01*
X60838228Y-33648297D01*
X60673816Y-33681000D01*
X60506184Y-33681000D01*
X60341772Y-33648297D01*
X60186900Y-33584147D01*
X60047519Y-33491015D01*
X59928985Y-33372481D01*
X59835853Y-33233100D01*
X59771703Y-33078228D01*
X59739000Y-32913816D01*
X59739000Y-32746184D01*
X59771703Y-32581772D01*
X59835853Y-32426900D01*
X59928985Y-32287519D01*
X60047519Y-32168985D01*
X60186900Y-32075853D01*
X60341772Y-32011703D01*
X60506184Y-31979000D01*
X60673816Y-31979000D01*
X60838228Y-32011703D01*
X60838228Y-32011703D01*
G37*
G36*
X52447916Y-29432334D02*
X52556492Y-29465271D01*
X52656557Y-29518756D01*
X52744264Y-29590736D01*
X52816244Y-29678443D01*
X52869729Y-29778508D01*
X52902666Y-29887084D01*
X52913787Y-30000000D01*
X52902666Y-30112916D01*
X52869729Y-30221492D01*
X52869726Y-30221497D01*
X52816244Y-30321557D01*
X52744264Y-30409264D01*
X52656557Y-30481244D01*
X52575143Y-30524760D01*
X52554768Y-30538373D01*
X52537441Y-30555701D01*
X52523827Y-30576075D01*
X52514450Y-30598714D01*
X52509669Y-30622747D01*
X52509669Y-30647252D01*
X52514449Y-30671285D01*
X52523827Y-30693924D01*
X52537440Y-30714299D01*
X52554768Y-30731626D01*
X52575143Y-30745240D01*
X52656557Y-30788756D01*
X52744264Y-30860736D01*
X52816244Y-30948443D01*
X52869729Y-31048508D01*
X52902666Y-31157084D01*
X52913787Y-31270000D01*
X52902666Y-31382916D01*
X52869729Y-31491492D01*
X52869726Y-31491497D01*
X52816244Y-31591557D01*
X52744264Y-31679264D01*
X52667365Y-31742374D01*
X52650038Y-31759701D01*
X52636424Y-31780076D01*
X52627046Y-31802715D01*
X52622266Y-31826748D01*
X52622266Y-31851252D01*
X52627047Y-31875286D01*
X52636424Y-31897925D01*
X52650038Y-31918299D01*
X52667365Y-31935626D01*
X52687740Y-31949240D01*
X52710379Y-31958618D01*
X52746664Y-31964000D01*
X52911000Y-31964000D01*
X52911000Y-33116000D01*
X51309000Y-33116000D01*
X51309000Y-31964000D01*
X51473336Y-31964000D01*
X51497722Y-31961598D01*
X51521171Y-31954485D01*
X51542782Y-31942934D01*
X51561724Y-31927388D01*
X51577270Y-31908446D01*
X51588821Y-31886835D01*
X51595934Y-31863386D01*
X51598336Y-31839000D01*
X51595934Y-31814614D01*
X51588821Y-31791165D01*
X51577270Y-31769554D01*
X51552635Y-31742374D01*
X51475736Y-31679264D01*
X51403756Y-31591557D01*
X51350274Y-31491497D01*
X51350271Y-31491492D01*
X51317334Y-31382916D01*
X51306213Y-31270000D01*
X51317334Y-31157084D01*
X51350271Y-31048508D01*
X51403756Y-30948443D01*
X51475736Y-30860736D01*
X51563443Y-30788756D01*
X51644857Y-30745240D01*
X51665232Y-30731627D01*
X51682559Y-30714299D01*
X51696173Y-30693925D01*
X51705550Y-30671286D01*
X51710331Y-30647253D01*
X51710331Y-30622748D01*
X51705551Y-30598715D01*
X51696173Y-30576076D01*
X51682560Y-30555701D01*
X51665232Y-30538374D01*
X51644857Y-30524760D01*
X51563443Y-30481244D01*
X51475736Y-30409264D01*
X51403756Y-30321557D01*
X51350274Y-30221497D01*
X51350271Y-30221492D01*
X51317334Y-30112916D01*
X51306213Y-30000000D01*
X51317334Y-29887084D01*
X51350271Y-29778508D01*
X51403756Y-29678443D01*
X51475736Y-29590736D01*
X51563443Y-29518756D01*
X51663508Y-29465271D01*
X51772084Y-29432334D01*
X51856702Y-29424000D01*
X52363298Y-29424000D01*
X52447916Y-29432334D01*
X52447916Y-29432334D01*
G37*
G36*
X61441000Y-31181000D02*
X59739000Y-31181000D01*
X59739000Y-29479000D01*
X61441000Y-29479000D01*
X61441000Y-31181000D01*
X61441000Y-31181000D01*
G37*
G36*
X30236300Y-30701800D02*
X28434300Y-30701800D01*
X28434300Y-28899800D01*
X30236300Y-28899800D01*
X30236300Y-30701800D01*
X30236300Y-30701800D01*
G37*
G36*
X26905742Y-28906318D02*
X26971927Y-28912837D01*
X27085153Y-28947184D01*
X27141767Y-28964357D01*
X27280387Y-29038452D01*
X27298291Y-29048022D01*
X27334029Y-29077352D01*
X27435486Y-29160614D01*
X27518748Y-29262071D01*
X27548078Y-29297809D01*
X27548079Y-29297811D01*
X27631743Y-29454333D01*
X27648916Y-29510947D01*
X27683263Y-29624173D01*
X27700659Y-29800800D01*
X27683263Y-29977427D01*
X27648916Y-30090653D01*
X27631743Y-30147267D01*
X27557648Y-30285887D01*
X27548078Y-30303791D01*
X27518748Y-30339529D01*
X27435486Y-30440986D01*
X27334029Y-30524248D01*
X27298291Y-30553578D01*
X27298289Y-30553579D01*
X27141767Y-30637243D01*
X27085153Y-30654416D01*
X26971927Y-30688763D01*
X26919515Y-30693925D01*
X26839560Y-30701800D01*
X26751040Y-30701800D01*
X26671085Y-30693925D01*
X26618673Y-30688763D01*
X26505447Y-30654416D01*
X26448833Y-30637243D01*
X26292311Y-30553579D01*
X26292309Y-30553578D01*
X26256571Y-30524248D01*
X26155114Y-30440986D01*
X26071852Y-30339529D01*
X26042522Y-30303791D01*
X26032952Y-30285887D01*
X25958857Y-30147267D01*
X25941684Y-30090653D01*
X25907337Y-29977427D01*
X25889941Y-29800800D01*
X25907337Y-29624173D01*
X25941684Y-29510947D01*
X25958857Y-29454333D01*
X26042521Y-29297811D01*
X26042522Y-29297809D01*
X26071852Y-29262071D01*
X26155114Y-29160614D01*
X26256571Y-29077352D01*
X26292309Y-29048022D01*
X26310213Y-29038452D01*
X26448833Y-28964357D01*
X26505447Y-28947184D01*
X26618673Y-28912837D01*
X26684858Y-28906318D01*
X26751040Y-28899800D01*
X26839560Y-28899800D01*
X26905742Y-28906318D01*
X26905742Y-28906318D01*
G37*
G36*
X44910443Y-25975519D02*
X44976627Y-25982037D01*
X45089853Y-26016384D01*
X45146467Y-26033557D01*
X45285087Y-26107652D01*
X45302991Y-26117222D01*
X45338729Y-26146552D01*
X45440186Y-26229814D01*
X45491858Y-26292778D01*
X45552778Y-26367009D01*
X45552779Y-26367011D01*
X45636443Y-26523533D01*
X45636443Y-26523534D01*
X45687963Y-26693373D01*
X45705359Y-26870000D01*
X45687963Y-27046627D01*
X45653616Y-27159853D01*
X45636443Y-27216467D01*
X45562348Y-27355087D01*
X45552778Y-27372991D01*
X45523448Y-27408729D01*
X45440186Y-27510186D01*
X45338729Y-27593448D01*
X45302991Y-27622778D01*
X45302989Y-27622779D01*
X45146467Y-27706443D01*
X45089853Y-27723616D01*
X44976627Y-27757963D01*
X44910442Y-27764482D01*
X44844260Y-27771000D01*
X44755740Y-27771000D01*
X44689558Y-27764482D01*
X44623373Y-27757963D01*
X44510147Y-27723616D01*
X44453533Y-27706443D01*
X44297011Y-27622779D01*
X44297009Y-27622778D01*
X44261271Y-27593448D01*
X44159814Y-27510186D01*
X44076552Y-27408729D01*
X44047222Y-27372991D01*
X44037652Y-27355087D01*
X43963557Y-27216467D01*
X43946384Y-27159853D01*
X43912037Y-27046627D01*
X43894641Y-26870000D01*
X43912037Y-26693373D01*
X43963557Y-26523534D01*
X43963557Y-26523533D01*
X44047221Y-26367011D01*
X44047222Y-26367009D01*
X44108142Y-26292778D01*
X44159814Y-26229814D01*
X44261271Y-26146552D01*
X44297009Y-26117222D01*
X44314913Y-26107652D01*
X44453533Y-26033557D01*
X44510147Y-26016384D01*
X44623373Y-25982037D01*
X44689558Y-25975518D01*
X44755740Y-25969000D01*
X44844260Y-25969000D01*
X44910443Y-25975519D01*
X44910443Y-25975519D01*
G37*
G36*
X35541000Y-27771000D02*
X33739000Y-27771000D01*
X33739000Y-25969000D01*
X35541000Y-25969000D01*
X35541000Y-27771000D01*
X35541000Y-27771000D01*
G37*
G36*
X37290443Y-25975519D02*
X37356627Y-25982037D01*
X37469853Y-26016384D01*
X37526467Y-26033557D01*
X37665087Y-26107652D01*
X37682991Y-26117222D01*
X37718729Y-26146552D01*
X37820186Y-26229814D01*
X37871858Y-26292778D01*
X37932778Y-26367009D01*
X37932779Y-26367011D01*
X38016443Y-26523533D01*
X38016443Y-26523534D01*
X38067963Y-26693373D01*
X38085359Y-26870000D01*
X38067963Y-27046627D01*
X38033616Y-27159853D01*
X38016443Y-27216467D01*
X37942348Y-27355087D01*
X37932778Y-27372991D01*
X37903448Y-27408729D01*
X37820186Y-27510186D01*
X37718729Y-27593448D01*
X37682991Y-27622778D01*
X37682989Y-27622779D01*
X37526467Y-27706443D01*
X37469853Y-27723616D01*
X37356627Y-27757963D01*
X37290442Y-27764482D01*
X37224260Y-27771000D01*
X37135740Y-27771000D01*
X37069558Y-27764482D01*
X37003373Y-27757963D01*
X36890147Y-27723616D01*
X36833533Y-27706443D01*
X36677011Y-27622779D01*
X36677009Y-27622778D01*
X36641271Y-27593448D01*
X36539814Y-27510186D01*
X36456552Y-27408729D01*
X36427222Y-27372991D01*
X36417652Y-27355087D01*
X36343557Y-27216467D01*
X36326384Y-27159853D01*
X36292037Y-27046627D01*
X36274641Y-26870000D01*
X36292037Y-26693373D01*
X36343557Y-26523534D01*
X36343557Y-26523533D01*
X36427221Y-26367011D01*
X36427222Y-26367009D01*
X36488142Y-26292778D01*
X36539814Y-26229814D01*
X36641271Y-26146552D01*
X36677009Y-26117222D01*
X36694913Y-26107652D01*
X36833533Y-26033557D01*
X36890147Y-26016384D01*
X37003373Y-25982037D01*
X37069558Y-25975518D01*
X37135740Y-25969000D01*
X37224260Y-25969000D01*
X37290443Y-25975519D01*
X37290443Y-25975519D01*
G37*
G36*
X39830443Y-25975519D02*
X39896627Y-25982037D01*
X40009853Y-26016384D01*
X40066467Y-26033557D01*
X40205087Y-26107652D01*
X40222991Y-26117222D01*
X40258729Y-26146552D01*
X40360186Y-26229814D01*
X40411858Y-26292778D01*
X40472778Y-26367009D01*
X40472779Y-26367011D01*
X40556443Y-26523533D01*
X40556443Y-26523534D01*
X40607963Y-26693373D01*
X40625359Y-26870000D01*
X40607963Y-27046627D01*
X40573616Y-27159853D01*
X40556443Y-27216467D01*
X40482348Y-27355087D01*
X40472778Y-27372991D01*
X40443448Y-27408729D01*
X40360186Y-27510186D01*
X40258729Y-27593448D01*
X40222991Y-27622778D01*
X40222989Y-27622779D01*
X40066467Y-27706443D01*
X40009853Y-27723616D01*
X39896627Y-27757963D01*
X39830442Y-27764482D01*
X39764260Y-27771000D01*
X39675740Y-27771000D01*
X39609558Y-27764482D01*
X39543373Y-27757963D01*
X39430147Y-27723616D01*
X39373533Y-27706443D01*
X39217011Y-27622779D01*
X39217009Y-27622778D01*
X39181271Y-27593448D01*
X39079814Y-27510186D01*
X38996552Y-27408729D01*
X38967222Y-27372991D01*
X38957652Y-27355087D01*
X38883557Y-27216467D01*
X38866384Y-27159853D01*
X38832037Y-27046627D01*
X38814641Y-26870000D01*
X38832037Y-26693373D01*
X38883557Y-26523534D01*
X38883557Y-26523533D01*
X38967221Y-26367011D01*
X38967222Y-26367009D01*
X39028142Y-26292778D01*
X39079814Y-26229814D01*
X39181271Y-26146552D01*
X39217009Y-26117222D01*
X39234913Y-26107652D01*
X39373533Y-26033557D01*
X39430147Y-26016384D01*
X39543373Y-25982037D01*
X39609558Y-25975518D01*
X39675740Y-25969000D01*
X39764260Y-25969000D01*
X39830443Y-25975519D01*
X39830443Y-25975519D01*
G37*
G36*
X42370443Y-25975519D02*
X42436627Y-25982037D01*
X42549853Y-26016384D01*
X42606467Y-26033557D01*
X42745087Y-26107652D01*
X42762991Y-26117222D01*
X42798729Y-26146552D01*
X42900186Y-26229814D01*
X42951858Y-26292778D01*
X43012778Y-26367009D01*
X43012779Y-26367011D01*
X43096443Y-26523533D01*
X43096443Y-26523534D01*
X43147963Y-26693373D01*
X43165359Y-26870000D01*
X43147963Y-27046627D01*
X43113616Y-27159853D01*
X43096443Y-27216467D01*
X43022348Y-27355087D01*
X43012778Y-27372991D01*
X42983448Y-27408729D01*
X42900186Y-27510186D01*
X42798729Y-27593448D01*
X42762991Y-27622778D01*
X42762989Y-27622779D01*
X42606467Y-27706443D01*
X42549853Y-27723616D01*
X42436627Y-27757963D01*
X42370442Y-27764482D01*
X42304260Y-27771000D01*
X42215740Y-27771000D01*
X42149558Y-27764482D01*
X42083373Y-27757963D01*
X41970147Y-27723616D01*
X41913533Y-27706443D01*
X41757011Y-27622779D01*
X41757009Y-27622778D01*
X41721271Y-27593448D01*
X41619814Y-27510186D01*
X41536552Y-27408729D01*
X41507222Y-27372991D01*
X41497652Y-27355087D01*
X41423557Y-27216467D01*
X41406384Y-27159853D01*
X41372037Y-27046627D01*
X41354641Y-26870000D01*
X41372037Y-26693373D01*
X41423557Y-26523534D01*
X41423557Y-26523533D01*
X41507221Y-26367011D01*
X41507222Y-26367009D01*
X41568142Y-26292778D01*
X41619814Y-26229814D01*
X41721271Y-26146552D01*
X41757009Y-26117222D01*
X41774913Y-26107652D01*
X41913533Y-26033557D01*
X41970147Y-26016384D01*
X42083373Y-25982037D01*
X42149558Y-25975518D01*
X42215740Y-25969000D01*
X42304260Y-25969000D01*
X42370443Y-25975519D01*
X42370443Y-25975519D01*
G37*
G36*
X52260443Y-24645519D02*
X52326627Y-24652037D01*
X52439853Y-24686384D01*
X52496467Y-24703557D01*
X52635087Y-24777652D01*
X52652991Y-24787222D01*
X52688729Y-24816552D01*
X52790186Y-24899814D01*
X52873448Y-25001271D01*
X52902778Y-25037009D01*
X52902779Y-25037011D01*
X52986443Y-25193533D01*
X52997808Y-25231000D01*
X53037963Y-25363373D01*
X53055359Y-25540000D01*
X53037963Y-25716627D01*
X53003616Y-25829853D01*
X52986443Y-25886467D01*
X52935359Y-25982037D01*
X52902778Y-26042991D01*
X52873448Y-26078729D01*
X52790186Y-26180186D01*
X52688729Y-26263448D01*
X52652991Y-26292778D01*
X52652989Y-26292779D01*
X52496467Y-26376443D01*
X52439853Y-26393616D01*
X52326627Y-26427963D01*
X52260442Y-26434482D01*
X52194260Y-26441000D01*
X52105740Y-26441000D01*
X52039558Y-26434482D01*
X51973373Y-26427963D01*
X51860147Y-26393616D01*
X51803533Y-26376443D01*
X51647011Y-26292779D01*
X51647009Y-26292778D01*
X51611271Y-26263448D01*
X51509814Y-26180186D01*
X51426552Y-26078729D01*
X51397222Y-26042991D01*
X51364641Y-25982037D01*
X51313557Y-25886467D01*
X51296384Y-25829853D01*
X51262037Y-25716627D01*
X51244641Y-25540000D01*
X51262037Y-25363373D01*
X51302192Y-25231000D01*
X51313557Y-25193533D01*
X51397221Y-25037011D01*
X51397222Y-25037009D01*
X51426552Y-25001271D01*
X51509814Y-24899814D01*
X51611271Y-24816552D01*
X51647009Y-24787222D01*
X51664913Y-24777652D01*
X51803533Y-24703557D01*
X51860147Y-24686384D01*
X51973373Y-24652037D01*
X52039557Y-24645519D01*
X52105740Y-24639000D01*
X52194260Y-24639000D01*
X52260443Y-24645519D01*
X52260443Y-24645519D01*
G37*
G36*
X55591000Y-26441000D02*
X53789000Y-26441000D01*
X53789000Y-24639000D01*
X55591000Y-24639000D01*
X55591000Y-26441000D01*
X55591000Y-26441000D01*
G37*
G36*
X42370443Y-23435519D02*
X42436627Y-23442037D01*
X42549853Y-23476384D01*
X42606467Y-23493557D01*
X42745087Y-23567652D01*
X42762991Y-23577222D01*
X42798729Y-23606552D01*
X42900186Y-23689814D01*
X42983448Y-23791271D01*
X43012778Y-23827009D01*
X43012779Y-23827011D01*
X43096443Y-23983533D01*
X43096443Y-23983534D01*
X43147963Y-24153373D01*
X43165359Y-24330000D01*
X43147963Y-24506627D01*
X43113616Y-24619853D01*
X43096443Y-24676467D01*
X43037243Y-24787221D01*
X43012778Y-24832991D01*
X42983448Y-24868729D01*
X42900186Y-24970186D01*
X42818758Y-25037011D01*
X42762991Y-25082778D01*
X42762989Y-25082779D01*
X42606467Y-25166443D01*
X42549853Y-25183616D01*
X42436627Y-25217963D01*
X42370443Y-25224481D01*
X42304260Y-25231000D01*
X42215740Y-25231000D01*
X42149557Y-25224481D01*
X42083373Y-25217963D01*
X41970147Y-25183616D01*
X41913533Y-25166443D01*
X41757011Y-25082779D01*
X41757009Y-25082778D01*
X41701242Y-25037011D01*
X41619814Y-24970186D01*
X41536552Y-24868729D01*
X41507222Y-24832991D01*
X41482757Y-24787221D01*
X41423557Y-24676467D01*
X41406384Y-24619853D01*
X41372037Y-24506627D01*
X41354641Y-24330000D01*
X41372037Y-24153373D01*
X41423557Y-23983534D01*
X41423557Y-23983533D01*
X41507221Y-23827011D01*
X41507222Y-23827009D01*
X41536552Y-23791271D01*
X41619814Y-23689814D01*
X41721271Y-23606552D01*
X41757009Y-23577222D01*
X41774913Y-23567652D01*
X41913533Y-23493557D01*
X41970147Y-23476384D01*
X42083373Y-23442037D01*
X42149557Y-23435519D01*
X42215740Y-23429000D01*
X42304260Y-23429000D01*
X42370443Y-23435519D01*
X42370443Y-23435519D01*
G37*
G36*
X37290443Y-23435519D02*
X37356627Y-23442037D01*
X37469853Y-23476384D01*
X37526467Y-23493557D01*
X37665087Y-23567652D01*
X37682991Y-23577222D01*
X37718729Y-23606552D01*
X37820186Y-23689814D01*
X37903448Y-23791271D01*
X37932778Y-23827009D01*
X37932779Y-23827011D01*
X38016443Y-23983533D01*
X38016443Y-23983534D01*
X38067963Y-24153373D01*
X38085359Y-24330000D01*
X38067963Y-24506627D01*
X38033616Y-24619853D01*
X38016443Y-24676467D01*
X37957243Y-24787221D01*
X37932778Y-24832991D01*
X37903448Y-24868729D01*
X37820186Y-24970186D01*
X37738758Y-25037011D01*
X37682991Y-25082778D01*
X37682989Y-25082779D01*
X37526467Y-25166443D01*
X37469853Y-25183616D01*
X37356627Y-25217963D01*
X37290443Y-25224481D01*
X37224260Y-25231000D01*
X37135740Y-25231000D01*
X37069557Y-25224481D01*
X37003373Y-25217963D01*
X36890147Y-25183616D01*
X36833533Y-25166443D01*
X36677011Y-25082779D01*
X36677009Y-25082778D01*
X36621242Y-25037011D01*
X36539814Y-24970186D01*
X36456552Y-24868729D01*
X36427222Y-24832991D01*
X36402757Y-24787221D01*
X36343557Y-24676467D01*
X36326384Y-24619853D01*
X36292037Y-24506627D01*
X36274641Y-24330000D01*
X36292037Y-24153373D01*
X36343557Y-23983534D01*
X36343557Y-23983533D01*
X36427221Y-23827011D01*
X36427222Y-23827009D01*
X36456552Y-23791271D01*
X36539814Y-23689814D01*
X36641271Y-23606552D01*
X36677009Y-23577222D01*
X36694913Y-23567652D01*
X36833533Y-23493557D01*
X36890147Y-23476384D01*
X37003373Y-23442037D01*
X37069557Y-23435519D01*
X37135740Y-23429000D01*
X37224260Y-23429000D01*
X37290443Y-23435519D01*
X37290443Y-23435519D01*
G37*
G36*
X39830443Y-23435519D02*
X39896627Y-23442037D01*
X40009853Y-23476384D01*
X40066467Y-23493557D01*
X40205087Y-23567652D01*
X40222991Y-23577222D01*
X40258729Y-23606552D01*
X40360186Y-23689814D01*
X40443448Y-23791271D01*
X40472778Y-23827009D01*
X40472779Y-23827011D01*
X40556443Y-23983533D01*
X40556443Y-23983534D01*
X40607963Y-24153373D01*
X40625359Y-24330000D01*
X40607963Y-24506627D01*
X40573616Y-24619853D01*
X40556443Y-24676467D01*
X40497243Y-24787221D01*
X40472778Y-24832991D01*
X40443448Y-24868729D01*
X40360186Y-24970186D01*
X40278758Y-25037011D01*
X40222991Y-25082778D01*
X40222989Y-25082779D01*
X40066467Y-25166443D01*
X40009853Y-25183616D01*
X39896627Y-25217963D01*
X39830443Y-25224481D01*
X39764260Y-25231000D01*
X39675740Y-25231000D01*
X39609557Y-25224481D01*
X39543373Y-25217963D01*
X39430147Y-25183616D01*
X39373533Y-25166443D01*
X39217011Y-25082779D01*
X39217009Y-25082778D01*
X39161242Y-25037011D01*
X39079814Y-24970186D01*
X38996552Y-24868729D01*
X38967222Y-24832991D01*
X38942757Y-24787221D01*
X38883557Y-24676467D01*
X38866384Y-24619853D01*
X38832037Y-24506627D01*
X38814641Y-24330000D01*
X38832037Y-24153373D01*
X38883557Y-23983534D01*
X38883557Y-23983533D01*
X38967221Y-23827011D01*
X38967222Y-23827009D01*
X38996552Y-23791271D01*
X39079814Y-23689814D01*
X39181271Y-23606552D01*
X39217009Y-23577222D01*
X39234913Y-23567652D01*
X39373533Y-23493557D01*
X39430147Y-23476384D01*
X39543373Y-23442037D01*
X39609557Y-23435519D01*
X39675740Y-23429000D01*
X39764260Y-23429000D01*
X39830443Y-23435519D01*
X39830443Y-23435519D01*
G37*
G36*
X44910443Y-23435519D02*
X44976627Y-23442037D01*
X45089853Y-23476384D01*
X45146467Y-23493557D01*
X45285087Y-23567652D01*
X45302991Y-23577222D01*
X45338729Y-23606552D01*
X45440186Y-23689814D01*
X45523448Y-23791271D01*
X45552778Y-23827009D01*
X45552779Y-23827011D01*
X45636443Y-23983533D01*
X45636443Y-23983534D01*
X45687963Y-24153373D01*
X45705359Y-24330000D01*
X45687963Y-24506627D01*
X45653616Y-24619853D01*
X45636443Y-24676467D01*
X45577243Y-24787221D01*
X45552778Y-24832991D01*
X45523448Y-24868729D01*
X45440186Y-24970186D01*
X45358758Y-25037011D01*
X45302991Y-25082778D01*
X45302989Y-25082779D01*
X45146467Y-25166443D01*
X45089853Y-25183616D01*
X44976627Y-25217963D01*
X44910443Y-25224481D01*
X44844260Y-25231000D01*
X44755740Y-25231000D01*
X44689557Y-25224481D01*
X44623373Y-25217963D01*
X44510147Y-25183616D01*
X44453533Y-25166443D01*
X44297011Y-25082779D01*
X44297009Y-25082778D01*
X44241242Y-25037011D01*
X44159814Y-24970186D01*
X44076552Y-24868729D01*
X44047222Y-24832991D01*
X44022757Y-24787221D01*
X43963557Y-24676467D01*
X43946384Y-24619853D01*
X43912037Y-24506627D01*
X43894641Y-24330000D01*
X43912037Y-24153373D01*
X43963557Y-23983534D01*
X43963557Y-23983533D01*
X44047221Y-23827011D01*
X44047222Y-23827009D01*
X44076552Y-23791271D01*
X44159814Y-23689814D01*
X44261271Y-23606552D01*
X44297009Y-23577222D01*
X44314913Y-23567652D01*
X44453533Y-23493557D01*
X44510147Y-23476384D01*
X44623373Y-23442037D01*
X44689557Y-23435519D01*
X44755740Y-23429000D01*
X44844260Y-23429000D01*
X44910443Y-23435519D01*
X44910443Y-23435519D01*
G37*
G36*
X34750443Y-23435519D02*
X34816627Y-23442037D01*
X34929853Y-23476384D01*
X34986467Y-23493557D01*
X35125087Y-23567652D01*
X35142991Y-23577222D01*
X35178729Y-23606552D01*
X35280186Y-23689814D01*
X35363448Y-23791271D01*
X35392778Y-23827009D01*
X35392779Y-23827011D01*
X35476443Y-23983533D01*
X35476443Y-23983534D01*
X35527963Y-24153373D01*
X35545359Y-24330000D01*
X35527963Y-24506627D01*
X35493616Y-24619853D01*
X35476443Y-24676467D01*
X35417243Y-24787221D01*
X35392778Y-24832991D01*
X35363448Y-24868729D01*
X35280186Y-24970186D01*
X35198758Y-25037011D01*
X35142991Y-25082778D01*
X35142989Y-25082779D01*
X34986467Y-25166443D01*
X34929853Y-25183616D01*
X34816627Y-25217963D01*
X34750443Y-25224481D01*
X34684260Y-25231000D01*
X34595740Y-25231000D01*
X34529557Y-25224481D01*
X34463373Y-25217963D01*
X34350147Y-25183616D01*
X34293533Y-25166443D01*
X34137011Y-25082779D01*
X34137009Y-25082778D01*
X34081242Y-25037011D01*
X33999814Y-24970186D01*
X33916552Y-24868729D01*
X33887222Y-24832991D01*
X33862757Y-24787221D01*
X33803557Y-24676467D01*
X33786384Y-24619853D01*
X33752037Y-24506627D01*
X33734641Y-24330000D01*
X33752037Y-24153373D01*
X33803557Y-23983534D01*
X33803557Y-23983533D01*
X33887221Y-23827011D01*
X33887222Y-23827009D01*
X33916552Y-23791271D01*
X33999814Y-23689814D01*
X34101271Y-23606552D01*
X34137009Y-23577222D01*
X34154913Y-23567652D01*
X34293533Y-23493557D01*
X34350147Y-23476384D01*
X34463373Y-23442037D01*
X34529557Y-23435519D01*
X34595740Y-23429000D01*
X34684260Y-23429000D01*
X34750443Y-23435519D01*
X34750443Y-23435519D01*
G37*
G36*
X25511000Y-23121000D02*
X23609000Y-23121000D01*
X23609000Y-21919000D01*
X25511000Y-21919000D01*
X25511000Y-23121000D01*
X25511000Y-23121000D01*
G37*
G36*
X29909315Y-21924166D02*
X29953845Y-21937675D01*
X29994891Y-21959614D01*
X30030864Y-21989136D01*
X30060386Y-22025109D01*
X30082325Y-22066155D01*
X30095834Y-22110685D01*
X30101000Y-22163140D01*
X30101000Y-22876860D01*
X30095834Y-22929315D01*
X30082325Y-22973845D01*
X30060386Y-23014891D01*
X30030864Y-23050864D01*
X29994891Y-23080386D01*
X29953845Y-23102325D01*
X29909315Y-23115834D01*
X29856860Y-23121000D01*
X28443140Y-23121000D01*
X28390685Y-23115834D01*
X28346155Y-23102325D01*
X28305109Y-23080386D01*
X28269136Y-23050864D01*
X28239614Y-23014891D01*
X28217675Y-22973845D01*
X28204166Y-22929315D01*
X28199000Y-22876860D01*
X28199000Y-22163140D01*
X28204166Y-22110685D01*
X28217675Y-22066155D01*
X28239614Y-22025109D01*
X28269136Y-21989136D01*
X28305109Y-21959614D01*
X28346155Y-21937675D01*
X28390685Y-21924166D01*
X28443140Y-21919000D01*
X29856860Y-21919000D01*
X29909315Y-21924166D01*
X29909315Y-21924166D01*
G37*
G36*
X54371142Y-20247618D02*
X54437327Y-20254137D01*
X54524234Y-20280500D01*
X54607167Y-20305657D01*
X54669780Y-20339125D01*
X54763691Y-20389322D01*
X54799429Y-20418652D01*
X54900886Y-20501914D01*
X54965789Y-20581000D01*
X55013478Y-20639109D01*
X55013479Y-20639111D01*
X55097143Y-20795633D01*
X55097143Y-20795634D01*
X55148663Y-20965473D01*
X55166059Y-21142100D01*
X55148663Y-21318727D01*
X55114316Y-21431953D01*
X55097143Y-21488567D01*
X55037802Y-21599585D01*
X55013478Y-21645091D01*
X54996732Y-21665496D01*
X54900886Y-21782286D01*
X54805702Y-21860400D01*
X54763691Y-21894878D01*
X54763689Y-21894879D01*
X54607167Y-21978543D01*
X54550553Y-21995716D01*
X54437327Y-22030063D01*
X54371143Y-22036581D01*
X54304960Y-22043100D01*
X54216440Y-22043100D01*
X54150258Y-22036582D01*
X54084073Y-22030063D01*
X53970847Y-21995716D01*
X53914233Y-21978543D01*
X53757711Y-21894879D01*
X53757709Y-21894878D01*
X53715698Y-21860400D01*
X53620514Y-21782286D01*
X53524668Y-21665496D01*
X53507922Y-21645091D01*
X53483598Y-21599585D01*
X53424257Y-21488567D01*
X53407084Y-21431953D01*
X53372737Y-21318727D01*
X53355341Y-21142100D01*
X53372737Y-20965473D01*
X53424257Y-20795634D01*
X53424257Y-20795633D01*
X53507921Y-20639111D01*
X53507922Y-20639109D01*
X53555611Y-20581000D01*
X53620514Y-20501914D01*
X53721971Y-20418652D01*
X53757709Y-20389322D01*
X53851620Y-20339125D01*
X53914233Y-20305657D01*
X53997166Y-20280500D01*
X54084073Y-20254137D01*
X54150258Y-20247618D01*
X54216440Y-20241100D01*
X54304960Y-20241100D01*
X54371142Y-20247618D01*
X54371142Y-20247618D01*
G37*
G36*
X51831142Y-20247618D02*
X51897327Y-20254137D01*
X51984234Y-20280500D01*
X52067167Y-20305657D01*
X52129780Y-20339125D01*
X52223691Y-20389322D01*
X52259429Y-20418652D01*
X52360886Y-20501914D01*
X52425789Y-20581000D01*
X52473478Y-20639109D01*
X52473479Y-20639111D01*
X52557143Y-20795633D01*
X52557143Y-20795634D01*
X52608663Y-20965473D01*
X52626059Y-21142100D01*
X52608663Y-21318727D01*
X52574316Y-21431953D01*
X52557143Y-21488567D01*
X52497802Y-21599585D01*
X52473478Y-21645091D01*
X52456732Y-21665496D01*
X52360886Y-21782286D01*
X52265702Y-21860400D01*
X52223691Y-21894878D01*
X52223689Y-21894879D01*
X52067167Y-21978543D01*
X52010553Y-21995716D01*
X51897327Y-22030063D01*
X51831143Y-22036581D01*
X51764960Y-22043100D01*
X51676440Y-22043100D01*
X51610258Y-22036582D01*
X51544073Y-22030063D01*
X51430847Y-21995716D01*
X51374233Y-21978543D01*
X51217711Y-21894879D01*
X51217709Y-21894878D01*
X51175698Y-21860400D01*
X51080514Y-21782286D01*
X50984668Y-21665496D01*
X50967922Y-21645091D01*
X50943598Y-21599585D01*
X50884257Y-21488567D01*
X50867084Y-21431953D01*
X50832737Y-21318727D01*
X50815341Y-21142100D01*
X50832737Y-20965473D01*
X50884257Y-20795634D01*
X50884257Y-20795633D01*
X50967921Y-20639111D01*
X50967922Y-20639109D01*
X51015611Y-20581000D01*
X51080514Y-20501914D01*
X51181971Y-20418652D01*
X51217709Y-20389322D01*
X51311620Y-20339125D01*
X51374233Y-20305657D01*
X51457166Y-20280500D01*
X51544073Y-20254137D01*
X51610258Y-20247618D01*
X51676440Y-20241100D01*
X51764960Y-20241100D01*
X51831142Y-20247618D01*
X51831142Y-20247618D01*
G37*
G36*
X50081700Y-22043100D02*
X48279700Y-22043100D01*
X48279700Y-20241100D01*
X50081700Y-20241100D01*
X50081700Y-22043100D01*
X50081700Y-22043100D01*
G37*
G36*
X61044042Y-20064918D02*
X61110227Y-20071437D01*
X61223453Y-20105784D01*
X61280067Y-20122957D01*
X61418687Y-20197052D01*
X61436591Y-20206622D01*
X61472329Y-20235952D01*
X61573786Y-20319214D01*
X61631320Y-20389321D01*
X61686378Y-20456409D01*
X61686379Y-20456411D01*
X61770043Y-20612933D01*
X61782551Y-20654166D01*
X61821563Y-20782773D01*
X61838959Y-20959400D01*
X61821563Y-21136027D01*
X61787216Y-21249253D01*
X61770043Y-21305867D01*
X61763170Y-21318725D01*
X61686378Y-21462391D01*
X61664896Y-21488567D01*
X61573786Y-21599586D01*
X61493473Y-21665496D01*
X61436591Y-21712178D01*
X61436589Y-21712179D01*
X61280067Y-21795843D01*
X61232124Y-21810386D01*
X61110227Y-21847363D01*
X61044042Y-21853882D01*
X60977860Y-21860400D01*
X60889340Y-21860400D01*
X60823158Y-21853882D01*
X60756973Y-21847363D01*
X60635076Y-21810386D01*
X60587133Y-21795843D01*
X60430611Y-21712179D01*
X60430609Y-21712178D01*
X60373727Y-21665496D01*
X60293414Y-21599586D01*
X60202304Y-21488567D01*
X60180822Y-21462391D01*
X60104030Y-21318725D01*
X60097157Y-21305867D01*
X60079984Y-21249253D01*
X60045637Y-21136027D01*
X60028241Y-20959400D01*
X60045637Y-20782773D01*
X60084649Y-20654166D01*
X60097157Y-20612933D01*
X60180821Y-20456411D01*
X60180822Y-20456409D01*
X60235880Y-20389321D01*
X60293414Y-20319214D01*
X60394871Y-20235952D01*
X60430609Y-20206622D01*
X60448513Y-20197052D01*
X60587133Y-20122957D01*
X60643747Y-20105784D01*
X60756973Y-20071437D01*
X60823158Y-20064918D01*
X60889340Y-20058400D01*
X60977860Y-20058400D01*
X61044042Y-20064918D01*
X61044042Y-20064918D01*
G37*
G36*
X59294600Y-21860400D02*
X57492600Y-21860400D01*
X57492600Y-20058400D01*
X59294600Y-20058400D01*
X59294600Y-21860400D01*
X59294600Y-21860400D01*
G37*
G36*
X23249315Y-20654166D02*
X23293845Y-20667675D01*
X23334891Y-20689614D01*
X23370864Y-20719136D01*
X23400386Y-20755109D01*
X23422325Y-20796155D01*
X23435834Y-20840685D01*
X23441000Y-20893140D01*
X23441000Y-21606860D01*
X23435834Y-21659315D01*
X23422326Y-21703842D01*
X23405632Y-21735074D01*
X23400386Y-21747739D01*
X23395612Y-21751657D01*
X23387372Y-21760747D01*
X23370861Y-21780867D01*
X23334891Y-21810386D01*
X23293845Y-21832325D01*
X23249315Y-21845834D01*
X23196860Y-21851000D01*
X21783140Y-21851000D01*
X21730685Y-21845834D01*
X21686155Y-21832325D01*
X21645109Y-21810386D01*
X21609136Y-21780864D01*
X21579614Y-21744891D01*
X21557675Y-21703845D01*
X21544166Y-21659315D01*
X21539000Y-21606860D01*
X21539000Y-20893140D01*
X21544166Y-20840685D01*
X21557675Y-20796155D01*
X21579614Y-20755109D01*
X21609136Y-20719136D01*
X21645109Y-20689614D01*
X21686155Y-20667675D01*
X21730685Y-20654166D01*
X21783140Y-20649000D01*
X23196860Y-20649000D01*
X23249315Y-20654166D01*
X23249315Y-20654166D01*
G37*
G36*
X31979315Y-20654166D02*
X32023845Y-20667675D01*
X32064891Y-20689614D01*
X32100864Y-20719136D01*
X32130386Y-20755109D01*
X32152325Y-20796155D01*
X32165834Y-20840685D01*
X32171000Y-20893140D01*
X32171000Y-21606860D01*
X32165834Y-21659315D01*
X32152325Y-21703845D01*
X32130386Y-21744891D01*
X32100864Y-21780864D01*
X32064891Y-21810386D01*
X32023845Y-21832325D01*
X31979315Y-21845834D01*
X31926860Y-21851000D01*
X30513140Y-21851000D01*
X30460685Y-21845834D01*
X30416155Y-21832325D01*
X30375109Y-21810386D01*
X30339136Y-21780864D01*
X30309614Y-21744891D01*
X30287675Y-21703845D01*
X30274166Y-21659315D01*
X30269000Y-21606860D01*
X30269000Y-20893140D01*
X30274166Y-20840685D01*
X30287674Y-20796158D01*
X30304368Y-20764926D01*
X30309614Y-20752261D01*
X30314388Y-20748343D01*
X30322628Y-20739253D01*
X30339139Y-20719133D01*
X30375109Y-20689614D01*
X30416155Y-20667675D01*
X30460685Y-20654166D01*
X30513140Y-20649000D01*
X31926860Y-20649000D01*
X31979315Y-20654166D01*
X31979315Y-20654166D01*
G37*
G36*
X25319315Y-19384166D02*
X25363845Y-19397675D01*
X25404891Y-19419614D01*
X25440864Y-19449136D01*
X25470386Y-19485109D01*
X25492325Y-19526155D01*
X25505834Y-19570685D01*
X25511000Y-19623140D01*
X25511000Y-20336860D01*
X25505834Y-20389315D01*
X25492325Y-20433845D01*
X25470386Y-20474891D01*
X25440864Y-20510864D01*
X25404891Y-20540386D01*
X25363845Y-20562325D01*
X25319315Y-20575834D01*
X25266860Y-20581000D01*
X23853140Y-20581000D01*
X23800685Y-20575834D01*
X23756155Y-20562325D01*
X23715109Y-20540386D01*
X23679136Y-20510864D01*
X23649614Y-20474891D01*
X23627675Y-20433845D01*
X23614166Y-20389315D01*
X23609000Y-20336860D01*
X23609000Y-19623140D01*
X23614166Y-19570685D01*
X23627675Y-19526155D01*
X23649614Y-19485109D01*
X23679136Y-19449136D01*
X23715109Y-19419614D01*
X23756155Y-19397675D01*
X23800685Y-19384166D01*
X23853140Y-19379000D01*
X25266860Y-19379000D01*
X25319315Y-19384166D01*
X25319315Y-19384166D01*
G37*
G36*
X30101000Y-20581000D02*
X28199000Y-20581000D01*
X28199000Y-19379000D01*
X30101000Y-19379000D01*
X30101000Y-20581000D01*
X30101000Y-20581000D01*
G37*
M02*
