G04 #@! TF.GenerationSoftware,KiCad,Pcbnew,5.0.1*
G04 #@! TF.CreationDate,2019-02-11T11:48:54+08:00*
G04 #@! TF.ProjectId,lab,6C61622E6B696361645F706362000000,rev?*
G04 #@! TF.SameCoordinates,Original*
G04 #@! TF.FileFunction,Paste,Top*
G04 #@! TF.FilePolarity,Positive*
%FSLAX46Y46*%
G04 Gerber Fmt 4.6, Leading zero omitted, Abs format (unit mm)*
G04 Created by KiCad (PCBNEW 5.0.1) date Mon 11 Feb 2019 11:48:54 AM +08*
%MOMM*%
%LPD*%
G01*
G04 APERTURE LIST*
%ADD10C,0.100000*%
%ADD11C,1.150000*%
G04 APERTURE END LIST*
D10*
G04 #@! TO.C,C7*
G36*
X48354505Y-37221204D02*
X48378773Y-37224804D01*
X48402572Y-37230765D01*
X48425671Y-37239030D01*
X48447850Y-37249520D01*
X48468893Y-37262132D01*
X48488599Y-37276747D01*
X48506777Y-37293223D01*
X48523253Y-37311401D01*
X48537868Y-37331107D01*
X48550480Y-37352150D01*
X48560970Y-37374329D01*
X48569235Y-37397428D01*
X48575196Y-37421227D01*
X48578796Y-37445495D01*
X48580000Y-37469999D01*
X48580000Y-38120001D01*
X48578796Y-38144505D01*
X48575196Y-38168773D01*
X48569235Y-38192572D01*
X48560970Y-38215671D01*
X48550480Y-38237850D01*
X48537868Y-38258893D01*
X48523253Y-38278599D01*
X48506777Y-38296777D01*
X48488599Y-38313253D01*
X48468893Y-38327868D01*
X48447850Y-38340480D01*
X48425671Y-38350970D01*
X48402572Y-38359235D01*
X48378773Y-38365196D01*
X48354505Y-38368796D01*
X48330001Y-38370000D01*
X47429999Y-38370000D01*
X47405495Y-38368796D01*
X47381227Y-38365196D01*
X47357428Y-38359235D01*
X47334329Y-38350970D01*
X47312150Y-38340480D01*
X47291107Y-38327868D01*
X47271401Y-38313253D01*
X47253223Y-38296777D01*
X47236747Y-38278599D01*
X47222132Y-38258893D01*
X47209520Y-38237850D01*
X47199030Y-38215671D01*
X47190765Y-38192572D01*
X47184804Y-38168773D01*
X47181204Y-38144505D01*
X47180000Y-38120001D01*
X47180000Y-37469999D01*
X47181204Y-37445495D01*
X47184804Y-37421227D01*
X47190765Y-37397428D01*
X47199030Y-37374329D01*
X47209520Y-37352150D01*
X47222132Y-37331107D01*
X47236747Y-37311401D01*
X47253223Y-37293223D01*
X47271401Y-37276747D01*
X47291107Y-37262132D01*
X47312150Y-37249520D01*
X47334329Y-37239030D01*
X47357428Y-37230765D01*
X47381227Y-37224804D01*
X47405495Y-37221204D01*
X47429999Y-37220000D01*
X48330001Y-37220000D01*
X48354505Y-37221204D01*
X48354505Y-37221204D01*
G37*
D11*
X47880000Y-37795000D03*
D10*
G36*
X48354505Y-39271204D02*
X48378773Y-39274804D01*
X48402572Y-39280765D01*
X48425671Y-39289030D01*
X48447850Y-39299520D01*
X48468893Y-39312132D01*
X48488599Y-39326747D01*
X48506777Y-39343223D01*
X48523253Y-39361401D01*
X48537868Y-39381107D01*
X48550480Y-39402150D01*
X48560970Y-39424329D01*
X48569235Y-39447428D01*
X48575196Y-39471227D01*
X48578796Y-39495495D01*
X48580000Y-39519999D01*
X48580000Y-40170001D01*
X48578796Y-40194505D01*
X48575196Y-40218773D01*
X48569235Y-40242572D01*
X48560970Y-40265671D01*
X48550480Y-40287850D01*
X48537868Y-40308893D01*
X48523253Y-40328599D01*
X48506777Y-40346777D01*
X48488599Y-40363253D01*
X48468893Y-40377868D01*
X48447850Y-40390480D01*
X48425671Y-40400970D01*
X48402572Y-40409235D01*
X48378773Y-40415196D01*
X48354505Y-40418796D01*
X48330001Y-40420000D01*
X47429999Y-40420000D01*
X47405495Y-40418796D01*
X47381227Y-40415196D01*
X47357428Y-40409235D01*
X47334329Y-40400970D01*
X47312150Y-40390480D01*
X47291107Y-40377868D01*
X47271401Y-40363253D01*
X47253223Y-40346777D01*
X47236747Y-40328599D01*
X47222132Y-40308893D01*
X47209520Y-40287850D01*
X47199030Y-40265671D01*
X47190765Y-40242572D01*
X47184804Y-40218773D01*
X47181204Y-40194505D01*
X47180000Y-40170001D01*
X47180000Y-39519999D01*
X47181204Y-39495495D01*
X47184804Y-39471227D01*
X47190765Y-39447428D01*
X47199030Y-39424329D01*
X47209520Y-39402150D01*
X47222132Y-39381107D01*
X47236747Y-39361401D01*
X47253223Y-39343223D01*
X47271401Y-39326747D01*
X47291107Y-39312132D01*
X47312150Y-39299520D01*
X47334329Y-39289030D01*
X47357428Y-39280765D01*
X47381227Y-39274804D01*
X47405495Y-39271204D01*
X47429999Y-39270000D01*
X48330001Y-39270000D01*
X48354505Y-39271204D01*
X48354505Y-39271204D01*
G37*
D11*
X47880000Y-39845000D03*
G04 #@! TD*
D10*
G04 #@! TO.C,C1*
G36*
X33315805Y-32541904D02*
X33340073Y-32545504D01*
X33363872Y-32551465D01*
X33386971Y-32559730D01*
X33409150Y-32570220D01*
X33430193Y-32582832D01*
X33449899Y-32597447D01*
X33468077Y-32613923D01*
X33484553Y-32632101D01*
X33499168Y-32651807D01*
X33511780Y-32672850D01*
X33522270Y-32695029D01*
X33530535Y-32718128D01*
X33536496Y-32741927D01*
X33540096Y-32766195D01*
X33541300Y-32790699D01*
X33541300Y-33690701D01*
X33540096Y-33715205D01*
X33536496Y-33739473D01*
X33530535Y-33763272D01*
X33522270Y-33786371D01*
X33511780Y-33808550D01*
X33499168Y-33829593D01*
X33484553Y-33849299D01*
X33468077Y-33867477D01*
X33449899Y-33883953D01*
X33430193Y-33898568D01*
X33409150Y-33911180D01*
X33386971Y-33921670D01*
X33363872Y-33929935D01*
X33340073Y-33935896D01*
X33315805Y-33939496D01*
X33291301Y-33940700D01*
X32641299Y-33940700D01*
X32616795Y-33939496D01*
X32592527Y-33935896D01*
X32568728Y-33929935D01*
X32545629Y-33921670D01*
X32523450Y-33911180D01*
X32502407Y-33898568D01*
X32482701Y-33883953D01*
X32464523Y-33867477D01*
X32448047Y-33849299D01*
X32433432Y-33829593D01*
X32420820Y-33808550D01*
X32410330Y-33786371D01*
X32402065Y-33763272D01*
X32396104Y-33739473D01*
X32392504Y-33715205D01*
X32391300Y-33690701D01*
X32391300Y-32790699D01*
X32392504Y-32766195D01*
X32396104Y-32741927D01*
X32402065Y-32718128D01*
X32410330Y-32695029D01*
X32420820Y-32672850D01*
X32433432Y-32651807D01*
X32448047Y-32632101D01*
X32464523Y-32613923D01*
X32482701Y-32597447D01*
X32502407Y-32582832D01*
X32523450Y-32570220D01*
X32545629Y-32559730D01*
X32568728Y-32551465D01*
X32592527Y-32545504D01*
X32616795Y-32541904D01*
X32641299Y-32540700D01*
X33291301Y-32540700D01*
X33315805Y-32541904D01*
X33315805Y-32541904D01*
G37*
D11*
X32966300Y-33240700D03*
D10*
G36*
X31265805Y-32541904D02*
X31290073Y-32545504D01*
X31313872Y-32551465D01*
X31336971Y-32559730D01*
X31359150Y-32570220D01*
X31380193Y-32582832D01*
X31399899Y-32597447D01*
X31418077Y-32613923D01*
X31434553Y-32632101D01*
X31449168Y-32651807D01*
X31461780Y-32672850D01*
X31472270Y-32695029D01*
X31480535Y-32718128D01*
X31486496Y-32741927D01*
X31490096Y-32766195D01*
X31491300Y-32790699D01*
X31491300Y-33690701D01*
X31490096Y-33715205D01*
X31486496Y-33739473D01*
X31480535Y-33763272D01*
X31472270Y-33786371D01*
X31461780Y-33808550D01*
X31449168Y-33829593D01*
X31434553Y-33849299D01*
X31418077Y-33867477D01*
X31399899Y-33883953D01*
X31380193Y-33898568D01*
X31359150Y-33911180D01*
X31336971Y-33921670D01*
X31313872Y-33929935D01*
X31290073Y-33935896D01*
X31265805Y-33939496D01*
X31241301Y-33940700D01*
X30591299Y-33940700D01*
X30566795Y-33939496D01*
X30542527Y-33935896D01*
X30518728Y-33929935D01*
X30495629Y-33921670D01*
X30473450Y-33911180D01*
X30452407Y-33898568D01*
X30432701Y-33883953D01*
X30414523Y-33867477D01*
X30398047Y-33849299D01*
X30383432Y-33829593D01*
X30370820Y-33808550D01*
X30360330Y-33786371D01*
X30352065Y-33763272D01*
X30346104Y-33739473D01*
X30342504Y-33715205D01*
X30341300Y-33690701D01*
X30341300Y-32790699D01*
X30342504Y-32766195D01*
X30346104Y-32741927D01*
X30352065Y-32718128D01*
X30360330Y-32695029D01*
X30370820Y-32672850D01*
X30383432Y-32651807D01*
X30398047Y-32632101D01*
X30414523Y-32613923D01*
X30432701Y-32597447D01*
X30452407Y-32582832D01*
X30473450Y-32570220D01*
X30495629Y-32559730D01*
X30518728Y-32551465D01*
X30542527Y-32545504D01*
X30566795Y-32541904D01*
X30591299Y-32540700D01*
X31241301Y-32540700D01*
X31265805Y-32541904D01*
X31265805Y-32541904D01*
G37*
D11*
X30916300Y-33240700D03*
G04 #@! TD*
D10*
G04 #@! TO.C,C2*
G36*
X59165305Y-23477904D02*
X59189573Y-23481504D01*
X59213372Y-23487465D01*
X59236471Y-23495730D01*
X59258650Y-23506220D01*
X59279693Y-23518832D01*
X59299399Y-23533447D01*
X59317577Y-23549923D01*
X59334053Y-23568101D01*
X59348668Y-23587807D01*
X59361280Y-23608850D01*
X59371770Y-23631029D01*
X59380035Y-23654128D01*
X59385996Y-23677927D01*
X59389596Y-23702195D01*
X59390800Y-23726699D01*
X59390800Y-24626701D01*
X59389596Y-24651205D01*
X59385996Y-24675473D01*
X59380035Y-24699272D01*
X59371770Y-24722371D01*
X59361280Y-24744550D01*
X59348668Y-24765593D01*
X59334053Y-24785299D01*
X59317577Y-24803477D01*
X59299399Y-24819953D01*
X59279693Y-24834568D01*
X59258650Y-24847180D01*
X59236471Y-24857670D01*
X59213372Y-24865935D01*
X59189573Y-24871896D01*
X59165305Y-24875496D01*
X59140801Y-24876700D01*
X58490799Y-24876700D01*
X58466295Y-24875496D01*
X58442027Y-24871896D01*
X58418228Y-24865935D01*
X58395129Y-24857670D01*
X58372950Y-24847180D01*
X58351907Y-24834568D01*
X58332201Y-24819953D01*
X58314023Y-24803477D01*
X58297547Y-24785299D01*
X58282932Y-24765593D01*
X58270320Y-24744550D01*
X58259830Y-24722371D01*
X58251565Y-24699272D01*
X58245604Y-24675473D01*
X58242004Y-24651205D01*
X58240800Y-24626701D01*
X58240800Y-23726699D01*
X58242004Y-23702195D01*
X58245604Y-23677927D01*
X58251565Y-23654128D01*
X58259830Y-23631029D01*
X58270320Y-23608850D01*
X58282932Y-23587807D01*
X58297547Y-23568101D01*
X58314023Y-23549923D01*
X58332201Y-23533447D01*
X58351907Y-23518832D01*
X58372950Y-23506220D01*
X58395129Y-23495730D01*
X58418228Y-23487465D01*
X58442027Y-23481504D01*
X58466295Y-23477904D01*
X58490799Y-23476700D01*
X59140801Y-23476700D01*
X59165305Y-23477904D01*
X59165305Y-23477904D01*
G37*
D11*
X58815800Y-24176700D03*
D10*
G36*
X61215305Y-23477904D02*
X61239573Y-23481504D01*
X61263372Y-23487465D01*
X61286471Y-23495730D01*
X61308650Y-23506220D01*
X61329693Y-23518832D01*
X61349399Y-23533447D01*
X61367577Y-23549923D01*
X61384053Y-23568101D01*
X61398668Y-23587807D01*
X61411280Y-23608850D01*
X61421770Y-23631029D01*
X61430035Y-23654128D01*
X61435996Y-23677927D01*
X61439596Y-23702195D01*
X61440800Y-23726699D01*
X61440800Y-24626701D01*
X61439596Y-24651205D01*
X61435996Y-24675473D01*
X61430035Y-24699272D01*
X61421770Y-24722371D01*
X61411280Y-24744550D01*
X61398668Y-24765593D01*
X61384053Y-24785299D01*
X61367577Y-24803477D01*
X61349399Y-24819953D01*
X61329693Y-24834568D01*
X61308650Y-24847180D01*
X61286471Y-24857670D01*
X61263372Y-24865935D01*
X61239573Y-24871896D01*
X61215305Y-24875496D01*
X61190801Y-24876700D01*
X60540799Y-24876700D01*
X60516295Y-24875496D01*
X60492027Y-24871896D01*
X60468228Y-24865935D01*
X60445129Y-24857670D01*
X60422950Y-24847180D01*
X60401907Y-24834568D01*
X60382201Y-24819953D01*
X60364023Y-24803477D01*
X60347547Y-24785299D01*
X60332932Y-24765593D01*
X60320320Y-24744550D01*
X60309830Y-24722371D01*
X60301565Y-24699272D01*
X60295604Y-24675473D01*
X60292004Y-24651205D01*
X60290800Y-24626701D01*
X60290800Y-23726699D01*
X60292004Y-23702195D01*
X60295604Y-23677927D01*
X60301565Y-23654128D01*
X60309830Y-23631029D01*
X60320320Y-23608850D01*
X60332932Y-23587807D01*
X60347547Y-23568101D01*
X60364023Y-23549923D01*
X60382201Y-23533447D01*
X60401907Y-23518832D01*
X60422950Y-23506220D01*
X60445129Y-23495730D01*
X60468228Y-23487465D01*
X60492027Y-23481504D01*
X60516295Y-23477904D01*
X60540799Y-23476700D01*
X61190801Y-23476700D01*
X61215305Y-23477904D01*
X61215305Y-23477904D01*
G37*
D11*
X60865800Y-24176700D03*
G04 #@! TD*
D10*
G04 #@! TO.C,C4*
G36*
X40540605Y-32423504D02*
X40564873Y-32427104D01*
X40588672Y-32433065D01*
X40611771Y-32441330D01*
X40633950Y-32451820D01*
X40654993Y-32464432D01*
X40674699Y-32479047D01*
X40692877Y-32495523D01*
X40709353Y-32513701D01*
X40723968Y-32533407D01*
X40736580Y-32554450D01*
X40747070Y-32576629D01*
X40755335Y-32599728D01*
X40761296Y-32623527D01*
X40764896Y-32647795D01*
X40766100Y-32672299D01*
X40766100Y-33322301D01*
X40764896Y-33346805D01*
X40761296Y-33371073D01*
X40755335Y-33394872D01*
X40747070Y-33417971D01*
X40736580Y-33440150D01*
X40723968Y-33461193D01*
X40709353Y-33480899D01*
X40692877Y-33499077D01*
X40674699Y-33515553D01*
X40654993Y-33530168D01*
X40633950Y-33542780D01*
X40611771Y-33553270D01*
X40588672Y-33561535D01*
X40564873Y-33567496D01*
X40540605Y-33571096D01*
X40516101Y-33572300D01*
X39616099Y-33572300D01*
X39591595Y-33571096D01*
X39567327Y-33567496D01*
X39543528Y-33561535D01*
X39520429Y-33553270D01*
X39498250Y-33542780D01*
X39477207Y-33530168D01*
X39457501Y-33515553D01*
X39439323Y-33499077D01*
X39422847Y-33480899D01*
X39408232Y-33461193D01*
X39395620Y-33440150D01*
X39385130Y-33417971D01*
X39376865Y-33394872D01*
X39370904Y-33371073D01*
X39367304Y-33346805D01*
X39366100Y-33322301D01*
X39366100Y-32672299D01*
X39367304Y-32647795D01*
X39370904Y-32623527D01*
X39376865Y-32599728D01*
X39385130Y-32576629D01*
X39395620Y-32554450D01*
X39408232Y-32533407D01*
X39422847Y-32513701D01*
X39439323Y-32495523D01*
X39457501Y-32479047D01*
X39477207Y-32464432D01*
X39498250Y-32451820D01*
X39520429Y-32441330D01*
X39543528Y-32433065D01*
X39567327Y-32427104D01*
X39591595Y-32423504D01*
X39616099Y-32422300D01*
X40516101Y-32422300D01*
X40540605Y-32423504D01*
X40540605Y-32423504D01*
G37*
D11*
X40066100Y-32997300D03*
D10*
G36*
X40540605Y-30373504D02*
X40564873Y-30377104D01*
X40588672Y-30383065D01*
X40611771Y-30391330D01*
X40633950Y-30401820D01*
X40654993Y-30414432D01*
X40674699Y-30429047D01*
X40692877Y-30445523D01*
X40709353Y-30463701D01*
X40723968Y-30483407D01*
X40736580Y-30504450D01*
X40747070Y-30526629D01*
X40755335Y-30549728D01*
X40761296Y-30573527D01*
X40764896Y-30597795D01*
X40766100Y-30622299D01*
X40766100Y-31272301D01*
X40764896Y-31296805D01*
X40761296Y-31321073D01*
X40755335Y-31344872D01*
X40747070Y-31367971D01*
X40736580Y-31390150D01*
X40723968Y-31411193D01*
X40709353Y-31430899D01*
X40692877Y-31449077D01*
X40674699Y-31465553D01*
X40654993Y-31480168D01*
X40633950Y-31492780D01*
X40611771Y-31503270D01*
X40588672Y-31511535D01*
X40564873Y-31517496D01*
X40540605Y-31521096D01*
X40516101Y-31522300D01*
X39616099Y-31522300D01*
X39591595Y-31521096D01*
X39567327Y-31517496D01*
X39543528Y-31511535D01*
X39520429Y-31503270D01*
X39498250Y-31492780D01*
X39477207Y-31480168D01*
X39457501Y-31465553D01*
X39439323Y-31449077D01*
X39422847Y-31430899D01*
X39408232Y-31411193D01*
X39395620Y-31390150D01*
X39385130Y-31367971D01*
X39376865Y-31344872D01*
X39370904Y-31321073D01*
X39367304Y-31296805D01*
X39366100Y-31272301D01*
X39366100Y-30622299D01*
X39367304Y-30597795D01*
X39370904Y-30573527D01*
X39376865Y-30549728D01*
X39385130Y-30526629D01*
X39395620Y-30504450D01*
X39408232Y-30483407D01*
X39422847Y-30463701D01*
X39439323Y-30445523D01*
X39457501Y-30429047D01*
X39477207Y-30414432D01*
X39498250Y-30401820D01*
X39520429Y-30391330D01*
X39543528Y-30383065D01*
X39567327Y-30377104D01*
X39591595Y-30373504D01*
X39616099Y-30372300D01*
X40516101Y-30372300D01*
X40540605Y-30373504D01*
X40540605Y-30373504D01*
G37*
D11*
X40066100Y-30947300D03*
G04 #@! TD*
D10*
G04 #@! TO.C,C5*
G36*
X61222705Y-44825204D02*
X61246973Y-44828804D01*
X61270772Y-44834765D01*
X61293871Y-44843030D01*
X61316050Y-44853520D01*
X61337093Y-44866132D01*
X61356799Y-44880747D01*
X61374977Y-44897223D01*
X61391453Y-44915401D01*
X61406068Y-44935107D01*
X61418680Y-44956150D01*
X61429170Y-44978329D01*
X61437435Y-45001428D01*
X61443396Y-45025227D01*
X61446996Y-45049495D01*
X61448200Y-45073999D01*
X61448200Y-45724001D01*
X61446996Y-45748505D01*
X61443396Y-45772773D01*
X61437435Y-45796572D01*
X61429170Y-45819671D01*
X61418680Y-45841850D01*
X61406068Y-45862893D01*
X61391453Y-45882599D01*
X61374977Y-45900777D01*
X61356799Y-45917253D01*
X61337093Y-45931868D01*
X61316050Y-45944480D01*
X61293871Y-45954970D01*
X61270772Y-45963235D01*
X61246973Y-45969196D01*
X61222705Y-45972796D01*
X61198201Y-45974000D01*
X60298199Y-45974000D01*
X60273695Y-45972796D01*
X60249427Y-45969196D01*
X60225628Y-45963235D01*
X60202529Y-45954970D01*
X60180350Y-45944480D01*
X60159307Y-45931868D01*
X60139601Y-45917253D01*
X60121423Y-45900777D01*
X60104947Y-45882599D01*
X60090332Y-45862893D01*
X60077720Y-45841850D01*
X60067230Y-45819671D01*
X60058965Y-45796572D01*
X60053004Y-45772773D01*
X60049404Y-45748505D01*
X60048200Y-45724001D01*
X60048200Y-45073999D01*
X60049404Y-45049495D01*
X60053004Y-45025227D01*
X60058965Y-45001428D01*
X60067230Y-44978329D01*
X60077720Y-44956150D01*
X60090332Y-44935107D01*
X60104947Y-44915401D01*
X60121423Y-44897223D01*
X60139601Y-44880747D01*
X60159307Y-44866132D01*
X60180350Y-44853520D01*
X60202529Y-44843030D01*
X60225628Y-44834765D01*
X60249427Y-44828804D01*
X60273695Y-44825204D01*
X60298199Y-44824000D01*
X61198201Y-44824000D01*
X61222705Y-44825204D01*
X61222705Y-44825204D01*
G37*
D11*
X60748200Y-45399000D03*
D10*
G36*
X61222705Y-42775204D02*
X61246973Y-42778804D01*
X61270772Y-42784765D01*
X61293871Y-42793030D01*
X61316050Y-42803520D01*
X61337093Y-42816132D01*
X61356799Y-42830747D01*
X61374977Y-42847223D01*
X61391453Y-42865401D01*
X61406068Y-42885107D01*
X61418680Y-42906150D01*
X61429170Y-42928329D01*
X61437435Y-42951428D01*
X61443396Y-42975227D01*
X61446996Y-42999495D01*
X61448200Y-43023999D01*
X61448200Y-43674001D01*
X61446996Y-43698505D01*
X61443396Y-43722773D01*
X61437435Y-43746572D01*
X61429170Y-43769671D01*
X61418680Y-43791850D01*
X61406068Y-43812893D01*
X61391453Y-43832599D01*
X61374977Y-43850777D01*
X61356799Y-43867253D01*
X61337093Y-43881868D01*
X61316050Y-43894480D01*
X61293871Y-43904970D01*
X61270772Y-43913235D01*
X61246973Y-43919196D01*
X61222705Y-43922796D01*
X61198201Y-43924000D01*
X60298199Y-43924000D01*
X60273695Y-43922796D01*
X60249427Y-43919196D01*
X60225628Y-43913235D01*
X60202529Y-43904970D01*
X60180350Y-43894480D01*
X60159307Y-43881868D01*
X60139601Y-43867253D01*
X60121423Y-43850777D01*
X60104947Y-43832599D01*
X60090332Y-43812893D01*
X60077720Y-43791850D01*
X60067230Y-43769671D01*
X60058965Y-43746572D01*
X60053004Y-43722773D01*
X60049404Y-43698505D01*
X60048200Y-43674001D01*
X60048200Y-43023999D01*
X60049404Y-42999495D01*
X60053004Y-42975227D01*
X60058965Y-42951428D01*
X60067230Y-42928329D01*
X60077720Y-42906150D01*
X60090332Y-42885107D01*
X60104947Y-42865401D01*
X60121423Y-42847223D01*
X60139601Y-42830747D01*
X60159307Y-42816132D01*
X60180350Y-42803520D01*
X60202529Y-42793030D01*
X60225628Y-42784765D01*
X60249427Y-42778804D01*
X60273695Y-42775204D01*
X60298199Y-42774000D01*
X61198201Y-42774000D01*
X61222705Y-42775204D01*
X61222705Y-42775204D01*
G37*
D11*
X60748200Y-43349000D03*
G04 #@! TD*
D10*
G04 #@! TO.C,C6*
G36*
X27298005Y-42764104D02*
X27322273Y-42767704D01*
X27346072Y-42773665D01*
X27369171Y-42781930D01*
X27391350Y-42792420D01*
X27412393Y-42805032D01*
X27432099Y-42819647D01*
X27450277Y-42836123D01*
X27466753Y-42854301D01*
X27481368Y-42874007D01*
X27493980Y-42895050D01*
X27504470Y-42917229D01*
X27512735Y-42940328D01*
X27518696Y-42964127D01*
X27522296Y-42988395D01*
X27523500Y-43012899D01*
X27523500Y-43912901D01*
X27522296Y-43937405D01*
X27518696Y-43961673D01*
X27512735Y-43985472D01*
X27504470Y-44008571D01*
X27493980Y-44030750D01*
X27481368Y-44051793D01*
X27466753Y-44071499D01*
X27450277Y-44089677D01*
X27432099Y-44106153D01*
X27412393Y-44120768D01*
X27391350Y-44133380D01*
X27369171Y-44143870D01*
X27346072Y-44152135D01*
X27322273Y-44158096D01*
X27298005Y-44161696D01*
X27273501Y-44162900D01*
X26623499Y-44162900D01*
X26598995Y-44161696D01*
X26574727Y-44158096D01*
X26550928Y-44152135D01*
X26527829Y-44143870D01*
X26505650Y-44133380D01*
X26484607Y-44120768D01*
X26464901Y-44106153D01*
X26446723Y-44089677D01*
X26430247Y-44071499D01*
X26415632Y-44051793D01*
X26403020Y-44030750D01*
X26392530Y-44008571D01*
X26384265Y-43985472D01*
X26378304Y-43961673D01*
X26374704Y-43937405D01*
X26373500Y-43912901D01*
X26373500Y-43012899D01*
X26374704Y-42988395D01*
X26378304Y-42964127D01*
X26384265Y-42940328D01*
X26392530Y-42917229D01*
X26403020Y-42895050D01*
X26415632Y-42874007D01*
X26430247Y-42854301D01*
X26446723Y-42836123D01*
X26464901Y-42819647D01*
X26484607Y-42805032D01*
X26505650Y-42792420D01*
X26527829Y-42781930D01*
X26550928Y-42773665D01*
X26574727Y-42767704D01*
X26598995Y-42764104D01*
X26623499Y-42762900D01*
X27273501Y-42762900D01*
X27298005Y-42764104D01*
X27298005Y-42764104D01*
G37*
D11*
X26948500Y-43462900D03*
D10*
G36*
X25248005Y-42764104D02*
X25272273Y-42767704D01*
X25296072Y-42773665D01*
X25319171Y-42781930D01*
X25341350Y-42792420D01*
X25362393Y-42805032D01*
X25382099Y-42819647D01*
X25400277Y-42836123D01*
X25416753Y-42854301D01*
X25431368Y-42874007D01*
X25443980Y-42895050D01*
X25454470Y-42917229D01*
X25462735Y-42940328D01*
X25468696Y-42964127D01*
X25472296Y-42988395D01*
X25473500Y-43012899D01*
X25473500Y-43912901D01*
X25472296Y-43937405D01*
X25468696Y-43961673D01*
X25462735Y-43985472D01*
X25454470Y-44008571D01*
X25443980Y-44030750D01*
X25431368Y-44051793D01*
X25416753Y-44071499D01*
X25400277Y-44089677D01*
X25382099Y-44106153D01*
X25362393Y-44120768D01*
X25341350Y-44133380D01*
X25319171Y-44143870D01*
X25296072Y-44152135D01*
X25272273Y-44158096D01*
X25248005Y-44161696D01*
X25223501Y-44162900D01*
X24573499Y-44162900D01*
X24548995Y-44161696D01*
X24524727Y-44158096D01*
X24500928Y-44152135D01*
X24477829Y-44143870D01*
X24455650Y-44133380D01*
X24434607Y-44120768D01*
X24414901Y-44106153D01*
X24396723Y-44089677D01*
X24380247Y-44071499D01*
X24365632Y-44051793D01*
X24353020Y-44030750D01*
X24342530Y-44008571D01*
X24334265Y-43985472D01*
X24328304Y-43961673D01*
X24324704Y-43937405D01*
X24323500Y-43912901D01*
X24323500Y-43012899D01*
X24324704Y-42988395D01*
X24328304Y-42964127D01*
X24334265Y-42940328D01*
X24342530Y-42917229D01*
X24353020Y-42895050D01*
X24365632Y-42874007D01*
X24380247Y-42854301D01*
X24396723Y-42836123D01*
X24414901Y-42819647D01*
X24434607Y-42805032D01*
X24455650Y-42792420D01*
X24477829Y-42781930D01*
X24500928Y-42773665D01*
X24524727Y-42767704D01*
X24548995Y-42764104D01*
X24573499Y-42762900D01*
X25223501Y-42762900D01*
X25248005Y-42764104D01*
X25248005Y-42764104D01*
G37*
D11*
X24898500Y-43462900D03*
G04 #@! TD*
D10*
G04 #@! TO.C,D1*
G36*
X56024505Y-32361204D02*
X56048773Y-32364804D01*
X56072572Y-32370765D01*
X56095671Y-32379030D01*
X56117850Y-32389520D01*
X56138893Y-32402132D01*
X56158599Y-32416747D01*
X56176777Y-32433223D01*
X56193253Y-32451401D01*
X56207868Y-32471107D01*
X56220480Y-32492150D01*
X56230970Y-32514329D01*
X56239235Y-32537428D01*
X56245196Y-32561227D01*
X56248796Y-32585495D01*
X56250000Y-32609999D01*
X56250000Y-33260001D01*
X56248796Y-33284505D01*
X56245196Y-33308773D01*
X56239235Y-33332572D01*
X56230970Y-33355671D01*
X56220480Y-33377850D01*
X56207868Y-33398893D01*
X56193253Y-33418599D01*
X56176777Y-33436777D01*
X56158599Y-33453253D01*
X56138893Y-33467868D01*
X56117850Y-33480480D01*
X56095671Y-33490970D01*
X56072572Y-33499235D01*
X56048773Y-33505196D01*
X56024505Y-33508796D01*
X56000001Y-33510000D01*
X55099999Y-33510000D01*
X55075495Y-33508796D01*
X55051227Y-33505196D01*
X55027428Y-33499235D01*
X55004329Y-33490970D01*
X54982150Y-33480480D01*
X54961107Y-33467868D01*
X54941401Y-33453253D01*
X54923223Y-33436777D01*
X54906747Y-33418599D01*
X54892132Y-33398893D01*
X54879520Y-33377850D01*
X54869030Y-33355671D01*
X54860765Y-33332572D01*
X54854804Y-33308773D01*
X54851204Y-33284505D01*
X54850000Y-33260001D01*
X54850000Y-32609999D01*
X54851204Y-32585495D01*
X54854804Y-32561227D01*
X54860765Y-32537428D01*
X54869030Y-32514329D01*
X54879520Y-32492150D01*
X54892132Y-32471107D01*
X54906747Y-32451401D01*
X54923223Y-32433223D01*
X54941401Y-32416747D01*
X54961107Y-32402132D01*
X54982150Y-32389520D01*
X55004329Y-32379030D01*
X55027428Y-32370765D01*
X55051227Y-32364804D01*
X55075495Y-32361204D01*
X55099999Y-32360000D01*
X56000001Y-32360000D01*
X56024505Y-32361204D01*
X56024505Y-32361204D01*
G37*
D11*
X55550000Y-32935000D03*
D10*
G36*
X56024505Y-30311204D02*
X56048773Y-30314804D01*
X56072572Y-30320765D01*
X56095671Y-30329030D01*
X56117850Y-30339520D01*
X56138893Y-30352132D01*
X56158599Y-30366747D01*
X56176777Y-30383223D01*
X56193253Y-30401401D01*
X56207868Y-30421107D01*
X56220480Y-30442150D01*
X56230970Y-30464329D01*
X56239235Y-30487428D01*
X56245196Y-30511227D01*
X56248796Y-30535495D01*
X56250000Y-30559999D01*
X56250000Y-31210001D01*
X56248796Y-31234505D01*
X56245196Y-31258773D01*
X56239235Y-31282572D01*
X56230970Y-31305671D01*
X56220480Y-31327850D01*
X56207868Y-31348893D01*
X56193253Y-31368599D01*
X56176777Y-31386777D01*
X56158599Y-31403253D01*
X56138893Y-31417868D01*
X56117850Y-31430480D01*
X56095671Y-31440970D01*
X56072572Y-31449235D01*
X56048773Y-31455196D01*
X56024505Y-31458796D01*
X56000001Y-31460000D01*
X55099999Y-31460000D01*
X55075495Y-31458796D01*
X55051227Y-31455196D01*
X55027428Y-31449235D01*
X55004329Y-31440970D01*
X54982150Y-31430480D01*
X54961107Y-31417868D01*
X54941401Y-31403253D01*
X54923223Y-31386777D01*
X54906747Y-31368599D01*
X54892132Y-31348893D01*
X54879520Y-31327850D01*
X54869030Y-31305671D01*
X54860765Y-31282572D01*
X54854804Y-31258773D01*
X54851204Y-31234505D01*
X54850000Y-31210001D01*
X54850000Y-30559999D01*
X54851204Y-30535495D01*
X54854804Y-30511227D01*
X54860765Y-30487428D01*
X54869030Y-30464329D01*
X54879520Y-30442150D01*
X54892132Y-30421107D01*
X54906747Y-30401401D01*
X54923223Y-30383223D01*
X54941401Y-30366747D01*
X54961107Y-30352132D01*
X54982150Y-30339520D01*
X55004329Y-30329030D01*
X55027428Y-30320765D01*
X55051227Y-30314804D01*
X55075495Y-30311204D01*
X55099999Y-30310000D01*
X56000001Y-30310000D01*
X56024505Y-30311204D01*
X56024505Y-30311204D01*
G37*
D11*
X55550000Y-30885000D03*
G04 #@! TD*
D10*
G04 #@! TO.C,R1*
G36*
X47817805Y-24749904D02*
X47842073Y-24753504D01*
X47865872Y-24759465D01*
X47888971Y-24767730D01*
X47911150Y-24778220D01*
X47932193Y-24790832D01*
X47951899Y-24805447D01*
X47970077Y-24821923D01*
X47986553Y-24840101D01*
X48001168Y-24859807D01*
X48013780Y-24880850D01*
X48024270Y-24903029D01*
X48032535Y-24926128D01*
X48038496Y-24949927D01*
X48042096Y-24974195D01*
X48043300Y-24998699D01*
X48043300Y-25898701D01*
X48042096Y-25923205D01*
X48038496Y-25947473D01*
X48032535Y-25971272D01*
X48024270Y-25994371D01*
X48013780Y-26016550D01*
X48001168Y-26037593D01*
X47986553Y-26057299D01*
X47970077Y-26075477D01*
X47951899Y-26091953D01*
X47932193Y-26106568D01*
X47911150Y-26119180D01*
X47888971Y-26129670D01*
X47865872Y-26137935D01*
X47842073Y-26143896D01*
X47817805Y-26147496D01*
X47793301Y-26148700D01*
X47143299Y-26148700D01*
X47118795Y-26147496D01*
X47094527Y-26143896D01*
X47070728Y-26137935D01*
X47047629Y-26129670D01*
X47025450Y-26119180D01*
X47004407Y-26106568D01*
X46984701Y-26091953D01*
X46966523Y-26075477D01*
X46950047Y-26057299D01*
X46935432Y-26037593D01*
X46922820Y-26016550D01*
X46912330Y-25994371D01*
X46904065Y-25971272D01*
X46898104Y-25947473D01*
X46894504Y-25923205D01*
X46893300Y-25898701D01*
X46893300Y-24998699D01*
X46894504Y-24974195D01*
X46898104Y-24949927D01*
X46904065Y-24926128D01*
X46912330Y-24903029D01*
X46922820Y-24880850D01*
X46935432Y-24859807D01*
X46950047Y-24840101D01*
X46966523Y-24821923D01*
X46984701Y-24805447D01*
X47004407Y-24790832D01*
X47025450Y-24778220D01*
X47047629Y-24767730D01*
X47070728Y-24759465D01*
X47094527Y-24753504D01*
X47118795Y-24749904D01*
X47143299Y-24748700D01*
X47793301Y-24748700D01*
X47817805Y-24749904D01*
X47817805Y-24749904D01*
G37*
D11*
X47468300Y-25448700D03*
D10*
G36*
X49867805Y-24749904D02*
X49892073Y-24753504D01*
X49915872Y-24759465D01*
X49938971Y-24767730D01*
X49961150Y-24778220D01*
X49982193Y-24790832D01*
X50001899Y-24805447D01*
X50020077Y-24821923D01*
X50036553Y-24840101D01*
X50051168Y-24859807D01*
X50063780Y-24880850D01*
X50074270Y-24903029D01*
X50082535Y-24926128D01*
X50088496Y-24949927D01*
X50092096Y-24974195D01*
X50093300Y-24998699D01*
X50093300Y-25898701D01*
X50092096Y-25923205D01*
X50088496Y-25947473D01*
X50082535Y-25971272D01*
X50074270Y-25994371D01*
X50063780Y-26016550D01*
X50051168Y-26037593D01*
X50036553Y-26057299D01*
X50020077Y-26075477D01*
X50001899Y-26091953D01*
X49982193Y-26106568D01*
X49961150Y-26119180D01*
X49938971Y-26129670D01*
X49915872Y-26137935D01*
X49892073Y-26143896D01*
X49867805Y-26147496D01*
X49843301Y-26148700D01*
X49193299Y-26148700D01*
X49168795Y-26147496D01*
X49144527Y-26143896D01*
X49120728Y-26137935D01*
X49097629Y-26129670D01*
X49075450Y-26119180D01*
X49054407Y-26106568D01*
X49034701Y-26091953D01*
X49016523Y-26075477D01*
X49000047Y-26057299D01*
X48985432Y-26037593D01*
X48972820Y-26016550D01*
X48962330Y-25994371D01*
X48954065Y-25971272D01*
X48948104Y-25947473D01*
X48944504Y-25923205D01*
X48943300Y-25898701D01*
X48943300Y-24998699D01*
X48944504Y-24974195D01*
X48948104Y-24949927D01*
X48954065Y-24926128D01*
X48962330Y-24903029D01*
X48972820Y-24880850D01*
X48985432Y-24859807D01*
X49000047Y-24840101D01*
X49016523Y-24821923D01*
X49034701Y-24805447D01*
X49054407Y-24790832D01*
X49075450Y-24778220D01*
X49097629Y-24767730D01*
X49120728Y-24759465D01*
X49144527Y-24753504D01*
X49168795Y-24749904D01*
X49193299Y-24748700D01*
X49843301Y-24748700D01*
X49867805Y-24749904D01*
X49867805Y-24749904D01*
G37*
D11*
X49518300Y-25448700D03*
G04 #@! TD*
D10*
G04 #@! TO.C,R3*
G36*
X35543505Y-38185004D02*
X35567773Y-38188604D01*
X35591572Y-38194565D01*
X35614671Y-38202830D01*
X35636850Y-38213320D01*
X35657893Y-38225932D01*
X35677599Y-38240547D01*
X35695777Y-38257023D01*
X35712253Y-38275201D01*
X35726868Y-38294907D01*
X35739480Y-38315950D01*
X35749970Y-38338129D01*
X35758235Y-38361228D01*
X35764196Y-38385027D01*
X35767796Y-38409295D01*
X35769000Y-38433799D01*
X35769000Y-39083801D01*
X35767796Y-39108305D01*
X35764196Y-39132573D01*
X35758235Y-39156372D01*
X35749970Y-39179471D01*
X35739480Y-39201650D01*
X35726868Y-39222693D01*
X35712253Y-39242399D01*
X35695777Y-39260577D01*
X35677599Y-39277053D01*
X35657893Y-39291668D01*
X35636850Y-39304280D01*
X35614671Y-39314770D01*
X35591572Y-39323035D01*
X35567773Y-39328996D01*
X35543505Y-39332596D01*
X35519001Y-39333800D01*
X34618999Y-39333800D01*
X34594495Y-39332596D01*
X34570227Y-39328996D01*
X34546428Y-39323035D01*
X34523329Y-39314770D01*
X34501150Y-39304280D01*
X34480107Y-39291668D01*
X34460401Y-39277053D01*
X34442223Y-39260577D01*
X34425747Y-39242399D01*
X34411132Y-39222693D01*
X34398520Y-39201650D01*
X34388030Y-39179471D01*
X34379765Y-39156372D01*
X34373804Y-39132573D01*
X34370204Y-39108305D01*
X34369000Y-39083801D01*
X34369000Y-38433799D01*
X34370204Y-38409295D01*
X34373804Y-38385027D01*
X34379765Y-38361228D01*
X34388030Y-38338129D01*
X34398520Y-38315950D01*
X34411132Y-38294907D01*
X34425747Y-38275201D01*
X34442223Y-38257023D01*
X34460401Y-38240547D01*
X34480107Y-38225932D01*
X34501150Y-38213320D01*
X34523329Y-38202830D01*
X34546428Y-38194565D01*
X34570227Y-38188604D01*
X34594495Y-38185004D01*
X34618999Y-38183800D01*
X35519001Y-38183800D01*
X35543505Y-38185004D01*
X35543505Y-38185004D01*
G37*
D11*
X35069000Y-38758800D03*
D10*
G36*
X35543505Y-40235004D02*
X35567773Y-40238604D01*
X35591572Y-40244565D01*
X35614671Y-40252830D01*
X35636850Y-40263320D01*
X35657893Y-40275932D01*
X35677599Y-40290547D01*
X35695777Y-40307023D01*
X35712253Y-40325201D01*
X35726868Y-40344907D01*
X35739480Y-40365950D01*
X35749970Y-40388129D01*
X35758235Y-40411228D01*
X35764196Y-40435027D01*
X35767796Y-40459295D01*
X35769000Y-40483799D01*
X35769000Y-41133801D01*
X35767796Y-41158305D01*
X35764196Y-41182573D01*
X35758235Y-41206372D01*
X35749970Y-41229471D01*
X35739480Y-41251650D01*
X35726868Y-41272693D01*
X35712253Y-41292399D01*
X35695777Y-41310577D01*
X35677599Y-41327053D01*
X35657893Y-41341668D01*
X35636850Y-41354280D01*
X35614671Y-41364770D01*
X35591572Y-41373035D01*
X35567773Y-41378996D01*
X35543505Y-41382596D01*
X35519001Y-41383800D01*
X34618999Y-41383800D01*
X34594495Y-41382596D01*
X34570227Y-41378996D01*
X34546428Y-41373035D01*
X34523329Y-41364770D01*
X34501150Y-41354280D01*
X34480107Y-41341668D01*
X34460401Y-41327053D01*
X34442223Y-41310577D01*
X34425747Y-41292399D01*
X34411132Y-41272693D01*
X34398520Y-41251650D01*
X34388030Y-41229471D01*
X34379765Y-41206372D01*
X34373804Y-41182573D01*
X34370204Y-41158305D01*
X34369000Y-41133801D01*
X34369000Y-40483799D01*
X34370204Y-40459295D01*
X34373804Y-40435027D01*
X34379765Y-40411228D01*
X34388030Y-40388129D01*
X34398520Y-40365950D01*
X34411132Y-40344907D01*
X34425747Y-40325201D01*
X34442223Y-40307023D01*
X34460401Y-40290547D01*
X34480107Y-40275932D01*
X34501150Y-40263320D01*
X34523329Y-40252830D01*
X34546428Y-40244565D01*
X34570227Y-40238604D01*
X34594495Y-40235004D01*
X34618999Y-40233800D01*
X35519001Y-40233800D01*
X35543505Y-40235004D01*
X35543505Y-40235004D01*
G37*
D11*
X35069000Y-40808800D03*
G04 #@! TD*
D10*
G04 #@! TO.C,R4*
G36*
X27083505Y-35551904D02*
X27107773Y-35555504D01*
X27131572Y-35561465D01*
X27154671Y-35569730D01*
X27176850Y-35580220D01*
X27197893Y-35592832D01*
X27217599Y-35607447D01*
X27235777Y-35623923D01*
X27252253Y-35642101D01*
X27266868Y-35661807D01*
X27279480Y-35682850D01*
X27289970Y-35705029D01*
X27298235Y-35728128D01*
X27304196Y-35751927D01*
X27307796Y-35776195D01*
X27309000Y-35800699D01*
X27309000Y-36450701D01*
X27307796Y-36475205D01*
X27304196Y-36499473D01*
X27298235Y-36523272D01*
X27289970Y-36546371D01*
X27279480Y-36568550D01*
X27266868Y-36589593D01*
X27252253Y-36609299D01*
X27235777Y-36627477D01*
X27217599Y-36643953D01*
X27197893Y-36658568D01*
X27176850Y-36671180D01*
X27154671Y-36681670D01*
X27131572Y-36689935D01*
X27107773Y-36695896D01*
X27083505Y-36699496D01*
X27059001Y-36700700D01*
X26158999Y-36700700D01*
X26134495Y-36699496D01*
X26110227Y-36695896D01*
X26086428Y-36689935D01*
X26063329Y-36681670D01*
X26041150Y-36671180D01*
X26020107Y-36658568D01*
X26000401Y-36643953D01*
X25982223Y-36627477D01*
X25965747Y-36609299D01*
X25951132Y-36589593D01*
X25938520Y-36568550D01*
X25928030Y-36546371D01*
X25919765Y-36523272D01*
X25913804Y-36499473D01*
X25910204Y-36475205D01*
X25909000Y-36450701D01*
X25909000Y-35800699D01*
X25910204Y-35776195D01*
X25913804Y-35751927D01*
X25919765Y-35728128D01*
X25928030Y-35705029D01*
X25938520Y-35682850D01*
X25951132Y-35661807D01*
X25965747Y-35642101D01*
X25982223Y-35623923D01*
X26000401Y-35607447D01*
X26020107Y-35592832D01*
X26041150Y-35580220D01*
X26063329Y-35569730D01*
X26086428Y-35561465D01*
X26110227Y-35555504D01*
X26134495Y-35551904D01*
X26158999Y-35550700D01*
X27059001Y-35550700D01*
X27083505Y-35551904D01*
X27083505Y-35551904D01*
G37*
D11*
X26609000Y-36125700D03*
D10*
G36*
X27083505Y-33501904D02*
X27107773Y-33505504D01*
X27131572Y-33511465D01*
X27154671Y-33519730D01*
X27176850Y-33530220D01*
X27197893Y-33542832D01*
X27217599Y-33557447D01*
X27235777Y-33573923D01*
X27252253Y-33592101D01*
X27266868Y-33611807D01*
X27279480Y-33632850D01*
X27289970Y-33655029D01*
X27298235Y-33678128D01*
X27304196Y-33701927D01*
X27307796Y-33726195D01*
X27309000Y-33750699D01*
X27309000Y-34400701D01*
X27307796Y-34425205D01*
X27304196Y-34449473D01*
X27298235Y-34473272D01*
X27289970Y-34496371D01*
X27279480Y-34518550D01*
X27266868Y-34539593D01*
X27252253Y-34559299D01*
X27235777Y-34577477D01*
X27217599Y-34593953D01*
X27197893Y-34608568D01*
X27176850Y-34621180D01*
X27154671Y-34631670D01*
X27131572Y-34639935D01*
X27107773Y-34645896D01*
X27083505Y-34649496D01*
X27059001Y-34650700D01*
X26158999Y-34650700D01*
X26134495Y-34649496D01*
X26110227Y-34645896D01*
X26086428Y-34639935D01*
X26063329Y-34631670D01*
X26041150Y-34621180D01*
X26020107Y-34608568D01*
X26000401Y-34593953D01*
X25982223Y-34577477D01*
X25965747Y-34559299D01*
X25951132Y-34539593D01*
X25938520Y-34518550D01*
X25928030Y-34496371D01*
X25919765Y-34473272D01*
X25913804Y-34449473D01*
X25910204Y-34425205D01*
X25909000Y-34400701D01*
X25909000Y-33750699D01*
X25910204Y-33726195D01*
X25913804Y-33701927D01*
X25919765Y-33678128D01*
X25928030Y-33655029D01*
X25938520Y-33632850D01*
X25951132Y-33611807D01*
X25965747Y-33592101D01*
X25982223Y-33573923D01*
X26000401Y-33557447D01*
X26020107Y-33542832D01*
X26041150Y-33530220D01*
X26063329Y-33519730D01*
X26086428Y-33511465D01*
X26110227Y-33505504D01*
X26134495Y-33501904D01*
X26158999Y-33500700D01*
X27059001Y-33500700D01*
X27083505Y-33501904D01*
X27083505Y-33501904D01*
G37*
D11*
X26609000Y-34075700D03*
G04 #@! TD*
D10*
G04 #@! TO.C,R5*
G36*
X53422705Y-45398204D02*
X53446973Y-45401804D01*
X53470772Y-45407765D01*
X53493871Y-45416030D01*
X53516050Y-45426520D01*
X53537093Y-45439132D01*
X53556799Y-45453747D01*
X53574977Y-45470223D01*
X53591453Y-45488401D01*
X53606068Y-45508107D01*
X53618680Y-45529150D01*
X53629170Y-45551329D01*
X53637435Y-45574428D01*
X53643396Y-45598227D01*
X53646996Y-45622495D01*
X53648200Y-45646999D01*
X53648200Y-46297001D01*
X53646996Y-46321505D01*
X53643396Y-46345773D01*
X53637435Y-46369572D01*
X53629170Y-46392671D01*
X53618680Y-46414850D01*
X53606068Y-46435893D01*
X53591453Y-46455599D01*
X53574977Y-46473777D01*
X53556799Y-46490253D01*
X53537093Y-46504868D01*
X53516050Y-46517480D01*
X53493871Y-46527970D01*
X53470772Y-46536235D01*
X53446973Y-46542196D01*
X53422705Y-46545796D01*
X53398201Y-46547000D01*
X52498199Y-46547000D01*
X52473695Y-46545796D01*
X52449427Y-46542196D01*
X52425628Y-46536235D01*
X52402529Y-46527970D01*
X52380350Y-46517480D01*
X52359307Y-46504868D01*
X52339601Y-46490253D01*
X52321423Y-46473777D01*
X52304947Y-46455599D01*
X52290332Y-46435893D01*
X52277720Y-46414850D01*
X52267230Y-46392671D01*
X52258965Y-46369572D01*
X52253004Y-46345773D01*
X52249404Y-46321505D01*
X52248200Y-46297001D01*
X52248200Y-45646999D01*
X52249404Y-45622495D01*
X52253004Y-45598227D01*
X52258965Y-45574428D01*
X52267230Y-45551329D01*
X52277720Y-45529150D01*
X52290332Y-45508107D01*
X52304947Y-45488401D01*
X52321423Y-45470223D01*
X52339601Y-45453747D01*
X52359307Y-45439132D01*
X52380350Y-45426520D01*
X52402529Y-45416030D01*
X52425628Y-45407765D01*
X52449427Y-45401804D01*
X52473695Y-45398204D01*
X52498199Y-45397000D01*
X53398201Y-45397000D01*
X53422705Y-45398204D01*
X53422705Y-45398204D01*
G37*
D11*
X52948200Y-45972000D03*
D10*
G36*
X53422705Y-43348204D02*
X53446973Y-43351804D01*
X53470772Y-43357765D01*
X53493871Y-43366030D01*
X53516050Y-43376520D01*
X53537093Y-43389132D01*
X53556799Y-43403747D01*
X53574977Y-43420223D01*
X53591453Y-43438401D01*
X53606068Y-43458107D01*
X53618680Y-43479150D01*
X53629170Y-43501329D01*
X53637435Y-43524428D01*
X53643396Y-43548227D01*
X53646996Y-43572495D01*
X53648200Y-43596999D01*
X53648200Y-44247001D01*
X53646996Y-44271505D01*
X53643396Y-44295773D01*
X53637435Y-44319572D01*
X53629170Y-44342671D01*
X53618680Y-44364850D01*
X53606068Y-44385893D01*
X53591453Y-44405599D01*
X53574977Y-44423777D01*
X53556799Y-44440253D01*
X53537093Y-44454868D01*
X53516050Y-44467480D01*
X53493871Y-44477970D01*
X53470772Y-44486235D01*
X53446973Y-44492196D01*
X53422705Y-44495796D01*
X53398201Y-44497000D01*
X52498199Y-44497000D01*
X52473695Y-44495796D01*
X52449427Y-44492196D01*
X52425628Y-44486235D01*
X52402529Y-44477970D01*
X52380350Y-44467480D01*
X52359307Y-44454868D01*
X52339601Y-44440253D01*
X52321423Y-44423777D01*
X52304947Y-44405599D01*
X52290332Y-44385893D01*
X52277720Y-44364850D01*
X52267230Y-44342671D01*
X52258965Y-44319572D01*
X52253004Y-44295773D01*
X52249404Y-44271505D01*
X52248200Y-44247001D01*
X52248200Y-43596999D01*
X52249404Y-43572495D01*
X52253004Y-43548227D01*
X52258965Y-43524428D01*
X52267230Y-43501329D01*
X52277720Y-43479150D01*
X52290332Y-43458107D01*
X52304947Y-43438401D01*
X52321423Y-43420223D01*
X52339601Y-43403747D01*
X52359307Y-43389132D01*
X52380350Y-43376520D01*
X52402529Y-43366030D01*
X52425628Y-43357765D01*
X52449427Y-43351804D01*
X52473695Y-43348204D01*
X52498199Y-43347000D01*
X53398201Y-43347000D01*
X53422705Y-43348204D01*
X53422705Y-43348204D01*
G37*
D11*
X52948200Y-43922000D03*
G04 #@! TD*
D10*
G04 #@! TO.C,R6*
G36*
X27262305Y-37748004D02*
X27286573Y-37751604D01*
X27310372Y-37757565D01*
X27333471Y-37765830D01*
X27355650Y-37776320D01*
X27376693Y-37788932D01*
X27396399Y-37803547D01*
X27414577Y-37820023D01*
X27431053Y-37838201D01*
X27445668Y-37857907D01*
X27458280Y-37878950D01*
X27468770Y-37901129D01*
X27477035Y-37924228D01*
X27482996Y-37948027D01*
X27486596Y-37972295D01*
X27487800Y-37996799D01*
X27487800Y-38646801D01*
X27486596Y-38671305D01*
X27482996Y-38695573D01*
X27477035Y-38719372D01*
X27468770Y-38742471D01*
X27458280Y-38764650D01*
X27445668Y-38785693D01*
X27431053Y-38805399D01*
X27414577Y-38823577D01*
X27396399Y-38840053D01*
X27376693Y-38854668D01*
X27355650Y-38867280D01*
X27333471Y-38877770D01*
X27310372Y-38886035D01*
X27286573Y-38891996D01*
X27262305Y-38895596D01*
X27237801Y-38896800D01*
X26337799Y-38896800D01*
X26313295Y-38895596D01*
X26289027Y-38891996D01*
X26265228Y-38886035D01*
X26242129Y-38877770D01*
X26219950Y-38867280D01*
X26198907Y-38854668D01*
X26179201Y-38840053D01*
X26161023Y-38823577D01*
X26144547Y-38805399D01*
X26129932Y-38785693D01*
X26117320Y-38764650D01*
X26106830Y-38742471D01*
X26098565Y-38719372D01*
X26092604Y-38695573D01*
X26089004Y-38671305D01*
X26087800Y-38646801D01*
X26087800Y-37996799D01*
X26089004Y-37972295D01*
X26092604Y-37948027D01*
X26098565Y-37924228D01*
X26106830Y-37901129D01*
X26117320Y-37878950D01*
X26129932Y-37857907D01*
X26144547Y-37838201D01*
X26161023Y-37820023D01*
X26179201Y-37803547D01*
X26198907Y-37788932D01*
X26219950Y-37776320D01*
X26242129Y-37765830D01*
X26265228Y-37757565D01*
X26289027Y-37751604D01*
X26313295Y-37748004D01*
X26337799Y-37746800D01*
X27237801Y-37746800D01*
X27262305Y-37748004D01*
X27262305Y-37748004D01*
G37*
D11*
X26787800Y-38321800D03*
D10*
G36*
X27262305Y-39798004D02*
X27286573Y-39801604D01*
X27310372Y-39807565D01*
X27333471Y-39815830D01*
X27355650Y-39826320D01*
X27376693Y-39838932D01*
X27396399Y-39853547D01*
X27414577Y-39870023D01*
X27431053Y-39888201D01*
X27445668Y-39907907D01*
X27458280Y-39928950D01*
X27468770Y-39951129D01*
X27477035Y-39974228D01*
X27482996Y-39998027D01*
X27486596Y-40022295D01*
X27487800Y-40046799D01*
X27487800Y-40696801D01*
X27486596Y-40721305D01*
X27482996Y-40745573D01*
X27477035Y-40769372D01*
X27468770Y-40792471D01*
X27458280Y-40814650D01*
X27445668Y-40835693D01*
X27431053Y-40855399D01*
X27414577Y-40873577D01*
X27396399Y-40890053D01*
X27376693Y-40904668D01*
X27355650Y-40917280D01*
X27333471Y-40927770D01*
X27310372Y-40936035D01*
X27286573Y-40941996D01*
X27262305Y-40945596D01*
X27237801Y-40946800D01*
X26337799Y-40946800D01*
X26313295Y-40945596D01*
X26289027Y-40941996D01*
X26265228Y-40936035D01*
X26242129Y-40927770D01*
X26219950Y-40917280D01*
X26198907Y-40904668D01*
X26179201Y-40890053D01*
X26161023Y-40873577D01*
X26144547Y-40855399D01*
X26129932Y-40835693D01*
X26117320Y-40814650D01*
X26106830Y-40792471D01*
X26098565Y-40769372D01*
X26092604Y-40745573D01*
X26089004Y-40721305D01*
X26087800Y-40696801D01*
X26087800Y-40046799D01*
X26089004Y-40022295D01*
X26092604Y-39998027D01*
X26098565Y-39974228D01*
X26106830Y-39951129D01*
X26117320Y-39928950D01*
X26129932Y-39907907D01*
X26144547Y-39888201D01*
X26161023Y-39870023D01*
X26179201Y-39853547D01*
X26198907Y-39838932D01*
X26219950Y-39826320D01*
X26242129Y-39815830D01*
X26265228Y-39807565D01*
X26289027Y-39801604D01*
X26313295Y-39798004D01*
X26337799Y-39796800D01*
X27237801Y-39796800D01*
X27262305Y-39798004D01*
X27262305Y-39798004D01*
G37*
D11*
X26787800Y-40371800D03*
G04 #@! TD*
D10*
G04 #@! TO.C,R7*
G36*
X63087005Y-42724804D02*
X63111273Y-42728404D01*
X63135072Y-42734365D01*
X63158171Y-42742630D01*
X63180350Y-42753120D01*
X63201393Y-42765732D01*
X63221099Y-42780347D01*
X63239277Y-42796823D01*
X63255753Y-42815001D01*
X63270368Y-42834707D01*
X63282980Y-42855750D01*
X63293470Y-42877929D01*
X63301735Y-42901028D01*
X63307696Y-42924827D01*
X63311296Y-42949095D01*
X63312500Y-42973599D01*
X63312500Y-43623601D01*
X63311296Y-43648105D01*
X63307696Y-43672373D01*
X63301735Y-43696172D01*
X63293470Y-43719271D01*
X63282980Y-43741450D01*
X63270368Y-43762493D01*
X63255753Y-43782199D01*
X63239277Y-43800377D01*
X63221099Y-43816853D01*
X63201393Y-43831468D01*
X63180350Y-43844080D01*
X63158171Y-43854570D01*
X63135072Y-43862835D01*
X63111273Y-43868796D01*
X63087005Y-43872396D01*
X63062501Y-43873600D01*
X62162499Y-43873600D01*
X62137995Y-43872396D01*
X62113727Y-43868796D01*
X62089928Y-43862835D01*
X62066829Y-43854570D01*
X62044650Y-43844080D01*
X62023607Y-43831468D01*
X62003901Y-43816853D01*
X61985723Y-43800377D01*
X61969247Y-43782199D01*
X61954632Y-43762493D01*
X61942020Y-43741450D01*
X61931530Y-43719271D01*
X61923265Y-43696172D01*
X61917304Y-43672373D01*
X61913704Y-43648105D01*
X61912500Y-43623601D01*
X61912500Y-42973599D01*
X61913704Y-42949095D01*
X61917304Y-42924827D01*
X61923265Y-42901028D01*
X61931530Y-42877929D01*
X61942020Y-42855750D01*
X61954632Y-42834707D01*
X61969247Y-42815001D01*
X61985723Y-42796823D01*
X62003901Y-42780347D01*
X62023607Y-42765732D01*
X62044650Y-42753120D01*
X62066829Y-42742630D01*
X62089928Y-42734365D01*
X62113727Y-42728404D01*
X62137995Y-42724804D01*
X62162499Y-42723600D01*
X63062501Y-42723600D01*
X63087005Y-42724804D01*
X63087005Y-42724804D01*
G37*
D11*
X62612500Y-43298600D03*
D10*
G36*
X63087005Y-44774804D02*
X63111273Y-44778404D01*
X63135072Y-44784365D01*
X63158171Y-44792630D01*
X63180350Y-44803120D01*
X63201393Y-44815732D01*
X63221099Y-44830347D01*
X63239277Y-44846823D01*
X63255753Y-44865001D01*
X63270368Y-44884707D01*
X63282980Y-44905750D01*
X63293470Y-44927929D01*
X63301735Y-44951028D01*
X63307696Y-44974827D01*
X63311296Y-44999095D01*
X63312500Y-45023599D01*
X63312500Y-45673601D01*
X63311296Y-45698105D01*
X63307696Y-45722373D01*
X63301735Y-45746172D01*
X63293470Y-45769271D01*
X63282980Y-45791450D01*
X63270368Y-45812493D01*
X63255753Y-45832199D01*
X63239277Y-45850377D01*
X63221099Y-45866853D01*
X63201393Y-45881468D01*
X63180350Y-45894080D01*
X63158171Y-45904570D01*
X63135072Y-45912835D01*
X63111273Y-45918796D01*
X63087005Y-45922396D01*
X63062501Y-45923600D01*
X62162499Y-45923600D01*
X62137995Y-45922396D01*
X62113727Y-45918796D01*
X62089928Y-45912835D01*
X62066829Y-45904570D01*
X62044650Y-45894080D01*
X62023607Y-45881468D01*
X62003901Y-45866853D01*
X61985723Y-45850377D01*
X61969247Y-45832199D01*
X61954632Y-45812493D01*
X61942020Y-45791450D01*
X61931530Y-45769271D01*
X61923265Y-45746172D01*
X61917304Y-45722373D01*
X61913704Y-45698105D01*
X61912500Y-45673601D01*
X61912500Y-45023599D01*
X61913704Y-44999095D01*
X61917304Y-44974827D01*
X61923265Y-44951028D01*
X61931530Y-44927929D01*
X61942020Y-44905750D01*
X61954632Y-44884707D01*
X61969247Y-44865001D01*
X61985723Y-44846823D01*
X62003901Y-44830347D01*
X62023607Y-44815732D01*
X62044650Y-44803120D01*
X62066829Y-44792630D01*
X62089928Y-44784365D01*
X62113727Y-44778404D01*
X62137995Y-44774804D01*
X62162499Y-44773600D01*
X63062501Y-44773600D01*
X63087005Y-44774804D01*
X63087005Y-44774804D01*
G37*
D11*
X62612500Y-45348600D03*
G04 #@! TD*
D10*
G04 #@! TO.C,R8*
G36*
X56054505Y-36374104D02*
X56078773Y-36377704D01*
X56102572Y-36383665D01*
X56125671Y-36391930D01*
X56147850Y-36402420D01*
X56168893Y-36415032D01*
X56188599Y-36429647D01*
X56206777Y-36446123D01*
X56223253Y-36464301D01*
X56237868Y-36484007D01*
X56250480Y-36505050D01*
X56260970Y-36527229D01*
X56269235Y-36550328D01*
X56275196Y-36574127D01*
X56278796Y-36598395D01*
X56280000Y-36622899D01*
X56280000Y-37272901D01*
X56278796Y-37297405D01*
X56275196Y-37321673D01*
X56269235Y-37345472D01*
X56260970Y-37368571D01*
X56250480Y-37390750D01*
X56237868Y-37411793D01*
X56223253Y-37431499D01*
X56206777Y-37449677D01*
X56188599Y-37466153D01*
X56168893Y-37480768D01*
X56147850Y-37493380D01*
X56125671Y-37503870D01*
X56102572Y-37512135D01*
X56078773Y-37518096D01*
X56054505Y-37521696D01*
X56030001Y-37522900D01*
X55129999Y-37522900D01*
X55105495Y-37521696D01*
X55081227Y-37518096D01*
X55057428Y-37512135D01*
X55034329Y-37503870D01*
X55012150Y-37493380D01*
X54991107Y-37480768D01*
X54971401Y-37466153D01*
X54953223Y-37449677D01*
X54936747Y-37431499D01*
X54922132Y-37411793D01*
X54909520Y-37390750D01*
X54899030Y-37368571D01*
X54890765Y-37345472D01*
X54884804Y-37321673D01*
X54881204Y-37297405D01*
X54880000Y-37272901D01*
X54880000Y-36622899D01*
X54881204Y-36598395D01*
X54884804Y-36574127D01*
X54890765Y-36550328D01*
X54899030Y-36527229D01*
X54909520Y-36505050D01*
X54922132Y-36484007D01*
X54936747Y-36464301D01*
X54953223Y-36446123D01*
X54971401Y-36429647D01*
X54991107Y-36415032D01*
X55012150Y-36402420D01*
X55034329Y-36391930D01*
X55057428Y-36383665D01*
X55081227Y-36377704D01*
X55105495Y-36374104D01*
X55129999Y-36372900D01*
X56030001Y-36372900D01*
X56054505Y-36374104D01*
X56054505Y-36374104D01*
G37*
D11*
X55580000Y-36947900D03*
D10*
G36*
X56054505Y-34324104D02*
X56078773Y-34327704D01*
X56102572Y-34333665D01*
X56125671Y-34341930D01*
X56147850Y-34352420D01*
X56168893Y-34365032D01*
X56188599Y-34379647D01*
X56206777Y-34396123D01*
X56223253Y-34414301D01*
X56237868Y-34434007D01*
X56250480Y-34455050D01*
X56260970Y-34477229D01*
X56269235Y-34500328D01*
X56275196Y-34524127D01*
X56278796Y-34548395D01*
X56280000Y-34572899D01*
X56280000Y-35222901D01*
X56278796Y-35247405D01*
X56275196Y-35271673D01*
X56269235Y-35295472D01*
X56260970Y-35318571D01*
X56250480Y-35340750D01*
X56237868Y-35361793D01*
X56223253Y-35381499D01*
X56206777Y-35399677D01*
X56188599Y-35416153D01*
X56168893Y-35430768D01*
X56147850Y-35443380D01*
X56125671Y-35453870D01*
X56102572Y-35462135D01*
X56078773Y-35468096D01*
X56054505Y-35471696D01*
X56030001Y-35472900D01*
X55129999Y-35472900D01*
X55105495Y-35471696D01*
X55081227Y-35468096D01*
X55057428Y-35462135D01*
X55034329Y-35453870D01*
X55012150Y-35443380D01*
X54991107Y-35430768D01*
X54971401Y-35416153D01*
X54953223Y-35399677D01*
X54936747Y-35381499D01*
X54922132Y-35361793D01*
X54909520Y-35340750D01*
X54899030Y-35318571D01*
X54890765Y-35295472D01*
X54884804Y-35271673D01*
X54881204Y-35247405D01*
X54880000Y-35222901D01*
X54880000Y-34572899D01*
X54881204Y-34548395D01*
X54884804Y-34524127D01*
X54890765Y-34500328D01*
X54899030Y-34477229D01*
X54909520Y-34455050D01*
X54922132Y-34434007D01*
X54936747Y-34414301D01*
X54953223Y-34396123D01*
X54971401Y-34379647D01*
X54991107Y-34365032D01*
X55012150Y-34352420D01*
X55034329Y-34341930D01*
X55057428Y-34333665D01*
X55081227Y-34327704D01*
X55105495Y-34324104D01*
X55129999Y-34322900D01*
X56030001Y-34322900D01*
X56054505Y-34324104D01*
X56054505Y-34324104D01*
G37*
D11*
X55580000Y-34897900D03*
G04 #@! TD*
D10*
G04 #@! TO.C,R9*
G36*
X48257105Y-32945204D02*
X48281373Y-32948804D01*
X48305172Y-32954765D01*
X48328271Y-32963030D01*
X48350450Y-32973520D01*
X48371493Y-32986132D01*
X48391199Y-33000747D01*
X48409377Y-33017223D01*
X48425853Y-33035401D01*
X48440468Y-33055107D01*
X48453080Y-33076150D01*
X48463570Y-33098329D01*
X48471835Y-33121428D01*
X48477796Y-33145227D01*
X48481396Y-33169495D01*
X48482600Y-33193999D01*
X48482600Y-33844001D01*
X48481396Y-33868505D01*
X48477796Y-33892773D01*
X48471835Y-33916572D01*
X48463570Y-33939671D01*
X48453080Y-33961850D01*
X48440468Y-33982893D01*
X48425853Y-34002599D01*
X48409377Y-34020777D01*
X48391199Y-34037253D01*
X48371493Y-34051868D01*
X48350450Y-34064480D01*
X48328271Y-34074970D01*
X48305172Y-34083235D01*
X48281373Y-34089196D01*
X48257105Y-34092796D01*
X48232601Y-34094000D01*
X47332599Y-34094000D01*
X47308095Y-34092796D01*
X47283827Y-34089196D01*
X47260028Y-34083235D01*
X47236929Y-34074970D01*
X47214750Y-34064480D01*
X47193707Y-34051868D01*
X47174001Y-34037253D01*
X47155823Y-34020777D01*
X47139347Y-34002599D01*
X47124732Y-33982893D01*
X47112120Y-33961850D01*
X47101630Y-33939671D01*
X47093365Y-33916572D01*
X47087404Y-33892773D01*
X47083804Y-33868505D01*
X47082600Y-33844001D01*
X47082600Y-33193999D01*
X47083804Y-33169495D01*
X47087404Y-33145227D01*
X47093365Y-33121428D01*
X47101630Y-33098329D01*
X47112120Y-33076150D01*
X47124732Y-33055107D01*
X47139347Y-33035401D01*
X47155823Y-33017223D01*
X47174001Y-33000747D01*
X47193707Y-32986132D01*
X47214750Y-32973520D01*
X47236929Y-32963030D01*
X47260028Y-32954765D01*
X47283827Y-32948804D01*
X47308095Y-32945204D01*
X47332599Y-32944000D01*
X48232601Y-32944000D01*
X48257105Y-32945204D01*
X48257105Y-32945204D01*
G37*
D11*
X47782600Y-33519000D03*
D10*
G36*
X48257105Y-34995204D02*
X48281373Y-34998804D01*
X48305172Y-35004765D01*
X48328271Y-35013030D01*
X48350450Y-35023520D01*
X48371493Y-35036132D01*
X48391199Y-35050747D01*
X48409377Y-35067223D01*
X48425853Y-35085401D01*
X48440468Y-35105107D01*
X48453080Y-35126150D01*
X48463570Y-35148329D01*
X48471835Y-35171428D01*
X48477796Y-35195227D01*
X48481396Y-35219495D01*
X48482600Y-35243999D01*
X48482600Y-35894001D01*
X48481396Y-35918505D01*
X48477796Y-35942773D01*
X48471835Y-35966572D01*
X48463570Y-35989671D01*
X48453080Y-36011850D01*
X48440468Y-36032893D01*
X48425853Y-36052599D01*
X48409377Y-36070777D01*
X48391199Y-36087253D01*
X48371493Y-36101868D01*
X48350450Y-36114480D01*
X48328271Y-36124970D01*
X48305172Y-36133235D01*
X48281373Y-36139196D01*
X48257105Y-36142796D01*
X48232601Y-36144000D01*
X47332599Y-36144000D01*
X47308095Y-36142796D01*
X47283827Y-36139196D01*
X47260028Y-36133235D01*
X47236929Y-36124970D01*
X47214750Y-36114480D01*
X47193707Y-36101868D01*
X47174001Y-36087253D01*
X47155823Y-36070777D01*
X47139347Y-36052599D01*
X47124732Y-36032893D01*
X47112120Y-36011850D01*
X47101630Y-35989671D01*
X47093365Y-35966572D01*
X47087404Y-35942773D01*
X47083804Y-35918505D01*
X47082600Y-35894001D01*
X47082600Y-35243999D01*
X47083804Y-35219495D01*
X47087404Y-35195227D01*
X47093365Y-35171428D01*
X47101630Y-35148329D01*
X47112120Y-35126150D01*
X47124732Y-35105107D01*
X47139347Y-35085401D01*
X47155823Y-35067223D01*
X47174001Y-35050747D01*
X47193707Y-35036132D01*
X47214750Y-35023520D01*
X47236929Y-35013030D01*
X47260028Y-35004765D01*
X47283827Y-34998804D01*
X47308095Y-34995204D01*
X47332599Y-34994000D01*
X48232601Y-34994000D01*
X48257105Y-34995204D01*
X48257105Y-34995204D01*
G37*
D11*
X47782600Y-35569000D03*
G04 #@! TD*
D10*
G04 #@! TO.C,R10*
G36*
X32878205Y-40075204D02*
X32902473Y-40078804D01*
X32926272Y-40084765D01*
X32949371Y-40093030D01*
X32971550Y-40103520D01*
X32992593Y-40116132D01*
X33012299Y-40130747D01*
X33030477Y-40147223D01*
X33046953Y-40165401D01*
X33061568Y-40185107D01*
X33074180Y-40206150D01*
X33084670Y-40228329D01*
X33092935Y-40251428D01*
X33098896Y-40275227D01*
X33102496Y-40299495D01*
X33103700Y-40323999D01*
X33103700Y-40974001D01*
X33102496Y-40998505D01*
X33098896Y-41022773D01*
X33092935Y-41046572D01*
X33084670Y-41069671D01*
X33074180Y-41091850D01*
X33061568Y-41112893D01*
X33046953Y-41132599D01*
X33030477Y-41150777D01*
X33012299Y-41167253D01*
X32992593Y-41181868D01*
X32971550Y-41194480D01*
X32949371Y-41204970D01*
X32926272Y-41213235D01*
X32902473Y-41219196D01*
X32878205Y-41222796D01*
X32853701Y-41224000D01*
X31953699Y-41224000D01*
X31929195Y-41222796D01*
X31904927Y-41219196D01*
X31881128Y-41213235D01*
X31858029Y-41204970D01*
X31835850Y-41194480D01*
X31814807Y-41181868D01*
X31795101Y-41167253D01*
X31776923Y-41150777D01*
X31760447Y-41132599D01*
X31745832Y-41112893D01*
X31733220Y-41091850D01*
X31722730Y-41069671D01*
X31714465Y-41046572D01*
X31708504Y-41022773D01*
X31704904Y-40998505D01*
X31703700Y-40974001D01*
X31703700Y-40323999D01*
X31704904Y-40299495D01*
X31708504Y-40275227D01*
X31714465Y-40251428D01*
X31722730Y-40228329D01*
X31733220Y-40206150D01*
X31745832Y-40185107D01*
X31760447Y-40165401D01*
X31776923Y-40147223D01*
X31795101Y-40130747D01*
X31814807Y-40116132D01*
X31835850Y-40103520D01*
X31858029Y-40093030D01*
X31881128Y-40084765D01*
X31904927Y-40078804D01*
X31929195Y-40075204D01*
X31953699Y-40074000D01*
X32853701Y-40074000D01*
X32878205Y-40075204D01*
X32878205Y-40075204D01*
G37*
D11*
X32403700Y-40649000D03*
D10*
G36*
X32878205Y-38025204D02*
X32902473Y-38028804D01*
X32926272Y-38034765D01*
X32949371Y-38043030D01*
X32971550Y-38053520D01*
X32992593Y-38066132D01*
X33012299Y-38080747D01*
X33030477Y-38097223D01*
X33046953Y-38115401D01*
X33061568Y-38135107D01*
X33074180Y-38156150D01*
X33084670Y-38178329D01*
X33092935Y-38201428D01*
X33098896Y-38225227D01*
X33102496Y-38249495D01*
X33103700Y-38273999D01*
X33103700Y-38924001D01*
X33102496Y-38948505D01*
X33098896Y-38972773D01*
X33092935Y-38996572D01*
X33084670Y-39019671D01*
X33074180Y-39041850D01*
X33061568Y-39062893D01*
X33046953Y-39082599D01*
X33030477Y-39100777D01*
X33012299Y-39117253D01*
X32992593Y-39131868D01*
X32971550Y-39144480D01*
X32949371Y-39154970D01*
X32926272Y-39163235D01*
X32902473Y-39169196D01*
X32878205Y-39172796D01*
X32853701Y-39174000D01*
X31953699Y-39174000D01*
X31929195Y-39172796D01*
X31904927Y-39169196D01*
X31881128Y-39163235D01*
X31858029Y-39154970D01*
X31835850Y-39144480D01*
X31814807Y-39131868D01*
X31795101Y-39117253D01*
X31776923Y-39100777D01*
X31760447Y-39082599D01*
X31745832Y-39062893D01*
X31733220Y-39041850D01*
X31722730Y-39019671D01*
X31714465Y-38996572D01*
X31708504Y-38972773D01*
X31704904Y-38948505D01*
X31703700Y-38924001D01*
X31703700Y-38273999D01*
X31704904Y-38249495D01*
X31708504Y-38225227D01*
X31714465Y-38201428D01*
X31722730Y-38178329D01*
X31733220Y-38156150D01*
X31745832Y-38135107D01*
X31760447Y-38115401D01*
X31776923Y-38097223D01*
X31795101Y-38080747D01*
X31814807Y-38066132D01*
X31835850Y-38053520D01*
X31858029Y-38043030D01*
X31881128Y-38034765D01*
X31904927Y-38028804D01*
X31929195Y-38025204D01*
X31953699Y-38024000D01*
X32853701Y-38024000D01*
X32878205Y-38025204D01*
X32878205Y-38025204D01*
G37*
D11*
X32403700Y-38599000D03*
G04 #@! TD*
D10*
G04 #@! TO.C,R11*
G36*
X27298005Y-44554404D02*
X27322273Y-44558004D01*
X27346072Y-44563965D01*
X27369171Y-44572230D01*
X27391350Y-44582720D01*
X27412393Y-44595332D01*
X27432099Y-44609947D01*
X27450277Y-44626423D01*
X27466753Y-44644601D01*
X27481368Y-44664307D01*
X27493980Y-44685350D01*
X27504470Y-44707529D01*
X27512735Y-44730628D01*
X27518696Y-44754427D01*
X27522296Y-44778695D01*
X27523500Y-44803199D01*
X27523500Y-45703201D01*
X27522296Y-45727705D01*
X27518696Y-45751973D01*
X27512735Y-45775772D01*
X27504470Y-45798871D01*
X27493980Y-45821050D01*
X27481368Y-45842093D01*
X27466753Y-45861799D01*
X27450277Y-45879977D01*
X27432099Y-45896453D01*
X27412393Y-45911068D01*
X27391350Y-45923680D01*
X27369171Y-45934170D01*
X27346072Y-45942435D01*
X27322273Y-45948396D01*
X27298005Y-45951996D01*
X27273501Y-45953200D01*
X26623499Y-45953200D01*
X26598995Y-45951996D01*
X26574727Y-45948396D01*
X26550928Y-45942435D01*
X26527829Y-45934170D01*
X26505650Y-45923680D01*
X26484607Y-45911068D01*
X26464901Y-45896453D01*
X26446723Y-45879977D01*
X26430247Y-45861799D01*
X26415632Y-45842093D01*
X26403020Y-45821050D01*
X26392530Y-45798871D01*
X26384265Y-45775772D01*
X26378304Y-45751973D01*
X26374704Y-45727705D01*
X26373500Y-45703201D01*
X26373500Y-44803199D01*
X26374704Y-44778695D01*
X26378304Y-44754427D01*
X26384265Y-44730628D01*
X26392530Y-44707529D01*
X26403020Y-44685350D01*
X26415632Y-44664307D01*
X26430247Y-44644601D01*
X26446723Y-44626423D01*
X26464901Y-44609947D01*
X26484607Y-44595332D01*
X26505650Y-44582720D01*
X26527829Y-44572230D01*
X26550928Y-44563965D01*
X26574727Y-44558004D01*
X26598995Y-44554404D01*
X26623499Y-44553200D01*
X27273501Y-44553200D01*
X27298005Y-44554404D01*
X27298005Y-44554404D01*
G37*
D11*
X26948500Y-45253200D03*
D10*
G36*
X25248005Y-44554404D02*
X25272273Y-44558004D01*
X25296072Y-44563965D01*
X25319171Y-44572230D01*
X25341350Y-44582720D01*
X25362393Y-44595332D01*
X25382099Y-44609947D01*
X25400277Y-44626423D01*
X25416753Y-44644601D01*
X25431368Y-44664307D01*
X25443980Y-44685350D01*
X25454470Y-44707529D01*
X25462735Y-44730628D01*
X25468696Y-44754427D01*
X25472296Y-44778695D01*
X25473500Y-44803199D01*
X25473500Y-45703201D01*
X25472296Y-45727705D01*
X25468696Y-45751973D01*
X25462735Y-45775772D01*
X25454470Y-45798871D01*
X25443980Y-45821050D01*
X25431368Y-45842093D01*
X25416753Y-45861799D01*
X25400277Y-45879977D01*
X25382099Y-45896453D01*
X25362393Y-45911068D01*
X25341350Y-45923680D01*
X25319171Y-45934170D01*
X25296072Y-45942435D01*
X25272273Y-45948396D01*
X25248005Y-45951996D01*
X25223501Y-45953200D01*
X24573499Y-45953200D01*
X24548995Y-45951996D01*
X24524727Y-45948396D01*
X24500928Y-45942435D01*
X24477829Y-45934170D01*
X24455650Y-45923680D01*
X24434607Y-45911068D01*
X24414901Y-45896453D01*
X24396723Y-45879977D01*
X24380247Y-45861799D01*
X24365632Y-45842093D01*
X24353020Y-45821050D01*
X24342530Y-45798871D01*
X24334265Y-45775772D01*
X24328304Y-45751973D01*
X24324704Y-45727705D01*
X24323500Y-45703201D01*
X24323500Y-44803199D01*
X24324704Y-44778695D01*
X24328304Y-44754427D01*
X24334265Y-44730628D01*
X24342530Y-44707529D01*
X24353020Y-44685350D01*
X24365632Y-44664307D01*
X24380247Y-44644601D01*
X24396723Y-44626423D01*
X24414901Y-44609947D01*
X24434607Y-44595332D01*
X24455650Y-44582720D01*
X24477829Y-44572230D01*
X24500928Y-44563965D01*
X24524727Y-44558004D01*
X24548995Y-44554404D01*
X24573499Y-44553200D01*
X25223501Y-44553200D01*
X25248005Y-44554404D01*
X25248005Y-44554404D01*
G37*
D11*
X24898500Y-45253200D03*
G04 #@! TD*
D10*
G04 #@! TO.C,R12*
G36*
X44290205Y-38358704D02*
X44314473Y-38362304D01*
X44338272Y-38368265D01*
X44361371Y-38376530D01*
X44383550Y-38387020D01*
X44404593Y-38399632D01*
X44424299Y-38414247D01*
X44442477Y-38430723D01*
X44458953Y-38448901D01*
X44473568Y-38468607D01*
X44486180Y-38489650D01*
X44496670Y-38511829D01*
X44504935Y-38534928D01*
X44510896Y-38558727D01*
X44514496Y-38582995D01*
X44515700Y-38607499D01*
X44515700Y-39257501D01*
X44514496Y-39282005D01*
X44510896Y-39306273D01*
X44504935Y-39330072D01*
X44496670Y-39353171D01*
X44486180Y-39375350D01*
X44473568Y-39396393D01*
X44458953Y-39416099D01*
X44442477Y-39434277D01*
X44424299Y-39450753D01*
X44404593Y-39465368D01*
X44383550Y-39477980D01*
X44361371Y-39488470D01*
X44338272Y-39496735D01*
X44314473Y-39502696D01*
X44290205Y-39506296D01*
X44265701Y-39507500D01*
X43365699Y-39507500D01*
X43341195Y-39506296D01*
X43316927Y-39502696D01*
X43293128Y-39496735D01*
X43270029Y-39488470D01*
X43247850Y-39477980D01*
X43226807Y-39465368D01*
X43207101Y-39450753D01*
X43188923Y-39434277D01*
X43172447Y-39416099D01*
X43157832Y-39396393D01*
X43145220Y-39375350D01*
X43134730Y-39353171D01*
X43126465Y-39330072D01*
X43120504Y-39306273D01*
X43116904Y-39282005D01*
X43115700Y-39257501D01*
X43115700Y-38607499D01*
X43116904Y-38582995D01*
X43120504Y-38558727D01*
X43126465Y-38534928D01*
X43134730Y-38511829D01*
X43145220Y-38489650D01*
X43157832Y-38468607D01*
X43172447Y-38448901D01*
X43188923Y-38430723D01*
X43207101Y-38414247D01*
X43226807Y-38399632D01*
X43247850Y-38387020D01*
X43270029Y-38376530D01*
X43293128Y-38368265D01*
X43316927Y-38362304D01*
X43341195Y-38358704D01*
X43365699Y-38357500D01*
X44265701Y-38357500D01*
X44290205Y-38358704D01*
X44290205Y-38358704D01*
G37*
D11*
X43815700Y-38932500D03*
D10*
G36*
X44290205Y-40408704D02*
X44314473Y-40412304D01*
X44338272Y-40418265D01*
X44361371Y-40426530D01*
X44383550Y-40437020D01*
X44404593Y-40449632D01*
X44424299Y-40464247D01*
X44442477Y-40480723D01*
X44458953Y-40498901D01*
X44473568Y-40518607D01*
X44486180Y-40539650D01*
X44496670Y-40561829D01*
X44504935Y-40584928D01*
X44510896Y-40608727D01*
X44514496Y-40632995D01*
X44515700Y-40657499D01*
X44515700Y-41307501D01*
X44514496Y-41332005D01*
X44510896Y-41356273D01*
X44504935Y-41380072D01*
X44496670Y-41403171D01*
X44486180Y-41425350D01*
X44473568Y-41446393D01*
X44458953Y-41466099D01*
X44442477Y-41484277D01*
X44424299Y-41500753D01*
X44404593Y-41515368D01*
X44383550Y-41527980D01*
X44361371Y-41538470D01*
X44338272Y-41546735D01*
X44314473Y-41552696D01*
X44290205Y-41556296D01*
X44265701Y-41557500D01*
X43365699Y-41557500D01*
X43341195Y-41556296D01*
X43316927Y-41552696D01*
X43293128Y-41546735D01*
X43270029Y-41538470D01*
X43247850Y-41527980D01*
X43226807Y-41515368D01*
X43207101Y-41500753D01*
X43188923Y-41484277D01*
X43172447Y-41466099D01*
X43157832Y-41446393D01*
X43145220Y-41425350D01*
X43134730Y-41403171D01*
X43126465Y-41380072D01*
X43120504Y-41356273D01*
X43116904Y-41332005D01*
X43115700Y-41307501D01*
X43115700Y-40657499D01*
X43116904Y-40632995D01*
X43120504Y-40608727D01*
X43126465Y-40584928D01*
X43134730Y-40561829D01*
X43145220Y-40539650D01*
X43157832Y-40518607D01*
X43172447Y-40498901D01*
X43188923Y-40480723D01*
X43207101Y-40464247D01*
X43226807Y-40449632D01*
X43247850Y-40437020D01*
X43270029Y-40426530D01*
X43293128Y-40418265D01*
X43316927Y-40412304D01*
X43341195Y-40408704D01*
X43365699Y-40407500D01*
X44265701Y-40407500D01*
X44290205Y-40408704D01*
X44290205Y-40408704D01*
G37*
D11*
X43815700Y-40982500D03*
G04 #@! TD*
D10*
G04 #@! TO.C,R13*
G36*
X39872805Y-40078604D02*
X39897073Y-40082204D01*
X39920872Y-40088165D01*
X39943971Y-40096430D01*
X39966150Y-40106920D01*
X39987193Y-40119532D01*
X40006899Y-40134147D01*
X40025077Y-40150623D01*
X40041553Y-40168801D01*
X40056168Y-40188507D01*
X40068780Y-40209550D01*
X40079270Y-40231729D01*
X40087535Y-40254828D01*
X40093496Y-40278627D01*
X40097096Y-40302895D01*
X40098300Y-40327399D01*
X40098300Y-41227401D01*
X40097096Y-41251905D01*
X40093496Y-41276173D01*
X40087535Y-41299972D01*
X40079270Y-41323071D01*
X40068780Y-41345250D01*
X40056168Y-41366293D01*
X40041553Y-41385999D01*
X40025077Y-41404177D01*
X40006899Y-41420653D01*
X39987193Y-41435268D01*
X39966150Y-41447880D01*
X39943971Y-41458370D01*
X39920872Y-41466635D01*
X39897073Y-41472596D01*
X39872805Y-41476196D01*
X39848301Y-41477400D01*
X39198299Y-41477400D01*
X39173795Y-41476196D01*
X39149527Y-41472596D01*
X39125728Y-41466635D01*
X39102629Y-41458370D01*
X39080450Y-41447880D01*
X39059407Y-41435268D01*
X39039701Y-41420653D01*
X39021523Y-41404177D01*
X39005047Y-41385999D01*
X38990432Y-41366293D01*
X38977820Y-41345250D01*
X38967330Y-41323071D01*
X38959065Y-41299972D01*
X38953104Y-41276173D01*
X38949504Y-41251905D01*
X38948300Y-41227401D01*
X38948300Y-40327399D01*
X38949504Y-40302895D01*
X38953104Y-40278627D01*
X38959065Y-40254828D01*
X38967330Y-40231729D01*
X38977820Y-40209550D01*
X38990432Y-40188507D01*
X39005047Y-40168801D01*
X39021523Y-40150623D01*
X39039701Y-40134147D01*
X39059407Y-40119532D01*
X39080450Y-40106920D01*
X39102629Y-40096430D01*
X39125728Y-40088165D01*
X39149527Y-40082204D01*
X39173795Y-40078604D01*
X39198299Y-40077400D01*
X39848301Y-40077400D01*
X39872805Y-40078604D01*
X39872805Y-40078604D01*
G37*
D11*
X39523300Y-40777400D03*
D10*
G36*
X41922805Y-40078604D02*
X41947073Y-40082204D01*
X41970872Y-40088165D01*
X41993971Y-40096430D01*
X42016150Y-40106920D01*
X42037193Y-40119532D01*
X42056899Y-40134147D01*
X42075077Y-40150623D01*
X42091553Y-40168801D01*
X42106168Y-40188507D01*
X42118780Y-40209550D01*
X42129270Y-40231729D01*
X42137535Y-40254828D01*
X42143496Y-40278627D01*
X42147096Y-40302895D01*
X42148300Y-40327399D01*
X42148300Y-41227401D01*
X42147096Y-41251905D01*
X42143496Y-41276173D01*
X42137535Y-41299972D01*
X42129270Y-41323071D01*
X42118780Y-41345250D01*
X42106168Y-41366293D01*
X42091553Y-41385999D01*
X42075077Y-41404177D01*
X42056899Y-41420653D01*
X42037193Y-41435268D01*
X42016150Y-41447880D01*
X41993971Y-41458370D01*
X41970872Y-41466635D01*
X41947073Y-41472596D01*
X41922805Y-41476196D01*
X41898301Y-41477400D01*
X41248299Y-41477400D01*
X41223795Y-41476196D01*
X41199527Y-41472596D01*
X41175728Y-41466635D01*
X41152629Y-41458370D01*
X41130450Y-41447880D01*
X41109407Y-41435268D01*
X41089701Y-41420653D01*
X41071523Y-41404177D01*
X41055047Y-41385999D01*
X41040432Y-41366293D01*
X41027820Y-41345250D01*
X41017330Y-41323071D01*
X41009065Y-41299972D01*
X41003104Y-41276173D01*
X40999504Y-41251905D01*
X40998300Y-41227401D01*
X40998300Y-40327399D01*
X40999504Y-40302895D01*
X41003104Y-40278627D01*
X41009065Y-40254828D01*
X41017330Y-40231729D01*
X41027820Y-40209550D01*
X41040432Y-40188507D01*
X41055047Y-40168801D01*
X41071523Y-40150623D01*
X41089701Y-40134147D01*
X41109407Y-40119532D01*
X41130450Y-40106920D01*
X41152629Y-40096430D01*
X41175728Y-40088165D01*
X41199527Y-40082204D01*
X41223795Y-40078604D01*
X41248299Y-40077400D01*
X41898301Y-40077400D01*
X41922805Y-40078604D01*
X41922805Y-40078604D01*
G37*
D11*
X41573300Y-40777400D03*
G04 #@! TD*
D10*
G04 #@! TO.C,R14*
G36*
X50584505Y-38741204D02*
X50608773Y-38744804D01*
X50632572Y-38750765D01*
X50655671Y-38759030D01*
X50677850Y-38769520D01*
X50698893Y-38782132D01*
X50718599Y-38796747D01*
X50736777Y-38813223D01*
X50753253Y-38831401D01*
X50767868Y-38851107D01*
X50780480Y-38872150D01*
X50790970Y-38894329D01*
X50799235Y-38917428D01*
X50805196Y-38941227D01*
X50808796Y-38965495D01*
X50810000Y-38989999D01*
X50810000Y-39640001D01*
X50808796Y-39664505D01*
X50805196Y-39688773D01*
X50799235Y-39712572D01*
X50790970Y-39735671D01*
X50780480Y-39757850D01*
X50767868Y-39778893D01*
X50753253Y-39798599D01*
X50736777Y-39816777D01*
X50718599Y-39833253D01*
X50698893Y-39847868D01*
X50677850Y-39860480D01*
X50655671Y-39870970D01*
X50632572Y-39879235D01*
X50608773Y-39885196D01*
X50584505Y-39888796D01*
X50560001Y-39890000D01*
X49659999Y-39890000D01*
X49635495Y-39888796D01*
X49611227Y-39885196D01*
X49587428Y-39879235D01*
X49564329Y-39870970D01*
X49542150Y-39860480D01*
X49521107Y-39847868D01*
X49501401Y-39833253D01*
X49483223Y-39816777D01*
X49466747Y-39798599D01*
X49452132Y-39778893D01*
X49439520Y-39757850D01*
X49429030Y-39735671D01*
X49420765Y-39712572D01*
X49414804Y-39688773D01*
X49411204Y-39664505D01*
X49410000Y-39640001D01*
X49410000Y-38989999D01*
X49411204Y-38965495D01*
X49414804Y-38941227D01*
X49420765Y-38917428D01*
X49429030Y-38894329D01*
X49439520Y-38872150D01*
X49452132Y-38851107D01*
X49466747Y-38831401D01*
X49483223Y-38813223D01*
X49501401Y-38796747D01*
X49521107Y-38782132D01*
X49542150Y-38769520D01*
X49564329Y-38759030D01*
X49587428Y-38750765D01*
X49611227Y-38744804D01*
X49635495Y-38741204D01*
X49659999Y-38740000D01*
X50560001Y-38740000D01*
X50584505Y-38741204D01*
X50584505Y-38741204D01*
G37*
D11*
X50110000Y-39315000D03*
D10*
G36*
X50584505Y-40791204D02*
X50608773Y-40794804D01*
X50632572Y-40800765D01*
X50655671Y-40809030D01*
X50677850Y-40819520D01*
X50698893Y-40832132D01*
X50718599Y-40846747D01*
X50736777Y-40863223D01*
X50753253Y-40881401D01*
X50767868Y-40901107D01*
X50780480Y-40922150D01*
X50790970Y-40944329D01*
X50799235Y-40967428D01*
X50805196Y-40991227D01*
X50808796Y-41015495D01*
X50810000Y-41039999D01*
X50810000Y-41690001D01*
X50808796Y-41714505D01*
X50805196Y-41738773D01*
X50799235Y-41762572D01*
X50790970Y-41785671D01*
X50780480Y-41807850D01*
X50767868Y-41828893D01*
X50753253Y-41848599D01*
X50736777Y-41866777D01*
X50718599Y-41883253D01*
X50698893Y-41897868D01*
X50677850Y-41910480D01*
X50655671Y-41920970D01*
X50632572Y-41929235D01*
X50608773Y-41935196D01*
X50584505Y-41938796D01*
X50560001Y-41940000D01*
X49659999Y-41940000D01*
X49635495Y-41938796D01*
X49611227Y-41935196D01*
X49587428Y-41929235D01*
X49564329Y-41920970D01*
X49542150Y-41910480D01*
X49521107Y-41897868D01*
X49501401Y-41883253D01*
X49483223Y-41866777D01*
X49466747Y-41848599D01*
X49452132Y-41828893D01*
X49439520Y-41807850D01*
X49429030Y-41785671D01*
X49420765Y-41762572D01*
X49414804Y-41738773D01*
X49411204Y-41714505D01*
X49410000Y-41690001D01*
X49410000Y-41039999D01*
X49411204Y-41015495D01*
X49414804Y-40991227D01*
X49420765Y-40967428D01*
X49429030Y-40944329D01*
X49439520Y-40922150D01*
X49452132Y-40901107D01*
X49466747Y-40881401D01*
X49483223Y-40863223D01*
X49501401Y-40846747D01*
X49521107Y-40832132D01*
X49542150Y-40819520D01*
X49564329Y-40809030D01*
X49587428Y-40800765D01*
X49611227Y-40794804D01*
X49635495Y-40791204D01*
X49659999Y-40790000D01*
X50560001Y-40790000D01*
X50584505Y-40791204D01*
X50584505Y-40791204D01*
G37*
D11*
X50110000Y-41365000D03*
G04 #@! TD*
D10*
G04 #@! TO.C,C8*
G36*
X59164505Y-25411204D02*
X59188773Y-25414804D01*
X59212572Y-25420765D01*
X59235671Y-25429030D01*
X59257850Y-25439520D01*
X59278893Y-25452132D01*
X59298599Y-25466747D01*
X59316777Y-25483223D01*
X59333253Y-25501401D01*
X59347868Y-25521107D01*
X59360480Y-25542150D01*
X59370970Y-25564329D01*
X59379235Y-25587428D01*
X59385196Y-25611227D01*
X59388796Y-25635495D01*
X59390000Y-25659999D01*
X59390000Y-26560001D01*
X59388796Y-26584505D01*
X59385196Y-26608773D01*
X59379235Y-26632572D01*
X59370970Y-26655671D01*
X59360480Y-26677850D01*
X59347868Y-26698893D01*
X59333253Y-26718599D01*
X59316777Y-26736777D01*
X59298599Y-26753253D01*
X59278893Y-26767868D01*
X59257850Y-26780480D01*
X59235671Y-26790970D01*
X59212572Y-26799235D01*
X59188773Y-26805196D01*
X59164505Y-26808796D01*
X59140001Y-26810000D01*
X58489999Y-26810000D01*
X58465495Y-26808796D01*
X58441227Y-26805196D01*
X58417428Y-26799235D01*
X58394329Y-26790970D01*
X58372150Y-26780480D01*
X58351107Y-26767868D01*
X58331401Y-26753253D01*
X58313223Y-26736777D01*
X58296747Y-26718599D01*
X58282132Y-26698893D01*
X58269520Y-26677850D01*
X58259030Y-26655671D01*
X58250765Y-26632572D01*
X58244804Y-26608773D01*
X58241204Y-26584505D01*
X58240000Y-26560001D01*
X58240000Y-25659999D01*
X58241204Y-25635495D01*
X58244804Y-25611227D01*
X58250765Y-25587428D01*
X58259030Y-25564329D01*
X58269520Y-25542150D01*
X58282132Y-25521107D01*
X58296747Y-25501401D01*
X58313223Y-25483223D01*
X58331401Y-25466747D01*
X58351107Y-25452132D01*
X58372150Y-25439520D01*
X58394329Y-25429030D01*
X58417428Y-25420765D01*
X58441227Y-25414804D01*
X58465495Y-25411204D01*
X58489999Y-25410000D01*
X59140001Y-25410000D01*
X59164505Y-25411204D01*
X59164505Y-25411204D01*
G37*
D11*
X58815000Y-26110000D03*
D10*
G36*
X61214505Y-25411204D02*
X61238773Y-25414804D01*
X61262572Y-25420765D01*
X61285671Y-25429030D01*
X61307850Y-25439520D01*
X61328893Y-25452132D01*
X61348599Y-25466747D01*
X61366777Y-25483223D01*
X61383253Y-25501401D01*
X61397868Y-25521107D01*
X61410480Y-25542150D01*
X61420970Y-25564329D01*
X61429235Y-25587428D01*
X61435196Y-25611227D01*
X61438796Y-25635495D01*
X61440000Y-25659999D01*
X61440000Y-26560001D01*
X61438796Y-26584505D01*
X61435196Y-26608773D01*
X61429235Y-26632572D01*
X61420970Y-26655671D01*
X61410480Y-26677850D01*
X61397868Y-26698893D01*
X61383253Y-26718599D01*
X61366777Y-26736777D01*
X61348599Y-26753253D01*
X61328893Y-26767868D01*
X61307850Y-26780480D01*
X61285671Y-26790970D01*
X61262572Y-26799235D01*
X61238773Y-26805196D01*
X61214505Y-26808796D01*
X61190001Y-26810000D01*
X60539999Y-26810000D01*
X60515495Y-26808796D01*
X60491227Y-26805196D01*
X60467428Y-26799235D01*
X60444329Y-26790970D01*
X60422150Y-26780480D01*
X60401107Y-26767868D01*
X60381401Y-26753253D01*
X60363223Y-26736777D01*
X60346747Y-26718599D01*
X60332132Y-26698893D01*
X60319520Y-26677850D01*
X60309030Y-26655671D01*
X60300765Y-26632572D01*
X60294804Y-26608773D01*
X60291204Y-26584505D01*
X60290000Y-26560001D01*
X60290000Y-25659999D01*
X60291204Y-25635495D01*
X60294804Y-25611227D01*
X60300765Y-25587428D01*
X60309030Y-25564329D01*
X60319520Y-25542150D01*
X60332132Y-25521107D01*
X60346747Y-25501401D01*
X60363223Y-25483223D01*
X60381401Y-25466747D01*
X60401107Y-25452132D01*
X60422150Y-25439520D01*
X60444329Y-25429030D01*
X60467428Y-25420765D01*
X60491227Y-25414804D01*
X60515495Y-25411204D01*
X60539999Y-25410000D01*
X61190001Y-25410000D01*
X61214505Y-25411204D01*
X61214505Y-25411204D01*
G37*
D11*
X60865000Y-26110000D03*
G04 #@! TD*
D10*
G04 #@! TO.C,C9*
G36*
X37867305Y-38145104D02*
X37891573Y-38148704D01*
X37915372Y-38154665D01*
X37938471Y-38162930D01*
X37960650Y-38173420D01*
X37981693Y-38186032D01*
X38001399Y-38200647D01*
X38019577Y-38217123D01*
X38036053Y-38235301D01*
X38050668Y-38255007D01*
X38063280Y-38276050D01*
X38073770Y-38298229D01*
X38082035Y-38321328D01*
X38087996Y-38345127D01*
X38091596Y-38369395D01*
X38092800Y-38393899D01*
X38092800Y-39043901D01*
X38091596Y-39068405D01*
X38087996Y-39092673D01*
X38082035Y-39116472D01*
X38073770Y-39139571D01*
X38063280Y-39161750D01*
X38050668Y-39182793D01*
X38036053Y-39202499D01*
X38019577Y-39220677D01*
X38001399Y-39237153D01*
X37981693Y-39251768D01*
X37960650Y-39264380D01*
X37938471Y-39274870D01*
X37915372Y-39283135D01*
X37891573Y-39289096D01*
X37867305Y-39292696D01*
X37842801Y-39293900D01*
X36942799Y-39293900D01*
X36918295Y-39292696D01*
X36894027Y-39289096D01*
X36870228Y-39283135D01*
X36847129Y-39274870D01*
X36824950Y-39264380D01*
X36803907Y-39251768D01*
X36784201Y-39237153D01*
X36766023Y-39220677D01*
X36749547Y-39202499D01*
X36734932Y-39182793D01*
X36722320Y-39161750D01*
X36711830Y-39139571D01*
X36703565Y-39116472D01*
X36697604Y-39092673D01*
X36694004Y-39068405D01*
X36692800Y-39043901D01*
X36692800Y-38393899D01*
X36694004Y-38369395D01*
X36697604Y-38345127D01*
X36703565Y-38321328D01*
X36711830Y-38298229D01*
X36722320Y-38276050D01*
X36734932Y-38255007D01*
X36749547Y-38235301D01*
X36766023Y-38217123D01*
X36784201Y-38200647D01*
X36803907Y-38186032D01*
X36824950Y-38173420D01*
X36847129Y-38162930D01*
X36870228Y-38154665D01*
X36894027Y-38148704D01*
X36918295Y-38145104D01*
X36942799Y-38143900D01*
X37842801Y-38143900D01*
X37867305Y-38145104D01*
X37867305Y-38145104D01*
G37*
D11*
X37392800Y-38718900D03*
D10*
G36*
X37867305Y-40195104D02*
X37891573Y-40198704D01*
X37915372Y-40204665D01*
X37938471Y-40212930D01*
X37960650Y-40223420D01*
X37981693Y-40236032D01*
X38001399Y-40250647D01*
X38019577Y-40267123D01*
X38036053Y-40285301D01*
X38050668Y-40305007D01*
X38063280Y-40326050D01*
X38073770Y-40348229D01*
X38082035Y-40371328D01*
X38087996Y-40395127D01*
X38091596Y-40419395D01*
X38092800Y-40443899D01*
X38092800Y-41093901D01*
X38091596Y-41118405D01*
X38087996Y-41142673D01*
X38082035Y-41166472D01*
X38073770Y-41189571D01*
X38063280Y-41211750D01*
X38050668Y-41232793D01*
X38036053Y-41252499D01*
X38019577Y-41270677D01*
X38001399Y-41287153D01*
X37981693Y-41301768D01*
X37960650Y-41314380D01*
X37938471Y-41324870D01*
X37915372Y-41333135D01*
X37891573Y-41339096D01*
X37867305Y-41342696D01*
X37842801Y-41343900D01*
X36942799Y-41343900D01*
X36918295Y-41342696D01*
X36894027Y-41339096D01*
X36870228Y-41333135D01*
X36847129Y-41324870D01*
X36824950Y-41314380D01*
X36803907Y-41301768D01*
X36784201Y-41287153D01*
X36766023Y-41270677D01*
X36749547Y-41252499D01*
X36734932Y-41232793D01*
X36722320Y-41211750D01*
X36711830Y-41189571D01*
X36703565Y-41166472D01*
X36697604Y-41142673D01*
X36694004Y-41118405D01*
X36692800Y-41093901D01*
X36692800Y-40443899D01*
X36694004Y-40419395D01*
X36697604Y-40395127D01*
X36703565Y-40371328D01*
X36711830Y-40348229D01*
X36722320Y-40326050D01*
X36734932Y-40305007D01*
X36749547Y-40285301D01*
X36766023Y-40267123D01*
X36784201Y-40250647D01*
X36803907Y-40236032D01*
X36824950Y-40223420D01*
X36847129Y-40212930D01*
X36870228Y-40204665D01*
X36894027Y-40198704D01*
X36918295Y-40195104D01*
X36942799Y-40193900D01*
X37842801Y-40193900D01*
X37867305Y-40195104D01*
X37867305Y-40195104D01*
G37*
D11*
X37392800Y-40768900D03*
G04 #@! TD*
D10*
G04 #@! TO.C,R15*
G36*
X23644505Y-25051204D02*
X23668773Y-25054804D01*
X23692572Y-25060765D01*
X23715671Y-25069030D01*
X23737850Y-25079520D01*
X23758893Y-25092132D01*
X23778599Y-25106747D01*
X23796777Y-25123223D01*
X23813253Y-25141401D01*
X23827868Y-25161107D01*
X23840480Y-25182150D01*
X23850970Y-25204329D01*
X23859235Y-25227428D01*
X23865196Y-25251227D01*
X23868796Y-25275495D01*
X23870000Y-25299999D01*
X23870000Y-26200001D01*
X23868796Y-26224505D01*
X23865196Y-26248773D01*
X23859235Y-26272572D01*
X23850970Y-26295671D01*
X23840480Y-26317850D01*
X23827868Y-26338893D01*
X23813253Y-26358599D01*
X23796777Y-26376777D01*
X23778599Y-26393253D01*
X23758893Y-26407868D01*
X23737850Y-26420480D01*
X23715671Y-26430970D01*
X23692572Y-26439235D01*
X23668773Y-26445196D01*
X23644505Y-26448796D01*
X23620001Y-26450000D01*
X22969999Y-26450000D01*
X22945495Y-26448796D01*
X22921227Y-26445196D01*
X22897428Y-26439235D01*
X22874329Y-26430970D01*
X22852150Y-26420480D01*
X22831107Y-26407868D01*
X22811401Y-26393253D01*
X22793223Y-26376777D01*
X22776747Y-26358599D01*
X22762132Y-26338893D01*
X22749520Y-26317850D01*
X22739030Y-26295671D01*
X22730765Y-26272572D01*
X22724804Y-26248773D01*
X22721204Y-26224505D01*
X22720000Y-26200001D01*
X22720000Y-25299999D01*
X22721204Y-25275495D01*
X22724804Y-25251227D01*
X22730765Y-25227428D01*
X22739030Y-25204329D01*
X22749520Y-25182150D01*
X22762132Y-25161107D01*
X22776747Y-25141401D01*
X22793223Y-25123223D01*
X22811401Y-25106747D01*
X22831107Y-25092132D01*
X22852150Y-25079520D01*
X22874329Y-25069030D01*
X22897428Y-25060765D01*
X22921227Y-25054804D01*
X22945495Y-25051204D01*
X22969999Y-25050000D01*
X23620001Y-25050000D01*
X23644505Y-25051204D01*
X23644505Y-25051204D01*
G37*
D11*
X23295000Y-25750000D03*
D10*
G36*
X25694505Y-25051204D02*
X25718773Y-25054804D01*
X25742572Y-25060765D01*
X25765671Y-25069030D01*
X25787850Y-25079520D01*
X25808893Y-25092132D01*
X25828599Y-25106747D01*
X25846777Y-25123223D01*
X25863253Y-25141401D01*
X25877868Y-25161107D01*
X25890480Y-25182150D01*
X25900970Y-25204329D01*
X25909235Y-25227428D01*
X25915196Y-25251227D01*
X25918796Y-25275495D01*
X25920000Y-25299999D01*
X25920000Y-26200001D01*
X25918796Y-26224505D01*
X25915196Y-26248773D01*
X25909235Y-26272572D01*
X25900970Y-26295671D01*
X25890480Y-26317850D01*
X25877868Y-26338893D01*
X25863253Y-26358599D01*
X25846777Y-26376777D01*
X25828599Y-26393253D01*
X25808893Y-26407868D01*
X25787850Y-26420480D01*
X25765671Y-26430970D01*
X25742572Y-26439235D01*
X25718773Y-26445196D01*
X25694505Y-26448796D01*
X25670001Y-26450000D01*
X25019999Y-26450000D01*
X24995495Y-26448796D01*
X24971227Y-26445196D01*
X24947428Y-26439235D01*
X24924329Y-26430970D01*
X24902150Y-26420480D01*
X24881107Y-26407868D01*
X24861401Y-26393253D01*
X24843223Y-26376777D01*
X24826747Y-26358599D01*
X24812132Y-26338893D01*
X24799520Y-26317850D01*
X24789030Y-26295671D01*
X24780765Y-26272572D01*
X24774804Y-26248773D01*
X24771204Y-26224505D01*
X24770000Y-26200001D01*
X24770000Y-25299999D01*
X24771204Y-25275495D01*
X24774804Y-25251227D01*
X24780765Y-25227428D01*
X24789030Y-25204329D01*
X24799520Y-25182150D01*
X24812132Y-25161107D01*
X24826747Y-25141401D01*
X24843223Y-25123223D01*
X24861401Y-25106747D01*
X24881107Y-25092132D01*
X24902150Y-25079520D01*
X24924329Y-25069030D01*
X24947428Y-25060765D01*
X24971227Y-25054804D01*
X24995495Y-25051204D01*
X25019999Y-25050000D01*
X25670001Y-25050000D01*
X25694505Y-25051204D01*
X25694505Y-25051204D01*
G37*
D11*
X25345000Y-25750000D03*
G04 #@! TD*
D10*
G04 #@! TO.C,R16*
G36*
X34234505Y-20095704D02*
X34258773Y-20099304D01*
X34282572Y-20105265D01*
X34305671Y-20113530D01*
X34327850Y-20124020D01*
X34348893Y-20136632D01*
X34368599Y-20151247D01*
X34386777Y-20167723D01*
X34403253Y-20185901D01*
X34417868Y-20205607D01*
X34430480Y-20226650D01*
X34440970Y-20248829D01*
X34449235Y-20271928D01*
X34455196Y-20295727D01*
X34458796Y-20319995D01*
X34460000Y-20344499D01*
X34460000Y-21244501D01*
X34458796Y-21269005D01*
X34455196Y-21293273D01*
X34449235Y-21317072D01*
X34440970Y-21340171D01*
X34430480Y-21362350D01*
X34417868Y-21383393D01*
X34403253Y-21403099D01*
X34386777Y-21421277D01*
X34368599Y-21437753D01*
X34348893Y-21452368D01*
X34327850Y-21464980D01*
X34305671Y-21475470D01*
X34282572Y-21483735D01*
X34258773Y-21489696D01*
X34234505Y-21493296D01*
X34210001Y-21494500D01*
X33559999Y-21494500D01*
X33535495Y-21493296D01*
X33511227Y-21489696D01*
X33487428Y-21483735D01*
X33464329Y-21475470D01*
X33442150Y-21464980D01*
X33421107Y-21452368D01*
X33401401Y-21437753D01*
X33383223Y-21421277D01*
X33366747Y-21403099D01*
X33352132Y-21383393D01*
X33339520Y-21362350D01*
X33329030Y-21340171D01*
X33320765Y-21317072D01*
X33314804Y-21293273D01*
X33311204Y-21269005D01*
X33310000Y-21244501D01*
X33310000Y-20344499D01*
X33311204Y-20319995D01*
X33314804Y-20295727D01*
X33320765Y-20271928D01*
X33329030Y-20248829D01*
X33339520Y-20226650D01*
X33352132Y-20205607D01*
X33366747Y-20185901D01*
X33383223Y-20167723D01*
X33401401Y-20151247D01*
X33421107Y-20136632D01*
X33442150Y-20124020D01*
X33464329Y-20113530D01*
X33487428Y-20105265D01*
X33511227Y-20099304D01*
X33535495Y-20095704D01*
X33559999Y-20094500D01*
X34210001Y-20094500D01*
X34234505Y-20095704D01*
X34234505Y-20095704D01*
G37*
D11*
X33885000Y-20794500D03*
D10*
G36*
X36284505Y-20095704D02*
X36308773Y-20099304D01*
X36332572Y-20105265D01*
X36355671Y-20113530D01*
X36377850Y-20124020D01*
X36398893Y-20136632D01*
X36418599Y-20151247D01*
X36436777Y-20167723D01*
X36453253Y-20185901D01*
X36467868Y-20205607D01*
X36480480Y-20226650D01*
X36490970Y-20248829D01*
X36499235Y-20271928D01*
X36505196Y-20295727D01*
X36508796Y-20319995D01*
X36510000Y-20344499D01*
X36510000Y-21244501D01*
X36508796Y-21269005D01*
X36505196Y-21293273D01*
X36499235Y-21317072D01*
X36490970Y-21340171D01*
X36480480Y-21362350D01*
X36467868Y-21383393D01*
X36453253Y-21403099D01*
X36436777Y-21421277D01*
X36418599Y-21437753D01*
X36398893Y-21452368D01*
X36377850Y-21464980D01*
X36355671Y-21475470D01*
X36332572Y-21483735D01*
X36308773Y-21489696D01*
X36284505Y-21493296D01*
X36260001Y-21494500D01*
X35609999Y-21494500D01*
X35585495Y-21493296D01*
X35561227Y-21489696D01*
X35537428Y-21483735D01*
X35514329Y-21475470D01*
X35492150Y-21464980D01*
X35471107Y-21452368D01*
X35451401Y-21437753D01*
X35433223Y-21421277D01*
X35416747Y-21403099D01*
X35402132Y-21383393D01*
X35389520Y-21362350D01*
X35379030Y-21340171D01*
X35370765Y-21317072D01*
X35364804Y-21293273D01*
X35361204Y-21269005D01*
X35360000Y-21244501D01*
X35360000Y-20344499D01*
X35361204Y-20319995D01*
X35364804Y-20295727D01*
X35370765Y-20271928D01*
X35379030Y-20248829D01*
X35389520Y-20226650D01*
X35402132Y-20205607D01*
X35416747Y-20185901D01*
X35433223Y-20167723D01*
X35451401Y-20151247D01*
X35471107Y-20136632D01*
X35492150Y-20124020D01*
X35514329Y-20113530D01*
X35537428Y-20105265D01*
X35561227Y-20099304D01*
X35585495Y-20095704D01*
X35609999Y-20094500D01*
X36260001Y-20094500D01*
X36284505Y-20095704D01*
X36284505Y-20095704D01*
G37*
D11*
X35935000Y-20794500D03*
G04 #@! TD*
D10*
G04 #@! TO.C,R17*
G36*
X40635805Y-20050104D02*
X40660073Y-20053704D01*
X40683872Y-20059665D01*
X40706971Y-20067930D01*
X40729150Y-20078420D01*
X40750193Y-20091032D01*
X40769899Y-20105647D01*
X40788077Y-20122123D01*
X40804553Y-20140301D01*
X40819168Y-20160007D01*
X40831780Y-20181050D01*
X40842270Y-20203229D01*
X40850535Y-20226328D01*
X40856496Y-20250127D01*
X40860096Y-20274395D01*
X40861300Y-20298899D01*
X40861300Y-21198901D01*
X40860096Y-21223405D01*
X40856496Y-21247673D01*
X40850535Y-21271472D01*
X40842270Y-21294571D01*
X40831780Y-21316750D01*
X40819168Y-21337793D01*
X40804553Y-21357499D01*
X40788077Y-21375677D01*
X40769899Y-21392153D01*
X40750193Y-21406768D01*
X40729150Y-21419380D01*
X40706971Y-21429870D01*
X40683872Y-21438135D01*
X40660073Y-21444096D01*
X40635805Y-21447696D01*
X40611301Y-21448900D01*
X39961299Y-21448900D01*
X39936795Y-21447696D01*
X39912527Y-21444096D01*
X39888728Y-21438135D01*
X39865629Y-21429870D01*
X39843450Y-21419380D01*
X39822407Y-21406768D01*
X39802701Y-21392153D01*
X39784523Y-21375677D01*
X39768047Y-21357499D01*
X39753432Y-21337793D01*
X39740820Y-21316750D01*
X39730330Y-21294571D01*
X39722065Y-21271472D01*
X39716104Y-21247673D01*
X39712504Y-21223405D01*
X39711300Y-21198901D01*
X39711300Y-20298899D01*
X39712504Y-20274395D01*
X39716104Y-20250127D01*
X39722065Y-20226328D01*
X39730330Y-20203229D01*
X39740820Y-20181050D01*
X39753432Y-20160007D01*
X39768047Y-20140301D01*
X39784523Y-20122123D01*
X39802701Y-20105647D01*
X39822407Y-20091032D01*
X39843450Y-20078420D01*
X39865629Y-20067930D01*
X39888728Y-20059665D01*
X39912527Y-20053704D01*
X39936795Y-20050104D01*
X39961299Y-20048900D01*
X40611301Y-20048900D01*
X40635805Y-20050104D01*
X40635805Y-20050104D01*
G37*
D11*
X40286300Y-20748900D03*
D10*
G36*
X38585805Y-20050104D02*
X38610073Y-20053704D01*
X38633872Y-20059665D01*
X38656971Y-20067930D01*
X38679150Y-20078420D01*
X38700193Y-20091032D01*
X38719899Y-20105647D01*
X38738077Y-20122123D01*
X38754553Y-20140301D01*
X38769168Y-20160007D01*
X38781780Y-20181050D01*
X38792270Y-20203229D01*
X38800535Y-20226328D01*
X38806496Y-20250127D01*
X38810096Y-20274395D01*
X38811300Y-20298899D01*
X38811300Y-21198901D01*
X38810096Y-21223405D01*
X38806496Y-21247673D01*
X38800535Y-21271472D01*
X38792270Y-21294571D01*
X38781780Y-21316750D01*
X38769168Y-21337793D01*
X38754553Y-21357499D01*
X38738077Y-21375677D01*
X38719899Y-21392153D01*
X38700193Y-21406768D01*
X38679150Y-21419380D01*
X38656971Y-21429870D01*
X38633872Y-21438135D01*
X38610073Y-21444096D01*
X38585805Y-21447696D01*
X38561301Y-21448900D01*
X37911299Y-21448900D01*
X37886795Y-21447696D01*
X37862527Y-21444096D01*
X37838728Y-21438135D01*
X37815629Y-21429870D01*
X37793450Y-21419380D01*
X37772407Y-21406768D01*
X37752701Y-21392153D01*
X37734523Y-21375677D01*
X37718047Y-21357499D01*
X37703432Y-21337793D01*
X37690820Y-21316750D01*
X37680330Y-21294571D01*
X37672065Y-21271472D01*
X37666104Y-21247673D01*
X37662504Y-21223405D01*
X37661300Y-21198901D01*
X37661300Y-20298899D01*
X37662504Y-20274395D01*
X37666104Y-20250127D01*
X37672065Y-20226328D01*
X37680330Y-20203229D01*
X37690820Y-20181050D01*
X37703432Y-20160007D01*
X37718047Y-20140301D01*
X37734523Y-20122123D01*
X37752701Y-20105647D01*
X37772407Y-20091032D01*
X37793450Y-20078420D01*
X37815629Y-20067930D01*
X37838728Y-20059665D01*
X37862527Y-20053704D01*
X37886795Y-20050104D01*
X37911299Y-20048900D01*
X38561301Y-20048900D01*
X38585805Y-20050104D01*
X38585805Y-20050104D01*
G37*
D11*
X38236300Y-20748900D03*
G04 #@! TD*
D10*
G04 #@! TO.C,R18*
G36*
X28962905Y-24140704D02*
X28987173Y-24144304D01*
X29010972Y-24150265D01*
X29034071Y-24158530D01*
X29056250Y-24169020D01*
X29077293Y-24181632D01*
X29096999Y-24196247D01*
X29115177Y-24212723D01*
X29131653Y-24230901D01*
X29146268Y-24250607D01*
X29158880Y-24271650D01*
X29169370Y-24293829D01*
X29177635Y-24316928D01*
X29183596Y-24340727D01*
X29187196Y-24364995D01*
X29188400Y-24389499D01*
X29188400Y-25289501D01*
X29187196Y-25314005D01*
X29183596Y-25338273D01*
X29177635Y-25362072D01*
X29169370Y-25385171D01*
X29158880Y-25407350D01*
X29146268Y-25428393D01*
X29131653Y-25448099D01*
X29115177Y-25466277D01*
X29096999Y-25482753D01*
X29077293Y-25497368D01*
X29056250Y-25509980D01*
X29034071Y-25520470D01*
X29010972Y-25528735D01*
X28987173Y-25534696D01*
X28962905Y-25538296D01*
X28938401Y-25539500D01*
X28288399Y-25539500D01*
X28263895Y-25538296D01*
X28239627Y-25534696D01*
X28215828Y-25528735D01*
X28192729Y-25520470D01*
X28170550Y-25509980D01*
X28149507Y-25497368D01*
X28129801Y-25482753D01*
X28111623Y-25466277D01*
X28095147Y-25448099D01*
X28080532Y-25428393D01*
X28067920Y-25407350D01*
X28057430Y-25385171D01*
X28049165Y-25362072D01*
X28043204Y-25338273D01*
X28039604Y-25314005D01*
X28038400Y-25289501D01*
X28038400Y-24389499D01*
X28039604Y-24364995D01*
X28043204Y-24340727D01*
X28049165Y-24316928D01*
X28057430Y-24293829D01*
X28067920Y-24271650D01*
X28080532Y-24250607D01*
X28095147Y-24230901D01*
X28111623Y-24212723D01*
X28129801Y-24196247D01*
X28149507Y-24181632D01*
X28170550Y-24169020D01*
X28192729Y-24158530D01*
X28215828Y-24150265D01*
X28239627Y-24144304D01*
X28263895Y-24140704D01*
X28288399Y-24139500D01*
X28938401Y-24139500D01*
X28962905Y-24140704D01*
X28962905Y-24140704D01*
G37*
D11*
X28613400Y-24839500D03*
D10*
G36*
X31012905Y-24140704D02*
X31037173Y-24144304D01*
X31060972Y-24150265D01*
X31084071Y-24158530D01*
X31106250Y-24169020D01*
X31127293Y-24181632D01*
X31146999Y-24196247D01*
X31165177Y-24212723D01*
X31181653Y-24230901D01*
X31196268Y-24250607D01*
X31208880Y-24271650D01*
X31219370Y-24293829D01*
X31227635Y-24316928D01*
X31233596Y-24340727D01*
X31237196Y-24364995D01*
X31238400Y-24389499D01*
X31238400Y-25289501D01*
X31237196Y-25314005D01*
X31233596Y-25338273D01*
X31227635Y-25362072D01*
X31219370Y-25385171D01*
X31208880Y-25407350D01*
X31196268Y-25428393D01*
X31181653Y-25448099D01*
X31165177Y-25466277D01*
X31146999Y-25482753D01*
X31127293Y-25497368D01*
X31106250Y-25509980D01*
X31084071Y-25520470D01*
X31060972Y-25528735D01*
X31037173Y-25534696D01*
X31012905Y-25538296D01*
X30988401Y-25539500D01*
X30338399Y-25539500D01*
X30313895Y-25538296D01*
X30289627Y-25534696D01*
X30265828Y-25528735D01*
X30242729Y-25520470D01*
X30220550Y-25509980D01*
X30199507Y-25497368D01*
X30179801Y-25482753D01*
X30161623Y-25466277D01*
X30145147Y-25448099D01*
X30130532Y-25428393D01*
X30117920Y-25407350D01*
X30107430Y-25385171D01*
X30099165Y-25362072D01*
X30093204Y-25338273D01*
X30089604Y-25314005D01*
X30088400Y-25289501D01*
X30088400Y-24389499D01*
X30089604Y-24364995D01*
X30093204Y-24340727D01*
X30099165Y-24316928D01*
X30107430Y-24293829D01*
X30117920Y-24271650D01*
X30130532Y-24250607D01*
X30145147Y-24230901D01*
X30161623Y-24212723D01*
X30179801Y-24196247D01*
X30199507Y-24181632D01*
X30220550Y-24169020D01*
X30242729Y-24158530D01*
X30265828Y-24150265D01*
X30289627Y-24144304D01*
X30313895Y-24140704D01*
X30338399Y-24139500D01*
X30988401Y-24139500D01*
X31012905Y-24140704D01*
X31012905Y-24140704D01*
G37*
D11*
X30663400Y-24839500D03*
G04 #@! TD*
D10*
G04 #@! TO.C,R19*
G36*
X45031805Y-20415504D02*
X45056073Y-20419104D01*
X45079872Y-20425065D01*
X45102971Y-20433330D01*
X45125150Y-20443820D01*
X45146193Y-20456432D01*
X45165899Y-20471047D01*
X45184077Y-20487523D01*
X45200553Y-20505701D01*
X45215168Y-20525407D01*
X45227780Y-20546450D01*
X45238270Y-20568629D01*
X45246535Y-20591728D01*
X45252496Y-20615527D01*
X45256096Y-20639795D01*
X45257300Y-20664299D01*
X45257300Y-21564301D01*
X45256096Y-21588805D01*
X45252496Y-21613073D01*
X45246535Y-21636872D01*
X45238270Y-21659971D01*
X45227780Y-21682150D01*
X45215168Y-21703193D01*
X45200553Y-21722899D01*
X45184077Y-21741077D01*
X45165899Y-21757553D01*
X45146193Y-21772168D01*
X45125150Y-21784780D01*
X45102971Y-21795270D01*
X45079872Y-21803535D01*
X45056073Y-21809496D01*
X45031805Y-21813096D01*
X45007301Y-21814300D01*
X44357299Y-21814300D01*
X44332795Y-21813096D01*
X44308527Y-21809496D01*
X44284728Y-21803535D01*
X44261629Y-21795270D01*
X44239450Y-21784780D01*
X44218407Y-21772168D01*
X44198701Y-21757553D01*
X44180523Y-21741077D01*
X44164047Y-21722899D01*
X44149432Y-21703193D01*
X44136820Y-21682150D01*
X44126330Y-21659971D01*
X44118065Y-21636872D01*
X44112104Y-21613073D01*
X44108504Y-21588805D01*
X44107300Y-21564301D01*
X44107300Y-20664299D01*
X44108504Y-20639795D01*
X44112104Y-20615527D01*
X44118065Y-20591728D01*
X44126330Y-20568629D01*
X44136820Y-20546450D01*
X44149432Y-20525407D01*
X44164047Y-20505701D01*
X44180523Y-20487523D01*
X44198701Y-20471047D01*
X44218407Y-20456432D01*
X44239450Y-20443820D01*
X44261629Y-20433330D01*
X44284728Y-20425065D01*
X44308527Y-20419104D01*
X44332795Y-20415504D01*
X44357299Y-20414300D01*
X45007301Y-20414300D01*
X45031805Y-20415504D01*
X45031805Y-20415504D01*
G37*
D11*
X44682300Y-21114300D03*
D10*
G36*
X42981805Y-20415504D02*
X43006073Y-20419104D01*
X43029872Y-20425065D01*
X43052971Y-20433330D01*
X43075150Y-20443820D01*
X43096193Y-20456432D01*
X43115899Y-20471047D01*
X43134077Y-20487523D01*
X43150553Y-20505701D01*
X43165168Y-20525407D01*
X43177780Y-20546450D01*
X43188270Y-20568629D01*
X43196535Y-20591728D01*
X43202496Y-20615527D01*
X43206096Y-20639795D01*
X43207300Y-20664299D01*
X43207300Y-21564301D01*
X43206096Y-21588805D01*
X43202496Y-21613073D01*
X43196535Y-21636872D01*
X43188270Y-21659971D01*
X43177780Y-21682150D01*
X43165168Y-21703193D01*
X43150553Y-21722899D01*
X43134077Y-21741077D01*
X43115899Y-21757553D01*
X43096193Y-21772168D01*
X43075150Y-21784780D01*
X43052971Y-21795270D01*
X43029872Y-21803535D01*
X43006073Y-21809496D01*
X42981805Y-21813096D01*
X42957301Y-21814300D01*
X42307299Y-21814300D01*
X42282795Y-21813096D01*
X42258527Y-21809496D01*
X42234728Y-21803535D01*
X42211629Y-21795270D01*
X42189450Y-21784780D01*
X42168407Y-21772168D01*
X42148701Y-21757553D01*
X42130523Y-21741077D01*
X42114047Y-21722899D01*
X42099432Y-21703193D01*
X42086820Y-21682150D01*
X42076330Y-21659971D01*
X42068065Y-21636872D01*
X42062104Y-21613073D01*
X42058504Y-21588805D01*
X42057300Y-21564301D01*
X42057300Y-20664299D01*
X42058504Y-20639795D01*
X42062104Y-20615527D01*
X42068065Y-20591728D01*
X42076330Y-20568629D01*
X42086820Y-20546450D01*
X42099432Y-20525407D01*
X42114047Y-20505701D01*
X42130523Y-20487523D01*
X42148701Y-20471047D01*
X42168407Y-20456432D01*
X42189450Y-20443820D01*
X42211629Y-20433330D01*
X42234728Y-20425065D01*
X42258527Y-20419104D01*
X42282795Y-20415504D01*
X42307299Y-20414300D01*
X42957301Y-20414300D01*
X42981805Y-20415504D01*
X42981805Y-20415504D01*
G37*
D11*
X42632300Y-21114300D03*
G04 #@! TD*
M02*
