G04 #@! TF.GenerationSoftware,KiCad,Pcbnew,5.0.1*
G04 #@! TF.CreationDate,2019-02-11T13:29:20+08:00*
G04 #@! TF.ProjectId,lab,6C61622E6B696361645F706362000000,rev?*
G04 #@! TF.SameCoordinates,Original*
G04 #@! TF.FileFunction,Copper,L2,Bot,Signal*
G04 #@! TF.FilePolarity,Positive*
%FSLAX46Y46*%
G04 Gerber Fmt 4.6, Leading zero omitted, Abs format (unit mm)*
G04 Created by KiCad (PCBNEW 5.0.1) date Mon 11 Feb 2019 01:29:20 PM +08*
%MOMM*%
%LPD*%
G01*
G04 APERTURE LIST*
G04 #@! TA.AperFunction,ComponentPad*
%ADD10R,1.200000X1.200000*%
G04 #@! TD*
G04 #@! TA.AperFunction,ComponentPad*
%ADD11C,1.200000*%
G04 #@! TD*
G04 #@! TA.AperFunction,ComponentPad*
%ADD12O,1.700000X1.700000*%
G04 #@! TD*
G04 #@! TA.AperFunction,ComponentPad*
%ADD13R,1.700000X1.700000*%
G04 #@! TD*
G04 #@! TA.AperFunction,ComponentPad*
%ADD14R,1.600000X1.600000*%
G04 #@! TD*
G04 #@! TA.AperFunction,ComponentPad*
%ADD15C,1.600000*%
G04 #@! TD*
G04 #@! TA.AperFunction,ComponentPad*
%ADD16R,1.600000X2.400000*%
G04 #@! TD*
G04 #@! TA.AperFunction,ComponentPad*
%ADD17O,1.600000X2.400000*%
G04 #@! TD*
G04 #@! TA.AperFunction,ComponentPad*
%ADD18O,1.500000X1.050000*%
G04 #@! TD*
G04 #@! TA.AperFunction,ComponentPad*
%ADD19R,1.500000X1.050000*%
G04 #@! TD*
G04 #@! TA.AperFunction,Conductor*
%ADD20C,0.100000*%
G04 #@! TD*
G04 #@! TA.AperFunction,ComponentPad*
%ADD21C,1.100000*%
G04 #@! TD*
G04 #@! TA.AperFunction,ComponentPad*
%ADD22R,1.800000X1.100000*%
G04 #@! TD*
G04 #@! TA.AperFunction,ComponentPad*
%ADD23C,1.440000*%
G04 #@! TD*
G04 #@! TA.AperFunction,ViaPad*
%ADD24C,2.000000*%
G04 #@! TD*
G04 #@! TA.AperFunction,Conductor*
%ADD25C,0.250000*%
G04 #@! TD*
G04 APERTURE END LIST*
D10*
G04 #@! TO.P,C3,1*
G04 #@! TO.N,Net-(C3-Pad1)*
X56618900Y-46739200D03*
D11*
G04 #@! TO.P,C3,2*
G04 #@! TO.N,Net-(C3-Pad2)*
X55118900Y-46739200D03*
G04 #@! TD*
D12*
G04 #@! TO.P,J1,10*
G04 #@! TO.N,MEAS*
X44800000Y-24330000D03*
G04 #@! TO.P,J1,9*
G04 #@! TO.N,GNDD*
X44800000Y-26870000D03*
G04 #@! TO.P,J1,8*
G04 #@! TO.N,VREF3.3*
X42260000Y-24330000D03*
G04 #@! TO.P,J1,7*
G04 #@! TO.N,SIN*
X42260000Y-26870000D03*
G04 #@! TO.P,J1,6*
G04 #@! TO.N,CMRST*
X39720000Y-24330000D03*
G04 #@! TO.P,J1,5*
G04 #@! TO.N,TRIANGLE*
X39720000Y-26870000D03*
G04 #@! TO.P,J1,4*
G04 #@! TO.N,CSD2*
X37180000Y-24330000D03*
G04 #@! TO.P,J1,3*
G04 #@! TO.N,SQUARE*
X37180000Y-26870000D03*
G04 #@! TO.P,J1,2*
G04 #@! TO.N,CSD1*
X34640000Y-24330000D03*
D13*
G04 #@! TO.P,J1,1*
G04 #@! TO.N,+5V*
X34640000Y-26870000D03*
G04 #@! TD*
D12*
G04 #@! TO.P,JP1,2*
G04 #@! TO.N,Net-(C3-Pad2)*
X49267300Y-46950900D03*
D13*
G04 #@! TO.P,JP1,1*
G04 #@! TO.N,SIN*
X49267300Y-44410900D03*
G04 #@! TD*
G04 #@! TO.P,JP2,1*
G04 #@! TO.N,Net-(C5-Pad1)*
X62174600Y-39986000D03*
D12*
G04 #@! TO.P,JP2,2*
G04 #@! TO.N,Net-(JP2-Pad2)*
X62174600Y-37446000D03*
G04 #@! TD*
D14*
G04 #@! TO.P,LS1,1*
G04 #@! TO.N,+5V*
X60590000Y-30330000D03*
D15*
G04 #@! TO.P,LS1,2*
G04 #@! TO.N,Net-(JP2-Pad2)*
X60590000Y-32830000D03*
G04 #@! TD*
D13*
G04 #@! TO.P,R2,1*
G04 #@! TO.N,TMEAS*
X58393600Y-20959400D03*
D12*
G04 #@! TO.P,R2,2*
G04 #@! TO.N,GNDD*
X60933600Y-20959400D03*
G04 #@! TD*
D16*
G04 #@! TO.P,U1,1*
G04 #@! TO.N,VREF3.3*
X44990000Y-36030000D03*
D17*
G04 #@! TO.P,U1,8*
G04 #@! TO.N,TRIANGLE*
X29750000Y-43650000D03*
G04 #@! TO.P,U1,2*
G04 #@! TO.N,Net-(R9-Pad2)*
X42450000Y-36030000D03*
G04 #@! TO.P,U1,9*
G04 #@! TO.N,Net-(C6-Pad2)*
X32290000Y-43650000D03*
G04 #@! TO.P,U1,3*
G04 #@! TO.N,3V3*
X39910000Y-36030000D03*
G04 #@! TO.P,U1,10*
G04 #@! TO.N,Net-(R10-Pad2)*
X34830000Y-43650000D03*
G04 #@! TO.P,U1,4*
G04 #@! TO.N,+5V*
X37370000Y-36030000D03*
G04 #@! TO.P,U1,11*
G04 #@! TO.N,GNDD*
X37370000Y-43650000D03*
G04 #@! TO.P,U1,5*
G04 #@! TO.N,Net-(R3-Pad1)*
X34830000Y-36030000D03*
G04 #@! TO.P,U1,12*
G04 #@! TO.N,Net-(R13-Pad2)*
X39910000Y-43650000D03*
G04 #@! TO.P,U1,6*
G04 #@! TO.N,Net-(C1-Pad1)*
X32290000Y-36030000D03*
G04 #@! TO.P,U1,13*
G04 #@! TO.N,Net-(C7-Pad2)*
X42450000Y-43650000D03*
G04 #@! TO.P,U1,7*
G04 #@! TO.N,SQUARE*
X29750000Y-36030000D03*
G04 #@! TO.P,U1,14*
G04 #@! TO.N,SIN*
X44990000Y-43650000D03*
G04 #@! TD*
D18*
G04 #@! TO.P,U2,2*
G04 #@! TO.N,GNDD*
X52110000Y-31270000D03*
G04 #@! TO.P,U2,3*
G04 #@! TO.N,+5V*
X52110000Y-30000000D03*
D19*
G04 #@! TO.P,U2,1*
G04 #@! TO.N,3V3*
X52110000Y-32540000D03*
G04 #@! TD*
D20*
G04 #@! TO.N,Net-(C5-Pad2)*
G04 #@! TO.C,Q1*
G36*
X58774555Y-40840224D02*
X58801250Y-40844184D01*
X58827428Y-40850741D01*
X58852838Y-40859833D01*
X58877234Y-40871372D01*
X58900382Y-40885246D01*
X58922058Y-40901322D01*
X58942054Y-40919446D01*
X58960178Y-40939442D01*
X58976254Y-40961118D01*
X58990128Y-40984266D01*
X59001667Y-41008662D01*
X59010759Y-41034072D01*
X59017316Y-41060250D01*
X59021276Y-41086945D01*
X59022600Y-41113900D01*
X59022600Y-41663900D01*
X59021276Y-41690855D01*
X59017316Y-41717550D01*
X59010759Y-41743728D01*
X59001667Y-41769138D01*
X58990128Y-41793534D01*
X58976254Y-41816682D01*
X58960178Y-41838358D01*
X58942054Y-41858354D01*
X58922058Y-41876478D01*
X58900382Y-41892554D01*
X58877234Y-41906428D01*
X58852838Y-41917967D01*
X58827428Y-41927059D01*
X58801250Y-41933616D01*
X58774555Y-41937576D01*
X58747600Y-41938900D01*
X57497600Y-41938900D01*
X57470645Y-41937576D01*
X57443950Y-41933616D01*
X57417772Y-41927059D01*
X57392362Y-41917967D01*
X57367966Y-41906428D01*
X57344818Y-41892554D01*
X57323142Y-41876478D01*
X57303146Y-41858354D01*
X57285022Y-41838358D01*
X57268946Y-41816682D01*
X57255072Y-41793534D01*
X57243533Y-41769138D01*
X57234441Y-41743728D01*
X57227884Y-41717550D01*
X57223924Y-41690855D01*
X57222600Y-41663900D01*
X57222600Y-41113900D01*
X57223924Y-41086945D01*
X57227884Y-41060250D01*
X57234441Y-41034072D01*
X57243533Y-41008662D01*
X57255072Y-40984266D01*
X57268946Y-40961118D01*
X57285022Y-40939442D01*
X57303146Y-40919446D01*
X57323142Y-40901322D01*
X57344818Y-40885246D01*
X57367966Y-40871372D01*
X57392362Y-40859833D01*
X57417772Y-40850741D01*
X57443950Y-40844184D01*
X57470645Y-40840224D01*
X57497600Y-40838900D01*
X58747600Y-40838900D01*
X58774555Y-40840224D01*
X58774555Y-40840224D01*
G37*
D21*
G04 #@! TD*
G04 #@! TO.P,Q1,2*
G04 #@! TO.N,Net-(C5-Pad2)*
X58122600Y-41388900D03*
D20*
G04 #@! TO.N,Net-(C5-Pad1)*
G04 #@! TO.C,Q1*
G36*
X56704555Y-42110224D02*
X56731250Y-42114184D01*
X56757428Y-42120741D01*
X56782838Y-42129833D01*
X56807234Y-42141372D01*
X56830382Y-42155246D01*
X56852058Y-42171322D01*
X56872054Y-42189446D01*
X56890178Y-42209442D01*
X56906254Y-42231118D01*
X56920128Y-42254266D01*
X56931667Y-42278662D01*
X56940759Y-42304072D01*
X56947316Y-42330250D01*
X56951276Y-42356945D01*
X56952600Y-42383900D01*
X56952600Y-42933900D01*
X56951276Y-42960855D01*
X56947316Y-42987550D01*
X56940759Y-43013728D01*
X56931667Y-43039138D01*
X56920128Y-43063534D01*
X56906254Y-43086682D01*
X56890178Y-43108358D01*
X56872054Y-43128354D01*
X56852058Y-43146478D01*
X56830382Y-43162554D01*
X56807234Y-43176428D01*
X56782838Y-43187967D01*
X56757428Y-43197059D01*
X56731250Y-43203616D01*
X56704555Y-43207576D01*
X56677600Y-43208900D01*
X55427600Y-43208900D01*
X55400645Y-43207576D01*
X55373950Y-43203616D01*
X55347772Y-43197059D01*
X55322362Y-43187967D01*
X55297966Y-43176428D01*
X55274818Y-43162554D01*
X55253142Y-43146478D01*
X55233146Y-43128354D01*
X55215022Y-43108358D01*
X55198946Y-43086682D01*
X55185072Y-43063534D01*
X55173533Y-43039138D01*
X55164441Y-43013728D01*
X55157884Y-42987550D01*
X55153924Y-42960855D01*
X55152600Y-42933900D01*
X55152600Y-42383900D01*
X55153924Y-42356945D01*
X55157884Y-42330250D01*
X55164441Y-42304072D01*
X55173533Y-42278662D01*
X55185072Y-42254266D01*
X55198946Y-42231118D01*
X55215022Y-42209442D01*
X55233146Y-42189446D01*
X55253142Y-42171322D01*
X55274818Y-42155246D01*
X55297966Y-42141372D01*
X55322362Y-42129833D01*
X55347772Y-42120741D01*
X55373950Y-42114184D01*
X55400645Y-42110224D01*
X55427600Y-42108900D01*
X56677600Y-42108900D01*
X56704555Y-42110224D01*
X56704555Y-42110224D01*
G37*
D21*
G04 #@! TD*
G04 #@! TO.P,Q1,3*
G04 #@! TO.N,Net-(C5-Pad1)*
X56052600Y-42658900D03*
D22*
G04 #@! TO.P,Q1,1*
G04 #@! TO.N,GNDD*
X56052600Y-40118900D03*
G04 #@! TD*
D23*
G04 #@! TO.P,RV1,1*
G04 #@! TO.N,Net-(JP4-Pad2)*
X22770000Y-33780000D03*
G04 #@! TO.P,RV1,2*
G04 #@! TO.N,SQUARE*
X22770000Y-36320000D03*
G04 #@! TO.P,RV1,3*
G04 #@! TO.N,N/C*
X22770000Y-38860000D03*
G04 #@! TD*
D13*
G04 #@! TO.P,J3,1*
G04 #@! TO.N,GNDD*
X54690000Y-25540000D03*
D12*
G04 #@! TO.P,J3,2*
G04 #@! TO.N,CMEAS*
X52150000Y-25540000D03*
G04 #@! TD*
D20*
G04 #@! TO.N,Net-(Q2-Pad2)*
G04 #@! TO.C,Q2*
G36*
X23141955Y-20701324D02*
X23168650Y-20705284D01*
X23194828Y-20711841D01*
X23220238Y-20720933D01*
X23244634Y-20732472D01*
X23267782Y-20746346D01*
X23289458Y-20762422D01*
X23309454Y-20780546D01*
X23327578Y-20800542D01*
X23343654Y-20822218D01*
X23357528Y-20845366D01*
X23369067Y-20869762D01*
X23378159Y-20895172D01*
X23384716Y-20921350D01*
X23388676Y-20948045D01*
X23390000Y-20975000D01*
X23390000Y-21525000D01*
X23388676Y-21551955D01*
X23384716Y-21578650D01*
X23378159Y-21604828D01*
X23369067Y-21630238D01*
X23357528Y-21654634D01*
X23343654Y-21677782D01*
X23327578Y-21699458D01*
X23309454Y-21719454D01*
X23289458Y-21737578D01*
X23267782Y-21753654D01*
X23244634Y-21767528D01*
X23220238Y-21779067D01*
X23194828Y-21788159D01*
X23168650Y-21794716D01*
X23141955Y-21798676D01*
X23115000Y-21800000D01*
X21865000Y-21800000D01*
X21838045Y-21798676D01*
X21811350Y-21794716D01*
X21785172Y-21788159D01*
X21759762Y-21779067D01*
X21735366Y-21767528D01*
X21712218Y-21753654D01*
X21690542Y-21737578D01*
X21670546Y-21719454D01*
X21652422Y-21699458D01*
X21636346Y-21677782D01*
X21622472Y-21654634D01*
X21610933Y-21630238D01*
X21601841Y-21604828D01*
X21595284Y-21578650D01*
X21591324Y-21551955D01*
X21590000Y-21525000D01*
X21590000Y-20975000D01*
X21591324Y-20948045D01*
X21595284Y-20921350D01*
X21601841Y-20895172D01*
X21610933Y-20869762D01*
X21622472Y-20845366D01*
X21636346Y-20822218D01*
X21652422Y-20800542D01*
X21670546Y-20780546D01*
X21690542Y-20762422D01*
X21712218Y-20746346D01*
X21735366Y-20732472D01*
X21759762Y-20720933D01*
X21785172Y-20711841D01*
X21811350Y-20705284D01*
X21838045Y-20701324D01*
X21865000Y-20700000D01*
X23115000Y-20700000D01*
X23141955Y-20701324D01*
X23141955Y-20701324D01*
G37*
D21*
G04 #@! TD*
G04 #@! TO.P,Q2,2*
G04 #@! TO.N,Net-(Q2-Pad2)*
X22490000Y-21250000D03*
D20*
G04 #@! TO.N,3V3*
G04 #@! TO.C,Q2*
G36*
X25211955Y-19431324D02*
X25238650Y-19435284D01*
X25264828Y-19441841D01*
X25290238Y-19450933D01*
X25314634Y-19462472D01*
X25337782Y-19476346D01*
X25359458Y-19492422D01*
X25379454Y-19510546D01*
X25397578Y-19530542D01*
X25413654Y-19552218D01*
X25427528Y-19575366D01*
X25439067Y-19599762D01*
X25448159Y-19625172D01*
X25454716Y-19651350D01*
X25458676Y-19678045D01*
X25460000Y-19705000D01*
X25460000Y-20255000D01*
X25458676Y-20281955D01*
X25454716Y-20308650D01*
X25448159Y-20334828D01*
X25439067Y-20360238D01*
X25427528Y-20384634D01*
X25413654Y-20407782D01*
X25397578Y-20429458D01*
X25379454Y-20449454D01*
X25359458Y-20467578D01*
X25337782Y-20483654D01*
X25314634Y-20497528D01*
X25290238Y-20509067D01*
X25264828Y-20518159D01*
X25238650Y-20524716D01*
X25211955Y-20528676D01*
X25185000Y-20530000D01*
X23935000Y-20530000D01*
X23908045Y-20528676D01*
X23881350Y-20524716D01*
X23855172Y-20518159D01*
X23829762Y-20509067D01*
X23805366Y-20497528D01*
X23782218Y-20483654D01*
X23760542Y-20467578D01*
X23740546Y-20449454D01*
X23722422Y-20429458D01*
X23706346Y-20407782D01*
X23692472Y-20384634D01*
X23680933Y-20360238D01*
X23671841Y-20334828D01*
X23665284Y-20308650D01*
X23661324Y-20281955D01*
X23660000Y-20255000D01*
X23660000Y-19705000D01*
X23661324Y-19678045D01*
X23665284Y-19651350D01*
X23671841Y-19625172D01*
X23680933Y-19599762D01*
X23692472Y-19575366D01*
X23706346Y-19552218D01*
X23722422Y-19530542D01*
X23740546Y-19510546D01*
X23760542Y-19492422D01*
X23782218Y-19476346D01*
X23805366Y-19462472D01*
X23829762Y-19450933D01*
X23855172Y-19441841D01*
X23881350Y-19435284D01*
X23908045Y-19431324D01*
X23935000Y-19430000D01*
X25185000Y-19430000D01*
X25211955Y-19431324D01*
X25211955Y-19431324D01*
G37*
D21*
G04 #@! TD*
G04 #@! TO.P,Q2,3*
G04 #@! TO.N,3V3*
X24560000Y-19980000D03*
D22*
G04 #@! TO.P,Q2,1*
G04 #@! TO.N,Net-(Q2-Pad1)*
X24560000Y-22520000D03*
G04 #@! TD*
G04 #@! TO.P,Q3,1*
G04 #@! TO.N,Net-(Q3-Pad1)*
X29150000Y-19980000D03*
D20*
G04 #@! TD*
G04 #@! TO.N,3V3*
G04 #@! TO.C,Q3*
G36*
X29801955Y-21971324D02*
X29828650Y-21975284D01*
X29854828Y-21981841D01*
X29880238Y-21990933D01*
X29904634Y-22002472D01*
X29927782Y-22016346D01*
X29949458Y-22032422D01*
X29969454Y-22050546D01*
X29987578Y-22070542D01*
X30003654Y-22092218D01*
X30017528Y-22115366D01*
X30029067Y-22139762D01*
X30038159Y-22165172D01*
X30044716Y-22191350D01*
X30048676Y-22218045D01*
X30050000Y-22245000D01*
X30050000Y-22795000D01*
X30048676Y-22821955D01*
X30044716Y-22848650D01*
X30038159Y-22874828D01*
X30029067Y-22900238D01*
X30017528Y-22924634D01*
X30003654Y-22947782D01*
X29987578Y-22969458D01*
X29969454Y-22989454D01*
X29949458Y-23007578D01*
X29927782Y-23023654D01*
X29904634Y-23037528D01*
X29880238Y-23049067D01*
X29854828Y-23058159D01*
X29828650Y-23064716D01*
X29801955Y-23068676D01*
X29775000Y-23070000D01*
X28525000Y-23070000D01*
X28498045Y-23068676D01*
X28471350Y-23064716D01*
X28445172Y-23058159D01*
X28419762Y-23049067D01*
X28395366Y-23037528D01*
X28372218Y-23023654D01*
X28350542Y-23007578D01*
X28330546Y-22989454D01*
X28312422Y-22969458D01*
X28296346Y-22947782D01*
X28282472Y-22924634D01*
X28270933Y-22900238D01*
X28261841Y-22874828D01*
X28255284Y-22848650D01*
X28251324Y-22821955D01*
X28250000Y-22795000D01*
X28250000Y-22245000D01*
X28251324Y-22218045D01*
X28255284Y-22191350D01*
X28261841Y-22165172D01*
X28270933Y-22139762D01*
X28282472Y-22115366D01*
X28296346Y-22092218D01*
X28312422Y-22070542D01*
X28330546Y-22050546D01*
X28350542Y-22032422D01*
X28372218Y-22016346D01*
X28395366Y-22002472D01*
X28419762Y-21990933D01*
X28445172Y-21981841D01*
X28471350Y-21975284D01*
X28498045Y-21971324D01*
X28525000Y-21970000D01*
X29775000Y-21970000D01*
X29801955Y-21971324D01*
X29801955Y-21971324D01*
G37*
D21*
G04 #@! TO.P,Q3,3*
G04 #@! TO.N,3V3*
X29150000Y-22520000D03*
D20*
G04 #@! TD*
G04 #@! TO.N,Net-(Q3-Pad2)*
G04 #@! TO.C,Q3*
G36*
X31871955Y-20701324D02*
X31898650Y-20705284D01*
X31924828Y-20711841D01*
X31950238Y-20720933D01*
X31974634Y-20732472D01*
X31997782Y-20746346D01*
X32019458Y-20762422D01*
X32039454Y-20780546D01*
X32057578Y-20800542D01*
X32073654Y-20822218D01*
X32087528Y-20845366D01*
X32099067Y-20869762D01*
X32108159Y-20895172D01*
X32114716Y-20921350D01*
X32118676Y-20948045D01*
X32120000Y-20975000D01*
X32120000Y-21525000D01*
X32118676Y-21551955D01*
X32114716Y-21578650D01*
X32108159Y-21604828D01*
X32099067Y-21630238D01*
X32087528Y-21654634D01*
X32073654Y-21677782D01*
X32057578Y-21699458D01*
X32039454Y-21719454D01*
X32019458Y-21737578D01*
X31997782Y-21753654D01*
X31974634Y-21767528D01*
X31950238Y-21779067D01*
X31924828Y-21788159D01*
X31898650Y-21794716D01*
X31871955Y-21798676D01*
X31845000Y-21800000D01*
X30595000Y-21800000D01*
X30568045Y-21798676D01*
X30541350Y-21794716D01*
X30515172Y-21788159D01*
X30489762Y-21779067D01*
X30465366Y-21767528D01*
X30442218Y-21753654D01*
X30420542Y-21737578D01*
X30400546Y-21719454D01*
X30382422Y-21699458D01*
X30366346Y-21677782D01*
X30352472Y-21654634D01*
X30340933Y-21630238D01*
X30331841Y-21604828D01*
X30325284Y-21578650D01*
X30321324Y-21551955D01*
X30320000Y-21525000D01*
X30320000Y-20975000D01*
X30321324Y-20948045D01*
X30325284Y-20921350D01*
X30331841Y-20895172D01*
X30340933Y-20869762D01*
X30352472Y-20845366D01*
X30366346Y-20822218D01*
X30382422Y-20800542D01*
X30400546Y-20780546D01*
X30420542Y-20762422D01*
X30442218Y-20746346D01*
X30465366Y-20732472D01*
X30489762Y-20720933D01*
X30515172Y-20711841D01*
X30541350Y-20705284D01*
X30568045Y-20701324D01*
X30595000Y-20700000D01*
X31845000Y-20700000D01*
X31871955Y-20701324D01*
X31871955Y-20701324D01*
G37*
D21*
G04 #@! TO.P,Q3,2*
G04 #@! TO.N,Net-(Q3-Pad2)*
X31220000Y-21250000D03*
G04 #@! TD*
D13*
G04 #@! TO.P,JP4,1*
G04 #@! TO.N,Net-(C1-Pad1)*
X29335300Y-29800800D03*
D12*
G04 #@! TO.P,JP4,2*
G04 #@! TO.N,Net-(JP4-Pad2)*
X26795300Y-29800800D03*
G04 #@! TD*
D13*
G04 #@! TO.P,JP3,1*
G04 #@! TO.N,CMEAS*
X49180700Y-21142100D03*
D12*
G04 #@! TO.P,JP3,2*
G04 #@! TO.N,MEAS*
X51720700Y-21142100D03*
G04 #@! TO.P,JP3,3*
G04 #@! TO.N,TMEAS*
X54260700Y-21142100D03*
G04 #@! TD*
D24*
G04 #@! TO.N,GNDD*
X35306000Y-30480000D03*
X49784000Y-30480000D03*
G04 #@! TO.N,3V3*
X44958000Y-31496000D03*
X37846000Y-33020000D03*
G04 #@! TO.N,CMEAS*
X46990000Y-21555854D03*
X47752000Y-28702000D03*
G04 #@! TD*
D25*
G04 #@! TO.N,GNDD*
X35306000Y-30480000D02*
X42418000Y-30480000D01*
X42418000Y-30480000D02*
X42672000Y-30226000D01*
X42672000Y-30226000D02*
X43942000Y-30226000D01*
X43942000Y-30226000D02*
X44196000Y-30226000D01*
X44196000Y-30226000D02*
X44251001Y-30170999D01*
X44251001Y-30170999D02*
X45212000Y-30170999D01*
X45212000Y-30170999D02*
X45267001Y-30170999D01*
X45974000Y-30170999D02*
X45974000Y-30480000D01*
X45974000Y-30170999D02*
X45212000Y-30170999D01*
X45974000Y-30480000D02*
X46990000Y-31496000D01*
X48768000Y-31496000D02*
X49784000Y-30480000D01*
X46990000Y-31496000D02*
X48768000Y-31496000D01*
G04 #@! TO.N,3V3*
X41148000Y-33020000D02*
X43434000Y-33020000D01*
X43434000Y-33020000D02*
X44958000Y-31496000D01*
X41148000Y-33020000D02*
X37846000Y-33020000D01*
X41911260Y-33020000D02*
X41148000Y-33020000D01*
G04 #@! TO.N,CMEAS*
X46990000Y-27940000D02*
X47752000Y-28702000D01*
X46990000Y-21555854D02*
X46990000Y-27940000D01*
G04 #@! TD*
M02*
